<svg version="1.1" viewBox="0.0 0.0 600.0 371.0" fill="none" stroke="none" stroke-linecap="square" stroke-miterlimit="10" width="600" height="371" xmlns:xlink="http://www.w3.org/1999/xlink" xmlns="http://www.w3.org/2000/svg"><path fill="#ffffff" d="M0 0L600.0 0L600.0 371.0L0 371.0L0 0Z" fill-rule="nonzero"/><path stroke="#333333" stroke-width="1.0" stroke-linecap="butt" d="M45.5 332.5L581.5 332.5" fill-rule="nonzero"/><path stroke="#cccccc" stroke-width="1.0" stroke-linecap="butt" d="M45.5 271.5L581.5 271.5" fill-rule="nonzero"/><path stroke="#cccccc" stroke-width="1.0" stroke-linecap="butt" d="M45.5 210.5L581.5 210.5" fill-rule="nonzero"/><path stroke="#cccccc" stroke-width="1.0" stroke-linecap="butt" d="M45.5 149.5L581.5 149.5" fill-rule="nonzero"/><path stroke="#cccccc" stroke-width="1.0" stroke-linecap="butt" d="M45.5 88.5L581.5 88.5" fill-rule="nonzero"/><clipPath id="id_0"><path d="M45.55 88.28333L581.45 88.28333L581.45 332.45L45.55 332.45L45.55 88.28333Z" clip-rule="nonzero"/></clipPath><path stroke="#000000" stroke-width="2.0" stroke-linecap="butt" stroke-opacity="0.0" clip-path="url(#id_0)" d="M128.0 332.0L90.0 332.0L90.0 90.0C90.0 88.89543 90.89543 88.0 92.0 88.0L126.0 88.0C127.10457 88.0 128.0 88.89543 128.0 90.0Z" fill-rule="nonzero"/><path fill="#4285f4" clip-path="url(#id_0)" d="M128.0 332.0L90.0 332.0L90.0 90.0C90.0 88.89543 90.89543 88.0 92.0 88.0L126.0 88.0C127.10457 88.0 128.0 88.89543 128.0 90.0Z" fill-rule="nonzero"/><path stroke="#000000" stroke-width="2.0" stroke-linecap="butt" stroke-opacity="0.0" clip-path="url(#id_0)" d="M251.0 332.0L213.0 332.0L213.0 156.0C213.0 154.89543 213.89543 154.0 215.0 154.0L249.0 154.0C250.10457 154.0 251.0 154.89543 251.0 156.0Z" fill-rule="nonzero"/><path fill="#4285f4" clip-path="url(#id_0)" d="M251.0 332.0L213.0 332.0L213.0 156.0C213.0 154.89543 213.89543 154.0 215.0 154.0L249.0 154.0C250.10457 154.0 251.0 154.89543 251.0 156.0Z" fill-rule="nonzero"/><path stroke="#000000" stroke-width="2.0" stroke-linecap="butt" stroke-opacity="0.0" clip-path="url(#id_0)" d="M374.0 332.0L336.0 332.0L336.0 107.0C336.0 105.89543 336.89542 105.0 338.0 105.0L372.0 105.0C373.10458 105.0 374.0 105.89543 374.0 107.0Z" fill-rule="nonzero"/><path fill="#4285f4" clip-path="url(#id_0)" d="M374.0 332.0L336.0 332.0L336.0 107.0C336.0 105.89543 336.89542 105.0 338.0 105.0L372.0 105.0C373.10458 105.0 374.0 105.89543 374.0 107.0Z" fill-rule="nonzero"/><path stroke="#000000" stroke-width="2.0" stroke-linecap="butt" stroke-opacity="0.0" clip-path="url(#id_0)" d="M497.0 332.0L459.0 332.0L459.0 127.0C459.0 125.89543 459.89542 125.0 461.0 125.0L495.0 125.0C496.10458 125.0 497.0 125.89543 497.0 127.0Z" fill-rule="nonzero"/><path fill="#4285f4" clip-path="url(#id_0)" d="M497.0 332.0L459.0 332.0L459.0 127.0C459.0 125.89543 459.89542 125.0 461.0 125.0L495.0 125.0C496.10458 125.0 497.0 125.89543 497.0 127.0Z" fill-rule="nonzero"/><path stroke="#000000" stroke-width="2.0" stroke-linecap="butt" stroke-opacity="0.0" clip-path="url(#id_0)" d="M168.0 332.0L130.0 332.0L130.0 90.0C130.0 88.89543 130.89543 88.0 132.0 88.0L166.0 88.0C167.10457 88.0 168.0 88.89543 168.0 90.0Z" fill-rule="nonzero"/><path fill="#ea4335" clip-path="url(#id_0)" d="M168.0 332.0L130.0 332.0L130.0 90.0C130.0 88.89543 130.89543 88.0 132.0 88.0L166.0 88.0C167.10457 88.0 168.0 88.89543 168.0 90.0Z" fill-rule="nonzero"/><path stroke="#000000" stroke-width="2.0" stroke-linecap="butt" stroke-opacity="0.0" clip-path="url(#id_0)" d="M291.0 332.0L253.0 332.0L253.0 90.0C253.0 88.89543 253.89543 88.0 255.0 88.0L289.0 88.0C290.10458 88.0 291.0 88.89543 291.0 90.0Z" fill-rule="nonzero"/><path fill="#ea4335" clip-path="url(#id_0)" d="M291.0 332.0L253.0 332.0L253.0 90.0C253.0 88.89543 253.89543 88.0 255.0 88.0L289.0 88.0C290.10458 88.0 291.0 88.89543 291.0 90.0Z" fill-rule="nonzero"/><path stroke="#000000" stroke-width="2.0" stroke-linecap="butt" stroke-opacity="0.0" clip-path="url(#id_0)" d="M414.0 332.0L376.0 332.0L376.0 90.0C376.0 88.89543 376.89542 88.0 378.0 88.0L412.0 88.0C413.10458 88.0 414.0 88.89543 414.0 90.0Z" fill-rule="nonzero"/><path fill="#ea4335" clip-path="url(#id_0)" d="M414.0 332.0L376.0 332.0L376.0 90.0C376.0 88.89543 376.89542 88.0 378.0 88.0L412.0 88.0C413.10458 88.0 414.0 88.89543 414.0 90.0Z" fill-rule="nonzero"/><path stroke="#000000" stroke-width="2.0" stroke-linecap="butt" stroke-opacity="0.0" clip-path="url(#id_0)" d="M537.0 332.0L499.0 332.0L499.0 90.0C499.0 88.89543 499.89542 88.0 501.0 88.0L535.0 88.0C536.10455 88.0 537.0 88.89543 537.0 90.0Z" fill-rule="nonzero"/><path fill="#ea4335" clip-path="url(#id_0)" d="M537.0 332.0L499.0 332.0L499.0 90.0C499.0 88.89543 499.89542 88.0 501.0 88.0L535.0 88.0C536.10455 88.0 537.0 88.89543 537.0 90.0Z" fill-rule="nonzero"/><path fill="#000000" d="M33.05 332.21564Q33.05 330.6844 33.3625 329.7625Q33.675 328.825 34.284374 328.325Q34.909374 327.825 35.846874 327.825Q36.534374 327.825 37.05 328.10626Q37.58125 328.3875 37.925 328.91876Q38.26875 329.4344 38.45625 330.1844Q38.64375 330.9344 38.64375 332.21564Q38.64375 333.73126 38.33125 334.65314Q38.034374 335.575 37.409374 336.09064Q36.8 336.59064 35.846874 336.59064Q34.6125 336.59064 33.89375 335.7Q33.05 334.6375 33.05 332.21564ZM34.128124 332.21564Q34.128124 334.325 34.628124 335.02814Q35.128124 335.73126 35.846874 335.73126Q36.58125 335.73126 37.065624 335.02814Q37.565624 334.325 37.565624 332.21564Q37.565624 330.09064 37.065624 329.40314Q36.58125 328.7 35.83125 328.7Q35.1125 328.7 34.675 329.3094Q34.128124 330.09064 34.128124 332.21564Z" fill-rule="nonzero"/><path fill="#000000" d="M31.596874 274.3927L31.596874 275.40833L25.909374 275.40833Q25.909374 275.03333 26.034374 274.67395Q26.253124 274.09583 26.721874 273.53333Q27.20625 272.97083 28.1125 272.23645Q29.51875 271.0802 30.003124 270.40833Q30.503124 269.73645 30.503124 269.1427Q30.503124 268.5177 30.05 268.09583Q29.596874 267.65833 28.878124 267.65833Q28.1125 267.65833 27.659374 268.11145Q27.20625 268.56458 27.190624 269.37708L26.1125 269.2677Q26.221874 268.04895 26.940624 267.42395Q27.675 266.78333 28.909374 266.78333Q30.14375 266.78333 30.8625 267.47083Q31.58125 268.15833 31.58125 269.17395Q31.58125 269.68958 31.3625 270.18958Q31.159374 270.67395 30.659374 271.23645Q30.175 271.78333 29.05 272.73645Q28.096874 273.53333 27.815624 273.8302Q27.55 274.11145 27.378124 274.3927L31.596874 274.3927ZM33.05 273.15833L34.159374 273.06458Q34.284374 273.87708 34.721874 274.28333Q35.175 274.68958 35.815624 274.68958Q36.565624 274.68958 37.096874 274.11145Q37.628124 273.53333 37.628124 272.59583Q37.628124 271.68958 37.1125 271.17395Q36.6125 270.6427 35.784374 270.6427Q35.284374 270.6427 34.8625 270.87708Q34.45625 271.11145 34.221874 271.47083L33.2375 271.34583L34.065624 266.93958L38.346874 266.93958L38.346874 267.93958L34.909374 267.93958L34.45625 270.25208Q35.221874 269.7052 36.065624 269.7052Q37.190624 269.7052 37.95625 270.48645Q38.7375 271.2677 38.7375 272.50208Q38.7375 273.65833 38.065624 274.5177Q37.2375 275.54895 35.815624 275.54895Q34.64375 275.54895 33.89375 274.8927Q33.159374 274.23645 33.05 273.15833Z" fill-rule="nonzero"/><path fill="#000000" d="M26.05 212.11667L27.159374 212.02292Q27.284374 212.83542 27.721874 213.24167Q28.175 213.64792 28.815624 213.64792Q29.565624 213.64792 30.096874 213.0698Q30.628124 212.49167 30.628124 211.55417Q30.628124 210.64792 30.1125 210.1323Q29.6125 209.60104 28.784374 209.60104Q28.284374 209.60104 27.8625 209.83542Q27.45625 210.0698 27.221874 210.42917L26.2375 210.30417L27.065624 205.89792L31.346874 205.89792L31.346874 206.89792L27.909374 206.89792L27.45625 209.21042Q28.221874 208.66354 29.065624 208.66354Q30.190624 208.66354 30.95625 209.4448Q31.7375 210.22604 31.7375 211.46042Q31.7375 212.61667 31.065624 213.47604Q30.2375 214.5073 28.815624 214.5073Q27.64375 214.5073 26.89375 213.85104Q26.159374 213.1948 26.05 212.11667ZM33.05 210.1323Q33.05 208.60104 33.3625 207.67917Q33.675 206.74167 34.284374 206.24167Q34.909374 205.74167 35.846874 205.74167Q36.534374 205.74167 37.05 206.02292Q37.58125 206.30417 37.925 206.83542Q38.26875 207.35104 38.45625 208.10104Q38.64375 208.85104 38.64375 210.1323Q38.64375 211.64792 38.33125 212.5698Q38.034374 213.49167 37.409374 214.0073Q36.8 214.5073 35.846874 214.5073Q34.6125 214.5073 33.89375 213.61667Q33.05 212.55417 33.05 210.1323ZM34.128124 210.1323Q34.128124 212.24167 34.628124 212.9448Q35.128124 213.64792 35.846874 213.64792Q36.58125 213.64792 37.065624 212.9448Q37.565624 212.24167 37.565624 210.1323Q37.565624 208.0073 37.065624 207.3198Q36.58125 206.61667 35.83125 206.61667Q35.1125 206.61667 34.675 207.22604Q34.128124 208.0073 34.128124 210.1323Z" fill-rule="nonzero"/><path fill="#000000" d="M26.1125 145.85625L26.1125 144.84062L31.675 144.84062L31.675 145.66875Q30.8625 146.54375 30.05 147.99687Q29.253124 149.43437 28.815624 150.96562Q28.4875 152.04375 28.409374 153.325L27.315624 153.325Q27.33125 152.30937 27.70625 150.87187Q28.096874 149.43437 28.8 148.10625Q29.51875 146.77812 30.33125 145.85625L26.1125 145.85625ZM33.05 151.075L34.159374 150.98125Q34.284374 151.79375 34.721874 152.2Q35.175 152.60625 35.815624 152.60625Q36.565624 152.60625 37.096874 152.02812Q37.628124 151.45 37.628124 150.5125Q37.628124 149.60625 37.1125 149.09062Q36.6125 148.55937 35.784374 148.55937Q35.284374 148.55937 34.8625 148.79375Q34.45625 149.02812 34.221874 149.3875L33.2375 149.2625L34.065624 144.85625L38.346874 144.85625L38.346874 145.85625L34.909374 145.85625L34.45625 148.16875Q35.221874 147.62187 36.065624 147.62187Q37.190624 147.62187 37.95625 148.40312Q38.7375 149.18437 38.7375 150.41875Q38.7375 151.575 38.065624 152.43437Q37.2375 153.46562 35.815624 153.46562Q34.64375 153.46562 33.89375 152.80937Q33.159374 152.15312 33.05 151.075Z" fill-rule="nonzero"/><path fill="#000000" d="M23.01875 92.28333L21.971874 92.28333L21.971874 85.56458Q21.58125 85.92396 20.95625 86.29896Q20.346874 86.65833 19.8625 86.83021L19.8625 85.81458Q20.7375 85.39271 21.39375 84.81458Q22.065624 84.22083 22.346874 83.65833L23.01875 83.65833L23.01875 92.28333ZM26.05 88.04896Q26.05 86.51771 26.3625 85.59583Q26.675 84.65833 27.284374 84.15833Q27.909374 83.65833 28.846874 83.65833Q29.534374 83.65833 30.05 83.93958Q30.58125 84.22083 30.925 84.75208Q31.26875 85.26771 31.45625 86.01771Q31.64375 86.76771 31.64375 88.04896Q31.64375 89.56458 31.33125 90.48646Q31.034374 91.40833 30.409374 91.92396Q29.8 92.42396 28.846874 92.42396Q27.6125 92.42396 26.89375 91.53333Q26.05 90.47083 26.05 88.04896ZM27.128124 88.04896Q27.128124 90.15833 27.628124 90.86146Q28.128124 91.56458 28.846874 91.56458Q29.58125 91.56458 30.065624 90.86146Q30.565624 90.15833 30.565624 88.04896Q30.565624 85.92396 30.065624 85.23646Q29.58125 84.53333 28.83125 84.53333Q28.1125 84.53333 27.675 85.14271Q27.128124 85.92396 27.128124 88.04896ZM33.05 88.04896Q33.05 86.51771 33.3625 85.59583Q33.675 84.65833 34.284374 84.15833Q34.909374 83.65833 35.846874 83.65833Q36.534374 83.65833 37.05 83.93958Q37.58125 84.22083 37.925 84.75208Q38.26875 85.26771 38.45625 86.01771Q38.64375 86.76771 38.64375 88.04896Q38.64375 89.56458 38.33125 90.48646Q38.034374 91.40833 37.409374 91.92396Q36.8 92.42396 35.846874 92.42396Q34.6125 92.42396 33.89375 91.53333Q33.05 90.47083 33.05 88.04896ZM34.128124 88.04896Q34.128124 90.15833 34.628124 90.86146Q35.128124 91.56458 35.846874 91.56458Q36.58125 91.56458 37.065624 90.86146Q37.565624 90.15833 37.565624 88.04896Q37.565624 85.92396 37.065624 85.23646Q36.58125 84.53333 35.83125 84.53333Q35.1125 84.53333 34.675 85.14271Q34.128124 85.92396 34.128124 88.04896Z" fill-rule="nonzero"/><path fill="#000000" d="M94.62877 349.45L94.62877 340.85626L97.87877 340.85626Q98.72252 340.85626 99.175644 340.9344Q99.81627 341.04376 100.238144 341.34064Q100.675644 341.6375 100.925644 342.16876Q101.19127 342.7 101.19127 343.34064Q101.19127 344.4344 100.488144 345.2Q99.800644 345.95 97.97252 345.95L95.769394 345.95L95.769394 349.45L94.62877 349.45ZM95.769394 344.95L97.988144 344.95Q99.09752 344.95 99.550644 344.54376Q100.019394 344.1219 100.019394 343.3719Q100.019394 342.84064 99.738144 342.46564Q99.47252 342.075 99.03502 341.95Q98.738144 341.8719 97.97252 341.8719L95.769394 341.8719L95.769394 344.95ZM106.75377 347.45L107.84752 347.575Q107.59752 348.52814 106.894394 349.0594Q106.19127 349.59064 105.113144 349.59064Q103.75377 349.59064 102.94127 348.7469Q102.144394 347.90314 102.144394 346.3875Q102.144394 344.825 102.956894 343.96564Q103.769394 343.09064 105.050644 343.09064Q106.300644 343.09064 107.081894 343.9344Q107.87877 344.77814 107.87877 346.325Q107.87877 346.41876 107.87877 346.60626L103.238144 346.60626Q103.300644 347.6375 103.81627 348.1844Q104.331894 348.71564 105.113144 348.71564Q105.69127 348.71564 106.09752 348.41876Q106.519394 348.10626 106.75377 347.45ZM103.300644 345.7469L106.769394 345.7469Q106.706894 344.95 106.37877 344.5594Q105.863144 343.95 105.06627 343.95Q104.331894 343.95 103.831894 344.4344Q103.34752 344.91876 103.300644 345.7469ZM109.488144 349.45L109.488144 343.23126L110.44127 343.23126L110.44127 344.16876Q110.800644 343.5125 111.09752 343.3094Q111.41002 343.09064 111.78502 343.09064Q112.31627 343.09064 112.863144 343.41876L112.50377 344.40314Q112.113144 344.16876 111.738144 344.16876Q111.37877 344.16876 111.09752 344.3875Q110.831894 344.59064 110.72252 344.96564Q110.53502 345.52814 110.53502 346.1844L110.53502 349.45L109.488144 349.45ZM113.75377 349.45L113.75377 344.04376L112.81627 344.04376L112.81627 343.23126L113.75377 343.23126L113.75377 342.5594Q113.75377 341.9344 113.863144 341.6375Q114.019394 341.21564 114.394394 340.96564Q114.78502 340.71564 115.47252 340.71564Q115.925644 340.71564 116.456894 340.825L116.300644 341.73126Q115.97252 341.6844 115.675644 341.6844Q115.19127 341.6844 114.988144 341.8875Q114.800644 342.09064 114.800644 342.65314L114.800644 343.23126L116.019394 343.23126L116.019394 344.04376L114.800644 344.04376L114.800644 349.45L113.75377 349.45ZM116.113144 346.34064Q116.113144 344.60626 117.06627 343.77814Q117.863144 343.09064 119.019394 343.09064Q120.300644 343.09064 121.113144 343.9344Q121.94127 344.7625 121.94127 346.2469Q121.94127 347.45 121.581894 348.1375Q121.22252 348.825 120.519394 349.21564Q119.831894 349.59064 119.019394 349.59064Q117.72252 349.59064 116.91002 348.7625Q116.113144 347.91876 116.113144 346.34064ZM117.19127 346.34064Q117.19127 347.52814 117.706894 348.1219Q118.238144 348.71564 119.019394 348.71564Q119.81627 348.71564 120.331894 348.1219Q120.84752 347.52814 120.84752 346.3094Q120.84752 345.15314 120.31627 344.5594Q119.800644 343.96564 119.019394 343.96564Q118.238144 343.96564 117.706894 344.5594Q117.19127 345.1375 117.19127 346.34064ZM123.488144 349.45L123.488144 343.23126L124.44127 343.23126L124.44127 344.16876Q124.800644 343.5125 125.09752 343.3094Q125.41002 343.09064 125.78502 343.09064Q126.31627 343.09064 126.863144 343.41876L126.50377 344.40314Q126.113144 344.16876 125.738144 344.16876Q125.37877 344.16876 125.09752 344.3875Q124.831894 344.59064 124.72252 344.96564Q124.53502 345.52814 124.53502 346.1844L124.53502 349.45L123.488144 349.45ZM127.50377 349.45L127.50377 343.23126L128.44127 343.23126L128.44127 344.10626Q128.73814 343.6375 129.22252 343.3719Q129.7069 343.09064 130.3319 343.09064Q131.0194 343.09064 131.4569 343.3719Q131.91002 343.65314 132.0819 344.16876Q132.8319 343.09064 134.00377 343.09064Q134.94127 343.09064 135.42564 343.60626Q135.92564 344.10626 135.92564 345.1844L135.92564 349.45L134.87877 349.45L134.87877 345.52814Q134.87877 344.90314 134.7694 344.6219Q134.67564 344.34064 134.41002 344.16876Q134.1444 343.9969 133.7694 343.9969Q133.11314 343.9969 132.67564 344.4344Q132.25377 344.8719 132.25377 345.84064L132.25377 349.45L131.19127 349.45L131.19127 345.40314Q131.19127 344.7 130.92564 344.35626Q130.67564 343.9969 130.09752 343.9969Q129.6444 343.9969 129.2694 344.23126Q128.8944 344.46564 128.72252 344.91876Q128.55064 345.3719 128.55064 346.21564L128.55064 349.45L127.50377 349.45ZM141.56627 348.6844Q140.97252 349.1844 140.42564 349.3875Q139.8944 349.59064 139.2694 349.59064Q138.23814 349.59064 137.69127 349.09064Q137.1444 348.59064 137.1444 347.8094Q137.1444 347.35626 137.34752 346.98126Q137.55064 346.59064 137.8944 346.3719Q138.23814 346.1375 138.66002 346.02814Q138.9569 345.9344 139.59752 345.85626Q140.86314 345.71564 141.47252 345.4969Q141.47252 345.27814 141.47252 345.23126Q141.47252 344.575 141.17564 344.3094Q140.7694 343.96564 139.97252 343.96564Q139.23814 343.96564 138.87877 344.23126Q138.5194 344.48126 138.34752 345.1375L137.31627 344.9969Q137.4569 344.34064 137.78502 343.9344Q138.11314 343.52814 138.72252 343.3094Q139.3319 343.09064 140.12877 343.09064Q140.92564 343.09064 141.42564 343.27814Q141.92564 343.46564 142.16002 343.7469Q142.3944 344.02814 142.48814 344.46564Q142.53502 344.73126 142.53502 345.4344L142.53502 346.84064Q142.53502 348.3094 142.59752 348.7Q142.67564 349.09064 142.87877 349.45L141.7694 349.45Q141.61314 349.1219 141.56627 348.6844ZM141.47252 346.325Q140.8944 346.5594 139.75377 346.73126Q139.09752 346.825 138.8319 346.95Q138.56627 347.0594 138.41002 347.27814Q138.2694 347.4969 138.2694 347.77814Q138.2694 348.2 138.5819 348.48126Q138.91002 348.7625 139.5194 348.7625Q140.12877 348.7625 140.59752 348.4969Q141.0819 348.23126 141.30064 347.7625Q141.47252 347.40314 141.47252 346.71564L141.47252 346.325ZM144.50377 349.45L144.50377 343.23126L145.44127 343.23126L145.44127 344.10626Q146.12877 343.09064 147.42564 343.09064Q147.98814 343.09064 148.4569 343.29376Q148.94127 343.4969 149.17564 343.825Q149.41002 344.15314 149.50377 344.59064Q149.55064 344.8875 149.55064 345.6219L149.55064 349.45L148.50377 349.45L148.50377 345.66876Q148.50377 345.0125 148.37877 344.7Q148.25377 344.3875 147.94127 344.2Q147.62877 343.9969 147.2069 343.9969Q146.53502 343.9969 146.03502 344.4344Q145.55064 344.85626 145.55064 346.04376L145.55064 349.45L144.50377 349.45ZM155.56627 347.16876L156.59752 347.3094Q156.42564 348.3719 155.72252 348.98126Q155.0194 349.59064 154.00377 349.59064Q152.72252 349.59064 151.94127 348.7625Q151.17564 347.91876 151.17564 346.35626Q151.17564 345.35626 151.50377 344.60626Q151.84752 343.84064 152.5194 343.46564Q153.2069 343.09064 154.0194 343.09064Q155.0194 343.09064 155.66002 343.60626Q156.31627 344.10626 156.50377 345.0594L155.47252 345.21564Q155.3319 344.59064 154.9569 344.27814Q154.5819 343.95 154.05064 343.95Q153.25377 343.95 152.75377 344.52814Q152.25377 345.09064 152.25377 346.325Q152.25377 347.59064 152.73814 348.15314Q153.22252 348.71564 153.98814 348.71564Q154.61314 348.71564 155.0194 348.34064Q155.44127 347.96564 155.56627 347.16876ZM161.75377 347.45L162.84752 347.575Q162.59752 348.52814 161.8944 349.0594Q161.19127 349.59064 160.11314 349.59064Q158.75377 349.59064 157.94127 348.7469Q157.1444 347.90314 157.1444 346.3875Q157.1444 344.825 157.9569 343.96564Q158.7694 343.09064 160.05064 343.09064Q161.30064 343.09064 162.0819 343.9344Q162.87877 344.77814 162.87877 346.325Q162.87877 346.41876 162.87877 346.60626L158.23814 346.60626Q158.30064 347.6375 158.81627 348.1844Q159.3319 348.71564 160.11314 348.71564Q160.69127 348.71564 161.09752 348.41876Q161.5194 348.10626 161.75377 347.45ZM158.30064 345.7469L161.7694 345.7469Q161.7069 344.95 161.37877 344.5594Q160.86314 343.95 160.06627 343.95Q159.3319 343.95 158.8319 344.4344Q158.34752 344.91876 158.30064 345.7469Z" fill-rule="nonzero"/><path fill="#000000" d="M218.38667 349.45L221.68355 340.85626L222.9023 340.85626L226.41792 349.45L225.13667 349.45L224.12105 346.84064L220.54292 346.84064L219.5898 349.45L218.38667 349.45ZM220.87105 345.91876L223.7773 345.91876L222.88667 343.54376Q222.4648 342.46564 222.2773 341.7625Q222.10542 342.59064 221.80855 343.40314L220.87105 345.91876ZM231.26167 347.16876L232.29292 347.3094Q232.12105 348.3719 231.41792 348.98126Q230.7148 349.59064 229.69917 349.59064Q228.41792 349.59064 227.63667 348.7625Q226.87105 347.91876 226.87105 346.35626Q226.87105 345.35626 227.19917 344.60626Q227.54292 343.84064 228.2148 343.46564Q228.9023 343.09064 229.7148 343.09064Q230.7148 343.09064 231.35542 343.60626Q232.01167 344.10626 232.19917 345.0594L231.16792 345.21564Q231.0273 344.59064 230.6523 344.27814Q230.2773 343.95 229.74605 343.95Q228.94917 343.95 228.44917 344.52814Q227.94917 345.09064 227.94917 346.325Q227.94917 347.59064 228.43355 348.15314Q228.91792 348.71564 229.68355 348.71564Q230.30855 348.71564 230.7148 348.34064Q231.13667 347.96564 231.26167 347.16876ZM237.26167 347.16876L238.29292 347.3094Q238.12105 348.3719 237.41792 348.98126Q236.7148 349.59064 235.69917 349.59064Q234.41792 349.59064 233.63667 348.7625Q232.87105 347.91876 232.87105 346.35626Q232.87105 345.35626 233.19917 344.60626Q233.54292 343.84064 234.2148 343.46564Q234.9023 343.09064 235.7148 343.09064Q236.7148 343.09064 237.35542 343.60626Q238.01167 344.10626 238.19917 345.0594L237.16792 345.21564Q237.0273 344.59064 236.6523 344.27814Q236.2773 343.95 235.74605 343.95Q234.94917 343.95 234.44917 344.52814Q233.94917 345.09064 233.94917 346.325Q233.94917 347.59064 234.43355 348.15314Q234.91792 348.71564 235.68355 348.71564Q236.30855 348.71564 236.7148 348.34064Q237.13667 347.96564 237.26167 347.16876ZM243.44917 347.45L244.54292 347.575Q244.29292 348.52814 243.5898 349.0594Q242.88667 349.59064 241.80855 349.59064Q240.44917 349.59064 239.63667 348.7469Q238.8398 347.90314 238.8398 346.3875Q238.8398 344.825 239.6523 343.96564Q240.4648 343.09064 241.74605 343.09064Q242.99605 343.09064 243.7773 343.9344Q244.57417 344.77814 244.57417 346.325Q244.57417 346.41876 244.57417 346.60626L239.93355 346.60626Q239.99605 347.6375 240.51167 348.1844Q241.0273 348.71564 241.80855 348.71564Q242.38667 348.71564 242.79292 348.41876Q243.2148 348.10626 243.44917 347.45ZM239.99605 345.7469L243.4648 345.7469Q243.4023 344.95 243.07417 344.5594Q242.55855 343.95 241.76167 343.95Q241.0273 343.95 240.5273 344.4344Q240.04292 344.91876 239.99605 345.7469ZM245.7773 347.59064L246.80855 347.4344Q246.9023 348.0594 247.29292 348.3875Q247.69917 348.71564 248.43355 348.71564Q249.1523 348.71564 249.49605 348.4344Q249.85542 348.1375 249.85542 347.73126Q249.85542 347.3719 249.54292 347.16876Q249.32417 347.02814 248.4648 346.8094Q247.30855 346.5125 246.85542 346.3094Q246.41792 346.09064 246.18355 345.71564Q245.94917 345.34064 245.94917 344.8719Q245.94917 344.46564 246.13667 344.10626Q246.32417 343.7469 246.6523 343.5125Q246.9023 343.34064 247.32417 343.21564Q247.74605 343.09064 248.24605 343.09064Q248.9648 343.09064 249.51167 343.3094Q250.07417 343.5125 250.3398 343.8719Q250.60542 344.23126 250.69917 344.825L249.66792 344.96564Q249.60542 344.4969 249.26167 344.23126Q248.93355 343.95 248.30855 343.95Q247.5898 343.95 247.2773 344.2Q246.9648 344.4344 246.9648 344.7625Q246.9648 344.96564 247.0898 345.1219Q247.23042 345.29376 247.49605 345.40314Q247.6523 345.46564 248.43355 345.66876Q249.55855 345.98126 249.99605 346.16876Q250.43355 346.35626 250.68355 346.71564Q250.93355 347.075 250.93355 347.6219Q250.93355 348.15314 250.62105 348.6219Q250.32417 349.075 249.74605 349.34064Q249.16792 349.59064 248.43355 349.59064Q247.2148 349.59064 246.57417 349.09064Q245.94917 348.575 245.7773 347.59064ZM251.7773 347.59064L252.80855 347.4344Q252.9023 348.0594 253.29292 348.3875Q253.69917 348.71564 254.43355 348.71564Q255.1523 348.71564 255.49605 348.4344Q255.85542 348.1375 255.85542 347.73126Q255.85542 347.3719 255.54292 347.16876Q255.32417 347.02814 254.4648 346.8094Q253.30855 346.5125 252.85542 346.3094Q252.41792 346.09064 252.18355 345.71564Q251.94917 345.34064 251.94917 344.8719Q251.94917 344.46564 252.13667 344.10626Q252.32417 343.7469 252.6523 343.5125Q252.9023 343.34064 253.32417 343.21564Q253.74605 343.09064 254.24605 343.09064Q254.9648 343.09064 255.51167 343.3094Q256.07416 343.5125 256.33978 343.8719Q256.6054 344.23126 256.69916 344.825L255.66792 344.96564Q255.60542 344.4969 255.26167 344.23126Q254.93355 343.95 254.30855 343.95Q253.5898 343.95 253.2773 344.2Q252.9648 344.4344 252.9648 344.7625Q252.9648 344.96564 253.0898 345.1219Q253.23042 345.29376 253.49605 345.40314Q253.6523 345.46564 254.43355 345.66876Q255.55855 345.98126 255.99605 346.16876Q256.43353 346.35626 256.68353 346.71564Q256.93353 347.075 256.93353 347.6219Q256.93353 348.15314 256.62103 348.6219Q256.32416 349.075 255.74605 349.34064Q255.16792 349.59064 254.43355 349.59064Q253.2148 349.59064 252.57417 349.09064Q251.94917 348.575 251.7773 347.59064ZM258.19916 342.075L258.19916 340.85626L259.26166 340.85626L259.26166 342.075L258.19916 342.075ZM258.19916 349.45L258.19916 343.23126L259.26166 343.23126L259.26166 349.45L258.19916 349.45ZM262.1679 349.45L261.18353 349.45L261.18353 340.85626L262.24603 340.85626L262.24603 343.91876Q262.9179 343.09064 263.94916 343.09064Q264.52728 343.09064 265.02728 343.325Q265.5429 343.54376 265.87103 343.96564Q266.21478 344.3875 266.40228 344.98126Q266.58978 345.575 266.58978 346.2469Q266.58978 347.84064 265.7929 348.71564Q264.99603 349.59064 263.90228 349.59064Q262.7929 349.59064 262.1679 348.66876L262.1679 349.45ZM262.15228 346.29376Q262.15228 347.40314 262.46478 347.90314Q262.96478 348.71564 263.80853 348.71564Q264.49603 348.71564 264.99603 348.1219Q265.51166 347.52814 265.51166 346.325Q265.51166 345.10626 265.02728 344.52814Q264.5429 343.95 263.8554 343.95Q263.1679 343.95 262.65228 344.5594Q262.15228 345.15314 262.15228 346.29376ZM268.19916 342.075L268.19916 340.85626L269.26166 340.85626L269.26166 342.075L268.19916 342.075ZM268.19916 349.45L268.19916 343.23126L269.26166 343.23126L269.26166 349.45L268.19916 349.45ZM271.1679 349.45L271.1679 340.85626L272.2304 340.85626L272.2304 349.45L271.1679 349.45ZM274.19916 342.075L274.19916 340.85626L275.26166 340.85626L275.26166 342.075L274.19916 342.075ZM274.19916 349.45L274.19916 343.23126L275.26166 343.23126L275.26166 349.45L274.19916 349.45ZM279.49603 348.5125L279.65228 349.4344Q279.19916 349.52814 278.8554 349.52814Q278.27728 349.52814 277.96478 349.35626Q277.65228 349.16876 277.51166 348.8719Q277.38666 348.575 277.38666 347.6219L277.38666 344.04376L276.62103 344.04376L276.62103 343.23126L277.38666 343.23126L277.38666 341.6844L278.43353 341.0594L278.43353 343.23126L279.49603 343.23126L279.49603 344.04376L278.43353 344.04376L278.43353 347.6844Q278.43353 348.1375 278.4804 348.2625Q278.5429 348.3875 278.6679 348.46564Q278.7929 348.54376 279.02728 348.54376Q279.21478 348.54376 279.49603 348.5125ZM280.15228 351.84064L280.02728 350.85626Q280.37103 350.95 280.63666 350.95Q280.9804 350.95 281.18353 350.825Q281.40228 350.71564 281.5429 350.5125Q281.63666 350.34064 281.87103 349.71564Q281.88666 349.6375 281.96478 349.46564L279.58978 343.23126L280.7304 343.23126L282.02728 346.825Q282.27728 347.5125 282.4804 348.27814Q282.6679 347.54376 282.9179 346.85626L284.24603 343.23126L285.2929 343.23126L282.93353 349.5594Q282.5429 350.575 282.33978 350.96564Q282.05853 351.4969 281.68353 351.73126Q281.32416 351.98126 280.82416 351.98126Q280.52728 351.98126 280.15228 351.84064Z" fill-rule="nonzero"/><path fill="#000000" d="M337.4727 349.45L337.4727 340.85626L340.70706 340.85626Q341.69144 340.85626 342.2852 341.1219Q342.87894 341.3875 343.20706 341.9344Q343.5508 342.46564 343.5508 343.0594Q343.5508 343.60626 343.25394 344.09064Q342.95706 344.575 342.3477 344.8719Q343.12894 345.10626 343.5352 345.66876Q343.95706 346.21564 343.95706 346.96564Q343.95706 347.5594 343.70706 348.09064Q343.45706 348.60626 343.08206 348.8875Q342.70706 349.16876 342.12894 349.3094Q341.56644 349.45 340.75394 349.45L337.4727 349.45ZM338.6133 344.46564L340.4727 344.46564Q341.2227 344.46564 341.5508 344.3719Q341.9883 344.2469 342.20706 343.95Q342.4258 343.6375 342.4258 343.1844Q342.4258 342.7625 342.2227 342.4344Q342.01956 342.10626 341.62894 341.9969Q341.25394 341.8719 340.33206 341.8719L338.6133 341.8719L338.6133 344.46564ZM338.6133 348.4344L340.75394 348.4344Q341.3008 348.4344 341.51956 348.3875Q341.9258 348.325 342.1758 348.16876Q342.44144 347.9969 342.6133 347.6844Q342.7852 347.3719 342.7852 346.96564Q342.7852 346.48126 342.5352 346.1219Q342.3008 345.7625 341.8633 345.6219Q341.4258 345.48126 340.5977 345.48126L338.6133 345.48126L338.6133 348.4344ZM349.64456 347.45L350.7383 347.575Q350.4883 348.52814 349.7852 349.0594Q349.08206 349.59064 348.00394 349.59064Q346.64456 349.59064 345.83206 348.7469Q345.0352 347.90314 345.0352 346.3875Q345.0352 344.825 345.8477 343.96564Q346.6602 343.09064 347.94144 343.09064Q349.19144 343.09064 349.9727 343.9344Q350.76956 344.77814 350.76956 346.325Q350.76956 346.41876 350.76956 346.60626L346.12894 346.60626Q346.19144 347.6375 346.70706 348.1844Q347.2227 348.71564 348.00394 348.71564Q348.58206 348.71564 348.9883 348.41876Q349.4102 348.10626 349.64456 347.45ZM346.19144 345.7469L349.6602 345.7469Q349.5977 344.95 349.26956 344.5594Q348.75394 343.95 347.95706 343.95Q347.2227 343.95 346.7227 344.4344Q346.2383 344.91876 346.19144 345.7469ZM351.9727 347.59064L353.00394 347.4344Q353.0977 348.0594 353.4883 348.3875Q353.89456 348.71564 354.62894 348.71564Q355.3477 348.71564 355.69144 348.4344Q356.0508 348.1375 356.0508 347.73126Q356.0508 347.3719 355.7383 347.16876Q355.51956 347.02814 354.6602 346.8094Q353.50394 346.5125 353.0508 346.3094Q352.6133 346.09064 352.37894 345.71564Q352.14456 345.34064 352.14456 344.8719Q352.14456 344.46564 352.33206 344.10626Q352.51956 343.7469 352.8477 343.5125Q353.0977 343.34064 353.51956 343.21564Q353.94144 343.09064 354.44144 343.09064Q355.1602 343.09064 355.70706 343.3094Q356.26956 343.5125 356.5352 343.8719Q356.8008 344.23126 356.89456 344.825L355.8633 344.96564Q355.8008 344.4969 355.45706 344.23126Q355.12894 343.95 354.50394 343.95Q353.7852 343.95 353.4727 344.2Q353.1602 344.4344 353.1602 344.7625Q353.1602 344.96564 353.2852 345.1219Q353.4258 345.29376 353.69144 345.40314Q353.8477 345.46564 354.62894 345.66876Q355.75394 345.98126 356.19144 346.16876Q356.62894 346.35626 356.87894 346.71564Q357.12894 347.075 357.12894 347.6219Q357.12894 348.15314 356.81644 348.6219Q356.51956 349.075 355.94144 349.34064Q355.3633 349.59064 354.62894 349.59064Q353.4102 349.59064 352.76956 349.09064Q352.14456 348.575 351.9727 347.59064ZM360.69144 348.5125L360.8477 349.4344Q360.39456 349.52814 360.0508 349.52814Q359.4727 349.52814 359.1602 349.35626Q358.8477 349.16876 358.70706 348.8719Q358.58206 348.575 358.58206 347.6219L358.58206 344.04376L357.81644 344.04376L357.81644 343.23126L358.58206 343.23126L358.58206 341.6844L359.62894 341.0594L359.62894 343.23126L360.69144 343.23126L360.69144 344.04376L359.62894 344.04376L359.62894 347.6844Q359.62894 348.1375 359.6758 348.2625Q359.7383 348.3875 359.8633 348.46564Q359.9883 348.54376 360.2227 348.54376Q360.4102 348.54376 360.69144 348.5125ZM364.51956 349.45L364.51956 340.85626L367.76956 340.85626Q368.6133 340.85626 369.06644 340.9344Q369.70706 341.04376 370.12894 341.34064Q370.56644 341.6375 370.81644 342.16876Q371.08206 342.7 371.08206 343.34064Q371.08206 344.4344 370.37894 345.2Q369.69144 345.95 367.8633 345.95L365.6602 345.95L365.6602 349.45L364.51956 349.45ZM365.6602 344.95L367.87894 344.95Q368.9883 344.95 369.44144 344.54376Q369.9102 344.1219 369.9102 343.3719Q369.9102 342.84064 369.62894 342.46564Q369.3633 342.075 368.9258 341.95Q368.62894 341.8719 367.8633 341.8719L365.6602 341.8719L365.6602 344.95ZM372.37894 349.45L372.37894 343.23126L373.33206 343.23126L373.33206 344.16876Q373.69144 343.5125 373.9883 343.3094Q374.3008 343.09064 374.6758 343.09064Q375.20706 343.09064 375.75394 343.41876L375.39456 344.40314Q375.00394 344.16876 374.62894 344.16876Q374.26956 344.16876 373.9883 344.3875Q373.7227 344.59064 373.6133 344.96564Q373.4258 345.52814 373.4258 346.1844L373.4258 349.45L372.37894 349.45ZM380.45706 348.6844Q379.8633 349.1844 379.31644 349.3875Q378.7852 349.59064 378.1602 349.59064Q377.12894 349.59064 376.58206 349.09064Q376.0352 348.59064 376.0352 347.8094Q376.0352 347.35626 376.2383 346.98126Q376.44144 346.59064 376.7852 346.3719Q377.12894 346.1375 377.5508 346.02814Q377.8477 345.9344 378.4883 345.85626Q379.75394 345.71564 380.3633 345.4969Q380.3633 345.27814 380.3633 345.23126Q380.3633 344.575 380.06644 344.3094Q379.6602 343.96564 378.8633 343.96564Q378.12894 343.96564 377.76956 344.23126Q377.4102 344.48126 377.2383 345.1375L376.20706 344.9969Q376.3477 344.34064 376.6758 343.9344Q377.00394 343.52814 377.6133 343.3094Q378.2227 343.09064 379.01956 343.09064Q379.81644 343.09064 380.31644 343.27814Q380.81644 343.46564 381.0508 343.7469Q381.2852 344.02814 381.37894 344.46564Q381.4258 344.73126 381.4258 345.4344L381.4258 346.84064Q381.4258 348.3094 381.4883 348.7Q381.56644 349.09064 381.76956 349.45L380.6602 349.45Q380.50394 349.1219 380.45706 348.6844ZM380.3633 346.325Q379.7852 346.5594 378.64456 346.73126Q377.9883 346.825 377.7227 346.95Q377.45706 347.0594 377.3008 347.27814Q377.1602 347.4969 377.1602 347.77814Q377.1602 348.2 377.4727 348.48126Q377.8008 348.7625 378.4102 348.7625Q379.01956 348.7625 379.4883 348.4969Q379.9727 348.23126 380.19144 347.7625Q380.3633 347.40314 380.3633 346.71564L380.3633 346.325ZM387.45706 347.16876L388.4883 347.3094Q388.31644 348.3719 387.6133 348.98126Q386.9102 349.59064 385.89456 349.59064Q384.6133 349.59064 383.83206 348.7625Q383.06644 347.91876 383.06644 346.35626Q383.06644 345.35626 383.39456 344.60626Q383.7383 343.84064 384.4102 343.46564Q385.0977 343.09064 385.9102 343.09064Q386.9102 343.09064 387.5508 343.60626Q388.20706 344.10626 388.39456 345.0594L387.3633 345.21564Q387.2227 344.59064 386.8477 344.27814Q386.4727 343.95 385.94144 343.95Q385.14456 343.95 384.64456 344.52814Q384.14456 345.09064 384.14456 346.325Q384.14456 347.59064 384.62894 348.15314Q385.1133 348.71564 385.87894 348.71564Q386.50394 348.71564 386.9102 348.34064Q387.33206 347.96564 387.45706 347.16876ZM391.69144 348.5125L391.8477 349.4344Q391.39456 349.52814 391.0508 349.52814Q390.4727 349.52814 390.1602 349.35626Q389.8477 349.16876 389.70706 348.8719Q389.58206 348.575 389.58206 347.6219L389.58206 344.04376L388.81644 344.04376L388.81644 343.23126L389.58206 343.23126L389.58206 341.6844L390.62894 341.0594L390.62894 343.23126L391.69144 343.23126L391.69144 344.04376L390.62894 344.04376L390.62894 347.6844Q390.62894 348.1375 390.6758 348.2625Q390.7383 348.3875 390.8633 348.46564Q390.9883 348.54376 391.2227 348.54376Q391.4102 348.54376 391.69144 348.5125ZM392.39456 342.075L392.39456 340.85626L393.45706 340.85626L393.45706 342.075L392.39456 342.075ZM392.39456 349.45L392.39456 343.23126L393.45706 343.23126L393.45706 349.45L392.39456 349.45ZM399.45706 347.16876L400.4883 347.3094Q400.31644 348.3719 399.6133 348.98126Q398.9102 349.59064 397.89456 349.59064Q396.6133 349.59064 395.83206 348.7625Q395.06644 347.91876 395.06644 346.35626Q395.06644 345.35626 395.39456 344.60626Q395.7383 343.84064 396.4102 343.46564Q397.0977 343.09064 397.9102 343.09064Q398.9102 343.09064 399.5508 343.60626Q400.20706 344.10626 400.39456 345.0594L399.3633 345.21564Q399.2227 344.59064 398.8477 344.27814Q398.4727 343.95 397.94144 343.95Q397.14456 343.95 396.64456 344.52814Q396.14456 345.09064 396.14456 346.325Q396.14456 347.59064 396.62894 348.15314Q397.1133 348.71564 397.87894 348.71564Q398.50394 348.71564 398.9102 348.34064Q399.33206 347.96564 399.45706 347.16876ZM405.64456 347.45L406.7383 347.575Q406.4883 348.52814 405.7852 349.0594Q405.08206 349.59064 404.00394 349.59064Q402.64456 349.59064 401.83206 348.7469Q401.0352 347.90314 401.0352 346.3875Q401.0352 344.825 401.8477 343.96564Q402.6602 343.09064 403.94144 343.09064Q405.19144 343.09064 405.9727 343.9344Q406.76956 344.77814 406.76956 346.325Q406.76956 346.41876 406.76956 346.60626L402.12894 346.60626Q402.19144 347.6375 402.70706 348.1844Q403.2227 348.71564 404.00394 348.71564Q404.58206 348.71564 404.9883 348.41876Q405.4102 348.10626 405.64456 347.45ZM402.19144 345.7469L405.6602 345.7469Q405.5977 344.95 405.26956 344.5594Q404.75394 343.95 403.95706 343.95Q403.2227 343.95 402.7227 344.4344Q402.2383 344.91876 402.19144 345.7469ZM407.9727 347.59064L409.00394 347.4344Q409.0977 348.0594 409.4883 348.3875Q409.89456 348.71564 410.62894 348.71564Q411.3477 348.71564 411.69144 348.4344Q412.0508 348.1375 412.0508 347.73126Q412.0508 347.3719 411.7383 347.16876Q411.51956 347.02814 410.6602 346.8094Q409.50394 346.5125 409.0508 346.3094Q408.6133 346.09064 408.37894 345.71564Q408.14456 345.34064 408.14456 344.8719Q408.14456 344.46564 408.33206 344.10626Q408.51956 343.7469 408.8477 343.5125Q409.0977 343.34064 409.51956 343.21564Q409.94144 343.09064 410.44144 343.09064Q411.1602 343.09064 411.70706 343.3094Q412.26956 343.5125 412.5352 343.8719Q412.8008 344.23126 412.89456 344.825L411.8633 344.96564Q411.8008 344.4969 411.45706 344.23126Q411.12894 343.95 410.50394 343.95Q409.7852 343.95 409.4727 344.2Q409.1602 344.4344 409.1602 344.7625Q409.1602 344.96564 409.2852 345.1219Q409.4258 345.29376 409.69144 345.40314Q409.8477 345.46564 410.62894 345.66876Q411.75394 345.98126 412.19144 346.16876Q412.62894 346.35626 412.87894 346.71564Q413.12894 347.075 413.12894 347.6219Q413.12894 348.15314 412.81644 348.6219Q412.51956 349.075 411.94144 349.34064Q411.3633 349.59064 410.62894 349.59064Q409.4102 349.59064 408.76956 349.09064Q408.14456 348.575 407.9727 347.59064Z" fill-rule="nonzero"/><path fill="#000000" d="M486.33997 346.6844L487.40247 346.59064Q487.4806 347.2469 487.76184 347.65314Q488.0431 348.0594 488.62122 348.325Q489.21497 348.575 489.94934 348.575Q490.58997 348.575 491.08997 348.3875Q491.58997 348.1844 491.82434 347.85626Q492.07434 347.5125 492.07434 347.1219Q492.07434 346.71564 491.83997 346.41876Q491.6056 346.10626 491.07434 345.90314Q490.71497 345.7625 489.52747 345.48126Q488.3556 345.2 487.88684 344.95Q487.26184 344.6219 486.96497 344.15314Q486.6681 343.66876 486.6681 343.075Q486.6681 342.4344 487.02747 341.8719Q487.40247 341.29376 488.1056 341.0125Q488.82434 340.71564 489.68372 340.71564Q490.63684 340.71564 491.37122 341.02814Q492.1056 341.325 492.49622 341.9344Q492.88684 342.52814 492.9181 343.27814L491.82434 343.35626Q491.7306 342.54376 491.21497 342.1375Q490.71497 341.71564 489.7306 341.71564Q488.69934 341.71564 488.2306 342.09064Q487.76184 342.46564 487.76184 342.9969Q487.76184 343.46564 488.08997 343.7625Q488.4181 344.0594 489.7931 344.3719Q491.18372 344.6844 491.69934 344.91876Q492.44934 345.27814 492.80872 345.8094Q493.1681 346.325 493.1681 347.02814Q493.1681 347.71564 492.77747 348.325Q492.38684 348.91876 491.65247 349.2625Q490.9181 349.59064 489.99622 349.59064Q488.82434 349.59064 488.02747 349.2625Q487.24622 348.91876 486.7931 348.23126Q486.3556 347.54376 486.33997 346.6844ZM494.74622 349.45L494.74622 340.85626L500.94934 340.85626L500.94934 341.8719L495.88684 341.8719L495.88684 344.4969L500.63684 344.4969L500.63684 345.5125L495.88684 345.5125L495.88684 348.4344L501.15247 348.4344L501.15247 349.45L494.74622 349.45ZM502.37122 345.2625Q502.37122 343.1219 503.51184 341.91876Q504.6681 340.7 506.4806 340.7Q507.68372 340.7 508.63684 341.27814Q509.58997 341.84064 510.08997 342.85626Q510.58997 343.8719 510.58997 345.16876Q510.58997 346.46564 510.05872 347.4969Q509.52747 348.52814 508.55872 349.0594Q507.6056 349.59064 506.4806 349.59064Q505.26184 349.59064 504.30872 349.0125Q503.3556 348.41876 502.8556 347.41876Q502.37122 346.40314 502.37122 345.2625ZM503.5431 345.27814Q503.5431 346.84064 504.37122 347.73126Q505.21497 348.6219 506.4806 348.6219Q507.76184 348.6219 508.58997 347.73126Q509.4181 346.825 509.4181 345.15314Q509.4181 344.10626 509.05872 343.325Q508.71497 342.54376 508.02747 342.1219Q507.33997 341.6844 506.49622 341.6844Q505.2931 341.6844 504.4181 342.5125Q503.5431 343.34064 503.5431 345.27814Z" fill-rule="nonzero"/><path fill="#4285f4" d="M237.5 56.916668C237.5 56.364384 237.94771 55.916668 238.5 55.916668L248.5 55.916668C249.05229 55.916668 249.5 56.364384 249.5 56.916668L249.5 66.916664C249.5 67.46895 249.05229 67.916664 248.5 67.916664L238.5 67.916664C237.94771 67.916664 237.5 67.46895 237.5 66.916664Z" fill-rule="nonzero"/><path fill="#1a1a1a" d="M258.46875 65.916664L258.46875 57.322914L259.59375 57.322914L259.59375 60.854164L264.0625 60.854164L264.0625 57.322914L265.20312 57.322914L265.20312 65.916664L264.0625 65.916664L264.0625 61.86979L259.59375 61.86979L259.59375 65.916664L258.46875 65.916664ZM271.375 65.916664L271.375 64.99479Q270.64062 66.05729 269.39062 66.05729Q268.84375 66.05729 268.35938 65.854164Q267.89062 65.635414 267.65625 65.322914Q267.42188 64.99479 267.32812 64.52604Q267.26562 64.229164 267.26562 63.541664L267.26562 59.697914L268.32812 59.697914L268.32812 63.15104Q268.32812 63.96354 268.39062 64.260414Q268.48438 64.666664 268.79688 64.916664Q269.125 65.15104 269.60938 65.15104Q270.07812 65.15104 270.48438 64.916664Q270.90625 64.666664 271.07812 64.24479Q271.26562 63.822914 271.26562 63.02604L271.26562 59.697914L272.3125 59.697914L272.3125 65.916664L271.375 65.916664ZM274.09375 66.43229L275.125 66.58854Q275.1875 67.05729 275.48438 67.27604Q275.875 67.572914 276.54688 67.572914Q277.28125 67.572914 277.67188 67.27604Q278.07812 66.979164 278.21875 66.46354Q278.3125 66.135414 278.29688 65.104164Q277.60938 65.916664 276.57812 65.916664Q275.29688 65.916664 274.59375 64.99479Q273.89062 64.05729 273.89062 62.77604Q273.89062 61.885414 274.20312 61.135414Q274.53125 60.36979 275.14062 59.96354Q275.75 59.55729 276.57812 59.55729Q277.6875 59.55729 278.40625 60.447914L278.40625 59.697914L279.375 59.697914L279.375 65.072914Q279.375 66.52604 279.07812 67.135414Q278.78125 67.74479 278.14062 68.08854Q277.5 68.447914 276.5625 68.447914Q275.45312 68.447914 274.76562 67.947914Q274.07812 67.447914 274.09375 66.43229ZM274.96875 62.697914Q274.96875 63.916664 275.45312 64.479164Q275.9375 65.041664 276.67188 65.041664Q277.40625 65.041664 277.89062 64.479164Q278.39062 63.916664 278.39062 62.729164Q278.39062 61.58854 277.875 61.010414Q277.375 60.43229 276.65625 60.43229Q275.95312 60.43229 275.45312 61.010414Q274.96875 61.572914 274.96875 62.697914ZM280.90625 62.80729Q280.90625 61.072914 281.85938 60.24479Q282.65625 59.55729 283.8125 59.55729Q285.09375 59.55729 285.90625 60.40104Q286.73438 61.229164 286.73438 62.71354Q286.73438 63.916664 286.375 64.604164Q286.01562 65.291664 285.3125 65.68229Q284.625 66.05729 283.8125 66.05729Q282.51562 66.05729 281.70312 65.229164Q280.90625 64.385414 280.90625 62.80729ZM281.98438 62.80729Q281.98438 63.99479 282.5 64.58854Q283.03125 65.18229 283.8125 65.18229Q284.60938 65.18229 285.125 64.58854Q285.64062 63.99479 285.64062 62.77604Q285.64062 61.61979 285.10938 61.02604Q284.59375 60.43229 283.8125 60.43229Q283.03125 60.43229 282.5 61.02604Q281.98438 61.604164 281.98438 62.80729Z" fill-rule="nonzero"/><path fill="#ea4335" d="M303.5 56.916668C303.5 56.364384 303.94772 55.916668 304.5 55.916668L314.5 55.916668C315.05228 55.916668 315.5 56.364384 315.5 56.916668L315.5 66.916664C315.5 67.46895 315.05228 67.916664 314.5 67.916664L304.5 67.916664C303.94772 67.916664 303.5 67.46895 303.5 66.916664Z" fill-rule="nonzero"/><path fill="#1a1a1a" d="M324.42188 65.916664L324.42188 57.322914L325.57812 57.322914L330.09375 64.072914L330.09375 57.322914L331.1875 57.322914L331.1875 65.916664L330.01562 65.916664L325.5 59.166664L325.5 65.916664L324.42188 65.916664ZM337.54688 63.916664L338.64062 64.041664Q338.39062 64.99479 337.6875 65.52604Q336.98438 66.05729 335.90625 66.05729Q334.54688 66.05729 333.73438 65.21354Q332.9375 64.36979 332.9375 62.854164Q332.9375 61.291664 333.75 60.43229Q334.5625 59.55729 335.84375 59.55729Q337.09375 59.55729 337.875 60.40104Q338.67188 61.24479 338.67188 62.791664Q338.67188 62.885414 338.67188 63.072914L334.03125 63.072914Q334.09375 64.104164 334.60938 64.65104Q335.125 65.18229 335.90625 65.18229Q336.48438 65.18229 336.89062 64.885414Q337.3125 64.572914 337.54688 63.916664ZM334.09375 62.21354L337.5625 62.21354Q337.5 61.416664 337.17188 61.02604Q336.65625 60.416664 335.85938 60.416664Q335.125 60.416664 334.625 60.90104Q334.14062 61.385414 334.09375 62.21354ZM339.59375 65.916664L341.85938 62.68229L339.76562 59.697914L341.07812 59.697914L342.03125 61.15104Q342.29688 61.572914 342.46875 61.854164Q342.71875 61.46354 342.9375 61.166664L343.98438 59.697914L345.25 59.697914L343.09375 62.61979L345.40625 65.916664L344.125 65.916664L342.84375 63.979164L342.5 63.46354L340.85938 65.916664L339.59375 65.916664ZM348.59375 64.979164L348.75 65.90104Q348.29688 65.99479 347.95312 65.99479Q347.375 65.99479 347.0625 65.822914Q346.75 65.635414 346.60938 65.33854Q346.48438 65.041664 346.48438 64.08854L346.48438 60.510414L345.71875 60.510414L345.71875 59.697914L346.48438 59.697914L346.48438 58.15104L347.53125 57.52604L347.53125 59.697914L348.59375 59.697914L348.59375 60.510414L347.53125 60.510414L347.53125 64.15104Q347.53125 64.604164 347.57812 64.729164Q347.64062 64.854164 347.76562 64.93229Q347.89062 65.010414 348.125 65.010414Q348.3125 65.010414 348.59375 64.979164ZM348.84375 63.479164L349.875 63.33854Q349.90625 64.322914 350.23438 64.68229Q350.5625 65.041664 351.15625 65.041664Q351.57812 65.041664 351.89062 64.854164Q352.20312 64.65104 352.3125 64.322914Q352.4375 63.979164 352.4375 63.24479L352.4375 57.322914L353.5625 57.322914L353.5625 63.18229Q353.5625 64.260414 353.29688 64.854164Q353.04688 65.447914 352.48438 65.760414Q351.92188 66.05729 351.15625 66.05729Q350.03125 66.05729 349.42188 65.416664Q348.82812 64.760414 348.84375 63.479164ZM355.04688 63.15104L356.10938 63.05729Q356.1875 63.71354 356.46875 64.11979Q356.75 64.52604 357.32812 64.791664Q357.92188 65.041664 358.65625 65.041664Q359.29688 65.041664 359.79688 64.854164Q360.29688 64.65104 360.53125 64.322914Q360.78125 63.979164 360.78125 63.58854Q360.78125 63.18229 360.54688 62.885414Q360.3125 62.572914 359.78125 62.36979Q359.42188 62.229164 358.23438 61.947914Q357.0625 61.666664 356.59375 61.416664Q355.96875 61.08854 355.67188 60.61979Q355.375 60.135414 355.375 59.541664Q355.375 58.90104 355.73438 58.33854Q356.10938 57.760414 356.8125 57.479164Q357.53125 57.18229 358.39062 57.18229Q359.34375 57.18229 360.07812 57.49479Q360.8125 57.791664 361.20312 58.40104Q361.59375 58.99479 361.625 59.74479L360.53125 59.822914Q360.4375 59.010414 359.92188 58.604164Q359.42188 58.18229 358.4375 58.18229Q357.40625 58.18229 356.9375 58.55729Q356.46875 58.93229 356.46875 59.46354Q356.46875 59.93229 356.79688 60.229164Q357.125 60.52604 358.5 60.83854Q359.89062 61.15104 360.40625 61.385414Q361.15625 61.74479 361.51562 62.27604Q361.875 62.791664 361.875 63.49479Q361.875 64.18229 361.48438 64.791664Q361.09375 65.385414 360.35938 65.729164Q359.625 66.05729 358.70312 66.05729Q357.53125 66.05729 356.73438 65.729164Q355.95312 65.385414 355.5 64.697914Q355.0625 64.010414 355.04688 63.15104Z" fill-rule="nonzero"/><path fill="#757575" d="M21.4875 37.55L19.8625 37.55L19.8625 23.2375L21.6125 23.2375L21.6125 28.346874Q22.7375 26.940624 24.45625 26.940624Q25.409374 26.940624 26.26875 27.33125Q27.128124 27.721874 27.675 28.425Q28.221874 29.1125 28.534374 30.096874Q28.846874 31.08125 28.846874 32.20625Q28.846874 34.878124 27.534374 36.33125Q26.221874 37.784374 24.378124 37.784374Q22.534374 37.784374 21.4875 36.253124L21.4875 37.55ZM21.471874 32.284374Q21.471874 34.14375 21.971874 34.9875Q22.815624 36.33125 24.221874 36.33125Q25.378124 36.33125 26.20625 35.33125Q27.05 34.33125 27.05 32.346874Q27.05 30.315624 26.2375 29.3625Q25.440624 28.39375 24.3 28.39375Q23.14375 28.39375 22.3 29.39375Q21.471874 30.39375 21.471874 32.284374ZM30.83125 37.55L30.83125 23.2375L32.58125 23.2375L32.58125 37.55L30.83125 37.55ZM34.221874 32.3625Q34.221874 29.4875 35.815624 28.096874Q37.159374 26.940624 39.08125 26.940624Q41.221874 26.940624 42.565624 28.346874Q43.925 29.753124 43.925 32.221874Q43.925 34.221874 43.33125 35.378124Q42.7375 36.51875 41.58125 37.159374Q40.440624 37.784374 39.08125 37.784374Q36.89375 37.784374 35.55 36.39375Q34.221874 34.9875 34.221874 32.3625ZM36.01875 32.3625Q36.01875 34.3625 36.878124 35.346874Q37.753124 36.33125 39.08125 36.33125Q40.39375 36.33125 41.253124 35.346874Q42.128124 34.346874 42.128124 32.3Q42.128124 30.378124 41.253124 29.39375Q40.378124 28.39375 39.08125 28.39375Q37.753124 28.39375 36.878124 29.39375Q36.01875 30.378124 36.01875 32.3625ZM45.55 38.409374L47.253124 38.659374Q47.3625 39.45625 47.846874 39.815624Q48.503124 40.3 49.64375 40.3Q50.8625 40.3 51.51875 39.815624Q52.190624 39.33125 52.425 38.45625Q52.565624 37.909374 52.55 36.190624Q51.39375 37.55 49.675 37.55Q47.534374 37.55 46.3625 36.003124Q45.190624 34.45625 45.190624 32.3Q45.190624 30.815624 45.721874 29.565624Q46.26875 28.315624 47.284374 27.628124Q48.315624 26.940624 49.690624 26.940624Q51.51875 26.940624 52.721874 28.425L52.721874 27.175L54.33125 27.175L54.33125 36.14375Q54.33125 38.565624 53.83125 39.565624Q53.346874 40.58125 52.26875 41.159374Q51.20625 41.753124 49.64375 41.753124Q47.8 41.753124 46.64375 40.925Q45.503124 40.096874 45.55 38.409374ZM47.003124 32.175Q47.003124 34.221874 47.815624 35.159374Q48.628124 36.096874 49.846874 36.096874Q51.05 36.096874 51.8625 35.159374Q52.690624 34.221874 52.690624 32.2375Q52.690624 30.33125 51.846874 29.3625Q51.003124 28.39375 49.815624 28.39375Q48.64375 28.39375 47.815624 29.346874Q47.003124 30.3 47.003124 32.175ZM56.190624 33.253124L56.190624 31.4875L61.58125 31.4875L61.58125 33.253124L56.190624 33.253124ZM63.8625 37.55L63.8625 23.2375L65.62813 23.2375L65.62813 28.3625Q66.8625 26.940624 68.7375 26.940624Q69.87813 26.940624 70.72188 27.39375Q71.58125 27.846874 71.94063 28.659374Q72.31563 29.45625 72.31563 30.971874L72.31563 37.55L70.56563 37.55L70.56563 30.971874Q70.56563 29.659374 69.9875 29.065624Q69.40938 28.45625 68.37813 28.45625Q67.59688 28.45625 66.89375 28.8625Q66.20625 29.26875 65.90938 29.971874Q65.62813 30.659374 65.62813 31.878124L65.62813 37.55L63.8625 37.55ZM81.65938 37.55L81.65938 36.01875Q80.45625 37.784374 78.37813 37.784374Q77.45625 37.784374 76.65938 37.440624Q75.8625 37.08125 75.47188 36.55Q75.09688 36.01875 74.94063 35.2375Q74.83125 34.721874 74.83125 33.596874L74.83125 27.175L76.58125 27.175L76.58125 32.925Q76.58125 34.3 76.69063 34.784374Q76.8625 35.471874 77.39375 35.878124Q77.94063 36.26875 78.72188 36.26875Q79.51875 36.26875 80.20625 35.8625Q80.90938 35.45625 81.19063 34.76875Q81.4875 34.065624 81.4875 32.7375L81.4875 27.175L83.2375 27.175L83.2375 37.55L81.65938 37.55ZM85.55 38.409374L87.25313 38.659374Q87.3625 39.45625 87.84688 39.815624Q88.50313 40.3 89.64375 40.3Q90.8625 40.3 91.51875 39.815624Q92.19063 39.33125 92.425 38.45625Q92.56563 37.909374 92.55 36.190624Q91.39375 37.55 89.675 37.55Q87.53438 37.55 86.3625 36.003124Q85.19063 34.45625 85.19063 32.3Q85.19063 30.815624 85.72188 29.565624Q86.26875 28.315624 87.28438 27.628124Q88.31563 26.940624 89.69063 26.940624Q91.51875 26.940624 92.72188 28.425L92.72188 27.175L94.33125 27.175L94.33125 36.14375Q94.33125 38.565624 93.83125 39.565624Q93.34688 40.58125 92.26875 41.159374Q91.20625 41.753124 89.64375 41.753124Q87.8 41.753124 86.64375 40.925Q85.50313 40.096874 85.55 38.409374ZM87.00313 32.175Q87.00313 34.221874 87.81563 35.159374Q88.62813 36.096874 89.84688 36.096874Q91.05 36.096874 91.8625 35.159374Q92.69063 34.221874 92.69063 32.2375Q92.69063 30.33125 91.84688 29.3625Q91.00313 28.39375 89.81563 28.39375Q88.64375 28.39375 87.81563 29.346874Q87.00313 30.3 87.00313 32.175ZM96.22188 32.3625Q96.22188 29.4875 97.81563 28.096874Q99.15938 26.940624 101.08125 26.940624Q103.22188 26.940624 104.56563 28.346874Q105.925 29.753124 105.925 32.221874Q105.925 34.221874 105.33125 35.378124Q104.7375 36.51875 103.58125 37.159374Q102.44063 37.784374 101.08125 37.784374Q98.89375 37.784374 97.55 36.39375Q96.22188 34.9875 96.22188 32.3625ZM98.01875 32.3625Q98.01875 34.3625 98.87813 35.346874Q99.75313 36.33125 101.08125 36.33125Q102.39375 36.33125 103.25313 35.346874Q104.12813 34.346874 104.12813 32.3Q104.12813 30.378124 103.25313 29.39375Q102.37813 28.39375 101.08125 28.39375Q99.75313 28.39375 98.87813 29.39375Q98.01875 30.378124 98.01875 32.3625ZM108.3625 37.55L108.3625 35.55L110.3625 35.55L110.3625 37.55L108.3625 37.55ZM113.8625 37.55L113.8625 27.175L115.45625 27.175L115.45625 28.659374Q116.59688 26.940624 118.75313 26.940624Q119.69063 26.940624 120.47188 27.284374Q121.26875 27.6125 121.65938 28.159374Q122.05 28.70625 122.20625 29.45625Q122.3 29.95625 122.3 31.175L122.3 37.55L120.53438 37.55L120.53438 31.2375Q120.53438 30.159374 120.33125 29.628124Q120.12813 29.096874 119.59688 28.784374Q119.08125 28.471874 118.37813 28.471874Q117.25313 28.471874 116.44063 29.190624Q115.62813 29.89375 115.62813 31.878124L115.62813 37.55L113.8625 37.55ZM124.87813 25.253124L124.87813 23.2375L126.64375 23.2375L126.64375 25.253124L124.87813 25.253124ZM124.87813 37.55L124.87813 27.175L126.64375 27.175L126.64375 37.55L124.87813 37.55ZM128.8625 37.55L128.8625 27.175L130.45625 27.175L130.45625 28.659374Q131.59688 26.940624 133.75313 26.940624Q134.69063 26.940624 135.47188 27.284374Q136.26875 27.6125 136.65938 28.159374Q137.05 28.70625 137.20625 29.45625Q137.3 29.95625 137.3 31.175L137.3 37.55L135.53438 37.55L135.53438 31.2375Q135.53438 30.159374 135.33125 29.628124Q135.12813 29.096874 134.59688 28.784374Q134.08125 28.471874 133.37813 28.471874Q132.25313 28.471874 131.44063 29.190624Q130.62813 29.89375 130.62813 31.878124L130.62813 37.55L128.8625 37.55ZM146.59688 37.55L146.59688 36.2375Q145.6125 37.784374 143.69063 37.784374Q142.45625 37.784374 141.40938 37.096874Q140.37813 36.409374 139.8 35.190624Q139.2375 33.971874 139.2375 32.378124Q139.2375 30.815624 139.75313 29.55Q140.26875 28.284374 141.3 27.6125Q142.34688 26.940624 143.6125 26.940624Q144.55 26.940624 145.28438 27.346874Q146.01875 27.7375 146.4875 28.3625L146.4875 23.2375L148.22188 23.2375L148.22188 37.55L146.59688 37.55ZM141.03438 32.378124Q141.03438 34.3625 141.87813 35.346874Q142.72188 36.33125 143.8625 36.33125Q145.01875 36.33125 145.81563 35.39375Q146.62813 34.45625 146.62813 32.51875Q146.62813 30.39375 145.8 29.39375Q144.9875 28.39375 143.78438 28.39375Q142.6125 28.39375 141.81563 29.3625Q141.03438 30.315624 141.03438 32.378124ZM157.64375 36.26875Q156.65938 37.096874 155.75313 37.440624Q154.84688 37.784374 153.81563 37.784374Q152.1125 37.784374 151.19063 36.95625Q150.26875 36.1125 150.26875 34.815624Q150.26875 34.05 150.6125 33.425Q150.97188 32.8 151.53438 32.425Q152.09688 32.034374 152.8 31.83125Q153.31563 31.70625 154.3625 31.565624Q156.4875 31.315624 157.4875 30.971874Q157.50313 30.6125 157.50313 30.503124Q157.50313 29.440624 157.00313 28.9875Q156.33125 28.39375 155.00313 28.39375Q153.75313 28.39375 153.15938 28.83125Q152.58125 29.26875 152.3 30.378124L150.58125 30.14375Q150.81563 29.034374 151.34688 28.3625Q151.87813 27.675 152.89375 27.315624Q153.90938 26.940624 155.25313 26.940624Q156.58125 26.940624 157.40938 27.253124Q158.2375 27.565624 158.62813 28.05Q159.01875 28.51875 159.175 29.2375Q159.26875 29.690624 159.26875 30.8625L159.26875 33.20625Q159.26875 35.659374 159.37813 36.315624Q159.4875 36.95625 159.83125 37.55L157.9875 37.55Q157.72188 37.003124 157.64375 36.26875ZM157.4875 32.346874Q156.53438 32.7375 154.6125 33.003124Q153.53438 33.159374 153.08125 33.3625Q152.64375 33.55 152.39375 33.925Q152.14375 34.3 152.14375 34.76875Q152.14375 35.471874 152.675 35.940624Q153.20625 36.409374 154.2375 36.409374Q155.25313 36.409374 156.03438 35.971874Q156.83125 35.51875 157.20625 34.753124Q157.4875 34.14375 157.4875 32.9875L157.4875 32.346874ZM161.83125 37.55L161.83125 23.2375L163.58125 23.2375L163.58125 37.55L161.83125 37.55ZM166.28438 37.55L166.28438 28.55L164.7375 28.55L164.7375 27.175L166.28438 27.175L166.28438 26.08125Q166.28438 25.034374 166.47188 24.51875Q166.72188 23.83125 167.3625 23.409374Q168.00313 22.9875 169.15938 22.9875Q169.90938 22.9875 170.8 23.159374L170.53438 24.690624Q169.9875 24.596874 169.50313 24.596874Q168.70625 24.596874 168.3625 24.940624Q168.03438 25.284374 168.03438 26.221874L168.03438 27.175L170.06563 27.175L170.06563 28.55L168.03438 28.55L168.03438 37.55L166.28438 37.55ZM172.3625 37.55L172.3625 35.55L174.3625 35.55L174.3625 37.55L172.3625 37.55ZM184.64375 33.753124L186.3625 33.971874Q186.08125 35.76875 184.90938 36.784374Q183.75313 37.784374 182.05 37.784374Q179.925 37.784374 178.62813 36.39375Q177.33125 35.003124 177.33125 32.409374Q177.33125 30.721874 177.87813 29.471874Q178.44063 28.20625 179.58125 27.58125Q180.72188 26.940624 182.06563 26.940624Q183.75313 26.940624 184.81563 27.8Q185.89375 28.659374 186.20625 30.221874L184.4875 30.4875Q184.25313 29.440624 183.62813 28.925Q183.00313 28.39375 182.12813 28.39375Q180.8 28.39375 179.97188 29.346874Q179.14375 30.3 179.14375 32.346874Q179.14375 34.440624 179.94063 35.39375Q180.7375 36.33125 182.03438 36.33125Q183.06563 36.33125 183.75313 35.70625Q184.45625 35.065624 184.64375 33.753124ZM187.22188 32.3625Q187.22188 29.4875 188.81563 28.096874Q190.15938 26.940624 192.08125 26.940624Q194.22188 26.940624 195.56563 28.346874Q196.925 29.753124 196.925 32.221874Q196.925 34.221874 196.33125 35.378124Q195.7375 36.51875 194.58125 37.159374Q193.44063 37.784374 192.08125 37.784374Q189.89375 37.784374 188.55 36.39375Q187.22188 34.9875 187.22188 32.3625ZM189.01875 32.3625Q189.01875 34.3625 189.87813 35.346874Q190.75313 36.33125 192.08125 36.33125Q193.39375 36.33125 194.25313 35.346874Q195.12813 34.346874 195.12813 32.3Q195.12813 30.378124 194.25313 29.39375Q193.37813 28.39375 192.08125 28.39375Q190.75313 28.39375 189.87813 29.39375Q189.01875 30.378124 189.01875 32.3625ZM198.8625 37.55L198.8625 27.175L200.44063 27.175L200.44063 28.628124Q200.925 27.878124 201.7375 27.409374Q202.55 26.940624 203.58125 26.940624Q204.7375 26.940624 205.47188 27.425Q206.20625 27.89375 206.51875 28.753124Q207.75313 26.940624 209.72188 26.940624Q211.26875 26.940624 212.09688 27.8Q212.925 28.659374 212.925 30.425L212.925 37.55L211.175 37.55L211.175 31.01875Q211.175 29.95625 211.00313 29.503124Q210.83125 29.034374 210.37813 28.753124Q209.94063 28.471874 209.33125 28.471874Q208.2375 28.471874 207.50313 29.20625Q206.78438 29.925 206.78438 31.51875L206.78438 37.55L205.03438 37.55L205.03438 30.815624Q205.03438 29.64375 204.59688 29.065624Q204.175 28.471874 203.19063 28.471874Q202.45625 28.471874 201.81563 28.8625Q201.19063 29.253124 200.90938 30.003124Q200.62813 30.753124 200.62813 32.175L200.62813 37.55L198.8625 37.55ZM224.75313 37.55L220.8 27.175L222.65938 27.175L224.89375 33.39375Q225.25313 34.39375 225.55 35.471874Q225.78438 34.659374 226.20625 33.503124L228.50313 27.175L230.31563 27.175L226.39375 37.55L224.75313 37.55ZM231.15938 34.45625L232.90938 34.175Q233.05 35.221874 233.72188 35.784374Q234.39375 36.33125 235.59688 36.33125Q236.8 36.33125 237.37813 35.846874Q237.97188 35.346874 237.97188 34.690624Q237.97188 34.096874 237.45625 33.753124Q237.09688 33.51875 235.65938 33.159374Q233.72188 32.659374 232.97188 32.315624Q232.2375 31.95625 231.84688 31.33125Q231.45625 30.690624 231.45625 29.925Q231.45625 29.2375 231.76875 28.64375Q232.09688 28.05 232.64375 27.659374Q233.05 27.3625 233.75313 27.159374Q234.47188 26.940624 235.28438 26.940624Q236.50313 26.940624 237.425 27.3Q238.34688 27.64375 238.78438 28.253124Q239.22188 28.846874 239.39375 29.846874L237.675 30.08125Q237.55 29.284374 236.9875 28.846874Q236.425 28.39375 235.40938 28.39375Q234.19063 28.39375 233.675 28.8Q233.15938 29.190624 233.15938 29.721874Q233.15938 30.065624 233.37813 30.346874Q233.58125 30.628124 234.05 30.815624Q234.31563 30.909374 235.59688 31.253124Q237.47188 31.753124 238.20625 32.08125Q238.94063 32.39375 239.3625 33.003124Q239.78438 33.596874 239.78438 34.503124Q239.78438 35.378124 239.26875 36.159374Q238.75313 36.940624 237.78438 37.3625Q236.81563 37.784374 235.59688 37.784374Q233.58125 37.784374 232.51875 36.940624Q231.45625 36.096874 231.15938 34.45625ZM249.4875 37.55L247.8625 37.55L247.8625 23.2375L249.6125 23.2375L249.6125 28.346874Q250.7375 26.940624 252.45625 26.940624Q253.40938 26.940624 254.26875 27.33125Q255.12813 27.721874 255.675 28.425Q256.22186 29.1125 256.53436 30.096874Q256.84686 31.08125 256.84686 32.20625Q256.84686 34.878124 255.53438 36.33125Q254.22188 37.784374 252.37813 37.784374Q250.53438 37.784374 249.4875 36.253124L249.4875 37.55ZM249.47188 32.284374Q249.47188 34.14375 249.97188 34.9875Q250.81563 36.33125 252.22188 36.33125Q253.37813 36.33125 254.20625 35.33125Q255.05 34.33125 255.05 32.346874Q255.05 30.315624 254.2375 29.3625Q253.44063 28.39375 252.3 28.39375Q251.14375 28.39375 250.3 29.39375Q249.47188 30.39375 249.47188 32.284374ZM258.83124 37.55L258.83124 23.2375L260.58124 23.2375L260.58124 37.55L258.83124 37.55ZM262.22186 32.3625Q262.22186 29.4875 263.8156 28.096874Q265.15936 26.940624 267.08124 26.940624Q269.22186 26.940624 270.5656 28.346874Q271.925 29.753124 271.925 32.221874Q271.925 34.221874 271.33124 35.378124Q270.7375 36.51875 269.58124 37.159374Q268.4406 37.784374 267.08124 37.784374Q264.89374 37.784374 263.55 36.39375Q262.22186 34.9875 262.22186 32.3625ZM264.01874 32.3625Q264.01874 34.3625 264.8781 35.346874Q265.7531 36.33125 267.08124 36.33125Q268.39374 36.33125 269.2531 35.346874Q270.1281 34.346874 270.1281 32.3Q270.1281 30.378124 269.2531 29.39375Q268.3781 28.39375 267.08124 28.39375Q265.7531 28.39375 264.8781 29.39375Q264.01874 30.378124 264.01874 32.3625ZM273.55 38.409374L275.2531 38.659374Q275.3625 39.45625 275.84686 39.815624Q276.5031 40.3 277.64374 40.3Q278.8625 40.3 279.51874 39.815624Q280.1906 39.33125 280.425 38.45625Q280.5656 37.909374 280.55 36.190624Q279.39374 37.55 277.675 37.55Q275.53436 37.55 274.3625 36.003124Q273.1906 34.45625 273.1906 32.3Q273.1906 30.815624 273.72186 29.565624Q274.26874 28.315624 275.28436 27.628124Q276.3156 26.940624 277.6906 26.940624Q279.51874 26.940624 280.72186 28.425L280.72186 27.175L282.33124 27.175L282.33124 36.14375Q282.33124 38.565624 281.83124 39.565624Q281.34686 40.58125 280.26874 41.159374Q279.20624 41.753124 277.64374 41.753124Q275.8 41.753124 274.64374 40.925Q273.5031 40.096874 273.55 38.409374ZM275.0031 32.175Q275.0031 34.221874 275.8156 35.159374Q276.6281 36.096874 277.84686 36.096874Q279.05 36.096874 279.8625 35.159374Q280.6906 34.221874 280.6906 32.2375Q280.6906 30.33125 279.84686 29.3625Q279.0031 28.39375 277.8156 28.39375Q276.64374 28.39375 275.8156 29.346874Q275.0031 30.3 275.0031 32.175ZM285.3625 37.55L285.3625 35.55L287.3625 35.55L287.3625 37.55L285.3625 37.55ZM290.8625 37.55L290.8625 27.175L292.45624 27.175L292.45624 28.659374Q293.59686 26.940624 295.7531 26.940624Q296.6906 26.940624 297.47186 27.284374Q298.26874 27.6125 298.65936 28.159374Q299.05 28.70625 299.20624 29.45625Q299.3 29.95625 299.3 31.175L299.3 37.55L297.53436 37.55L297.53436 31.2375Q297.53436 30.159374 297.33124 29.628124Q297.1281 29.096874 296.59686 28.784374Q296.08124 28.471874 295.3781 28.471874Q294.2531 28.471874 293.4406 29.190624Q292.6281 29.89375 292.6281 31.878124L292.6281 37.55L290.8625 37.55ZM301.8781 25.253124L301.8781 23.2375L303.64374 23.2375L303.64374 25.253124L301.8781 25.253124ZM301.8781 37.55L301.8781 27.175L303.64374 27.175L303.64374 37.55L301.8781 37.55ZM305.8625 37.55L305.8625 27.175L307.45624 27.175L307.45624 28.659374Q308.59686 26.940624 310.7531 26.940624Q311.6906 26.940624 312.47186 27.284374Q313.26874 27.6125 313.65936 28.159374Q314.05 28.70625 314.20624 29.45625Q314.3 29.95625 314.3 31.175L314.3 37.55L312.53436 37.55L312.53436 31.2375Q312.53436 30.159374 312.33124 29.628124Q312.1281 29.096874 311.59686 28.784374Q311.08124 28.471874 310.3781 28.471874Q309.2531 28.471874 308.4406 29.190624Q307.6281 29.89375 307.6281 31.878124L307.6281 37.55L305.8625 37.55ZM323.59686 37.55L323.59686 36.2375Q322.6125 37.784374 320.6906 37.784374Q319.45624 37.784374 318.40936 37.096874Q317.3781 36.409374 316.8 35.190624Q316.2375 33.971874 316.2375 32.378124Q316.2375 30.815624 316.7531 29.55Q317.26874 28.284374 318.3 27.6125Q319.34686 26.940624 320.6125 26.940624Q321.55 26.940624 322.28436 27.346874Q323.01874 27.7375 323.4875 28.3625L323.4875 23.2375L325.22186 23.2375L325.22186 37.55L323.59686 37.55ZM318.03436 32.378124Q318.03436 34.3625 318.8781 35.346874Q319.72186 36.33125 320.8625 36.33125Q322.01874 36.33125 322.8156 35.39375Q323.6281 34.45625 323.6281 32.51875Q323.6281 30.39375 322.8 29.39375Q321.9875 28.39375 320.78436 28.39375Q319.6125 28.39375 318.8156 29.3625Q318.03436 30.315624 318.03436 32.378124ZM334.64374 36.26875Q333.65936 37.096874 332.7531 37.440624Q331.84686 37.784374 330.8156 37.784374Q329.1125 37.784374 328.1906 36.95625Q327.26874 36.1125 327.26874 34.815624Q327.26874 34.05 327.6125 33.425Q327.97186 32.8 328.53436 32.425Q329.09686 32.034374 329.8 31.83125Q330.3156 31.70625 331.3625 31.565624Q333.4875 31.315624 334.4875 30.971874Q334.5031 30.6125 334.5031 30.503124Q334.5031 29.440624 334.0031 28.9875Q333.33124 28.39375 332.0031 28.39375Q330.7531 28.39375 330.15936 28.83125Q329.58124 29.26875 329.3 30.378124L327.58124 30.14375Q327.8156 29.034374 328.34686 28.3625Q328.8781 27.675 329.89374 27.315624Q330.90936 26.940624 332.2531 26.940624Q333.58124 26.940624 334.40936 27.253124Q335.2375 27.565624 335.6281 28.05Q336.01874 28.51875 336.175 29.2375Q336.26874 29.690624 336.26874 30.8625L336.26874 33.20625Q336.26874 35.659374 336.3781 36.315624Q336.4875 36.95625 336.83124 37.55L334.9875 37.55Q334.72186 37.003124 334.64374 36.26875ZM334.4875 32.346874Q333.53436 32.7375 331.6125 33.003124Q330.53436 33.159374 330.08124 33.3625Q329.64374 33.55 329.39374 33.925Q329.14374 34.3 329.14374 34.76875Q329.14374 35.471874 329.675 35.940624Q330.20624 36.409374 331.2375 36.409374Q332.2531 36.409374 333.03436 35.971874Q333.83124 35.51875 334.20624 34.753124Q334.4875 34.14375 334.4875 32.9875L334.4875 32.346874ZM338.83124 37.55L338.83124 23.2375L340.58124 23.2375L340.58124 37.55L338.83124 37.55ZM343.28436 37.55L343.28436 28.55L341.7375 28.55L341.7375 27.175L343.28436 27.175L343.28436 26.08125Q343.28436 25.034374 343.47186 24.51875Q343.72186 23.83125 344.3625 23.409374Q345.0031 22.9875 346.15936 22.9875Q346.90936 22.9875 347.8 23.159374L347.53436 24.690624Q346.9875 24.596874 346.5031 24.596874Q345.70624 24.596874 345.3625 24.940624Q345.03436 25.284374 345.03436 26.221874L345.03436 27.175L347.0656 27.175L347.0656 28.55L345.03436 28.55L345.03436 37.55L343.28436 37.55ZM349.3625 37.55L349.3625 35.55L351.3625 35.55L351.3625 37.55L349.3625 37.55ZM361.64374 33.753124L363.3625 33.971874Q363.08124 35.76875 361.90936 36.784374Q360.7531 37.784374 359.05 37.784374Q356.925 37.784374 355.6281 36.39375Q354.33124 35.003124 354.33124 32.409374Q354.33124 30.721874 354.8781 29.471874Q355.4406 28.20625 356.58124 27.58125Q357.72186 26.940624 359.0656 26.940624Q360.7531 26.940624 361.8156 27.8Q362.89374 28.659374 363.20624 30.221874L361.4875 30.4875Q361.2531 29.440624 360.6281 28.925Q360.0031 28.39375 359.1281 28.39375Q357.8 28.39375 356.97186 29.346874Q356.14374 30.3 356.14374 32.346874Q356.14374 34.440624 356.9406 35.39375Q357.7375 36.33125 359.03436 36.33125Q360.0656 36.33125 360.7531 35.70625Q361.45624 35.065624 361.64374 33.753124ZM364.22186 32.3625Q364.22186 29.4875 365.8156 28.096874Q367.15936 26.940624 369.08124 26.940624Q371.22186 26.940624 372.5656 28.346874Q373.925 29.753124 373.925 32.221874Q373.925 34.221874 373.33124 35.378124Q372.7375 36.51875 371.58124 37.159374Q370.4406 37.784374 369.08124 37.784374Q366.89374 37.784374 365.55 36.39375Q364.22186 34.9875 364.22186 32.3625ZM366.01874 32.3625Q366.01874 34.3625 366.8781 35.346874Q367.7531 36.33125 369.08124 36.33125Q370.39374 36.33125 371.2531 35.346874Q372.1281 34.346874 372.1281 32.3Q372.1281 30.378124 371.2531 29.39375Q370.3781 28.39375 369.08124 28.39375Q367.7531 28.39375 366.8781 29.39375Q366.01874 30.378124 366.01874 32.3625ZM375.8625 37.55L375.8625 27.175L377.4406 27.175L377.4406 28.628124Q377.925 27.878124 378.7375 27.409374Q379.55 26.940624 380.58124 26.940624Q381.7375 26.940624 382.47186 27.425Q383.20624 27.89375 383.51874 28.753124Q384.7531 26.940624 386.72186 26.940624Q388.26874 26.940624 389.09686 27.8Q389.925 28.659374 389.925 30.425L389.925 37.55L388.175 37.55L388.175 31.01875Q388.175 29.95625 388.0031 29.503124Q387.83124 29.034374 387.3781 28.753124Q386.9406 28.471874 386.33124 28.471874Q385.2375 28.471874 384.5031 29.20625Q383.78436 29.925 383.78436 31.51875L383.78436 37.55L382.03436 37.55L382.03436 30.815624Q382.03436 29.64375 381.59686 29.065624Q381.175 28.471874 380.1906 28.471874Q379.45624 28.471874 378.8156 28.8625Q378.1906 29.253124 377.90936 30.003124Q377.6281 30.753124 377.6281 32.175L377.6281 37.55L375.8625 37.55ZM402.22186 41.753124Q400.76874 39.925 399.76874 37.471874Q398.76874 35.003124 398.76874 32.3625Q398.76874 30.034374 399.51874 27.909374Q400.39374 25.440624 402.22186 22.9875L403.4875 22.9875Q402.3 25.01875 401.925 25.89375Q401.33124 27.2375 400.9875 28.70625Q400.5656 30.534374 400.5656 32.378124Q400.5656 37.065624 403.4875 41.753124L402.22186 41.753124ZM406.15936 37.55L406.15936 23.2375L408.05 23.2375L408.05 29.1125L415.4875 29.1125L415.4875 23.2375L417.3781 23.2375L417.3781 37.55L415.4875 37.55L415.4875 30.8L408.05 30.8L408.05 37.55L406.15936 37.55ZM419.8781 25.253124L419.8781 23.2375L421.64374 23.2375L421.64374 25.253124L419.8781 25.253124ZM419.8781 37.55L419.8781 27.175L421.64374 27.175L421.64374 37.55L419.8781 37.55ZM423.55 38.409374L425.2531 38.659374Q425.3625 39.45625 425.84686 39.815624Q426.5031 40.3 427.64374 40.3Q428.8625 40.3 429.51874 39.815624Q430.1906 39.33125 430.425 38.45625Q430.5656 37.909374 430.55 36.190624Q429.39374 37.55 427.675 37.55Q425.53436 37.55 424.3625 36.003124Q423.1906 34.45625 423.1906 32.3Q423.1906 30.815624 423.72186 29.565624Q424.26874 28.315624 425.28436 27.628124Q426.3156 26.940624 427.6906 26.940624Q429.51874 26.940624 430.72186 28.425L430.72186 27.175L432.33124 27.175L432.33124 36.14375Q432.33124 38.565624 431.83124 39.565624Q431.34686 40.58125 430.26874 41.159374Q429.20624 41.753124 427.64374 41.753124Q425.8 41.753124 424.64374 40.925Q423.5031 40.096874 423.55 38.409374ZM425.0031 32.175Q425.0031 34.221874 425.8156 35.159374Q426.6281 36.096874 427.84686 36.096874Q429.05 36.096874 429.8625 35.159374Q430.6906 34.221874 430.6906 32.2375Q430.6906 30.33125 429.84686 29.3625Q429.0031 28.39375 427.8156 28.39375Q426.64374 28.39375 425.8156 29.346874Q425.0031 30.3 425.0031 32.175ZM434.8625 37.55L434.8625 23.2375L436.6281 23.2375L436.6281 28.3625Q437.8625 26.940624 439.7375 26.940624Q440.8781 26.940624 441.72186 27.39375Q442.58124 27.846874 442.9406 28.659374Q443.3156 29.45625 443.3156 30.971874L443.3156 37.55L441.5656 37.55L441.5656 30.971874Q441.5656 29.659374 440.9875 29.065624Q440.40936 28.45625 439.3781 28.45625Q438.59686 28.45625 437.89374 28.8625Q437.20624 29.26875 436.90936 29.971874Q436.6281 30.659374 436.6281 31.878124L436.6281 37.55L434.8625 37.55ZM452.97186 34.20625L454.78436 34.440624Q454.3625 36.01875 453.1906 36.909374Q452.03436 37.784374 450.22186 37.784374Q447.95624 37.784374 446.6125 36.39375Q445.28436 34.9875 445.28436 32.45625Q445.28436 29.83125 446.6281 28.39375Q447.97186 26.940624 450.1281 26.940624Q452.20624 26.940624 453.51874 28.3625Q454.84686 29.76875 454.84686 32.346874Q454.84686 32.503124 454.83124 32.815624L447.09686 32.815624Q447.1906 34.51875 448.0656 35.425Q448.9406 36.33125 450.2375 36.33125Q451.20624 36.33125 451.8781 35.83125Q452.5656 35.315624 452.97186 34.20625ZM447.1906 31.3625L452.9875 31.3625Q452.8781 30.065624 452.33124 29.409374Q451.4875 28.39375 450.14374 28.39375Q448.9406 28.39375 448.1125 29.20625Q447.28436 30.003124 447.1906 31.3625ZM456.84686 37.55L456.84686 27.175L458.425 27.175L458.425 28.753124Q459.03436 27.64375 459.55 27.3Q460.0656 26.940624 460.675 26.940624Q461.5656 26.940624 462.4875 27.503124L461.8781 29.14375Q461.2375 28.753124 460.59686 28.753124Q460.01874 28.753124 459.55 29.1125Q459.09686 29.45625 458.89374 30.065624Q458.6125 31.003124 458.6125 32.1125L458.6125 37.55L456.84686 37.55ZM469.8781 25.253124L469.8781 23.2375L471.64374 23.2375L471.64374 25.253124L469.8781 25.253124ZM469.8781 37.55L469.8781 27.175L471.64374 27.175L471.64374 37.55L469.8781 37.55ZM473.15936 34.45625L474.90936 34.175Q475.05 35.221874 475.72186 35.784374Q476.39374 36.33125 477.59686 36.33125Q478.8 36.33125 479.3781 35.846874Q479.97186 35.346874 479.97186 34.690624Q479.97186 34.096874 479.45624 33.753124Q479.09686 33.51875 477.65936 33.159374Q475.72186 32.659374 474.97186 32.315624Q474.2375 31.95625 473.84686 31.33125Q473.45624 30.690624 473.45624 29.925Q473.45624 29.2375 473.76874 28.64375Q474.09686 28.05 474.64374 27.659374Q475.05 27.3625 475.7531 27.159374Q476.47186 26.940624 477.28436 26.940624Q478.5031 26.940624 479.425 27.3Q480.34686 27.64375 480.78436 28.253124Q481.22186 28.846874 481.39374 29.846874L479.675 30.08125Q479.55 29.284374 478.9875 28.846874Q478.425 28.39375 477.40936 28.39375Q476.1906 28.39375 475.675 28.8Q475.15936 29.190624 475.15936 29.721874Q475.15936 30.065624 475.3781 30.346874Q475.58124 30.628124 476.05 30.815624Q476.3156 30.909374 477.59686 31.253124Q479.47186 31.753124 480.20624 32.08125Q480.9406 32.39375 481.3625 33.003124Q481.78436 33.596874 481.78436 34.503124Q481.78436 35.378124 481.26874 36.159374Q480.7531 36.940624 479.78436 37.3625Q478.8156 37.784374 477.59686 37.784374Q475.58124 37.784374 474.51874 36.940624Q473.45624 36.096874 473.15936 34.45625ZM491.4875 37.55L489.8625 37.55L489.8625 23.2375L491.6125 23.2375L491.6125 28.346874Q492.7375 26.940624 494.45624 26.940624Q495.40936 26.940624 496.26874 27.33125Q497.1281 27.721874 497.675 28.425Q498.22186 29.1125 498.53436 30.096874Q498.84686 31.08125 498.84686 32.20625Q498.84686 34.878124 497.53436 36.33125Q496.22186 37.784374 494.3781 37.784374Q492.53436 37.784374 491.4875 36.253124L491.4875 37.55ZM491.47186 32.284374Q491.47186 34.14375 491.97186 34.9875Q492.8156 36.33125 494.22186 36.33125Q495.3781 36.33125 496.20624 35.33125Q497.05 34.33125 497.05 32.346874Q497.05 30.315624 496.2375 29.3625Q495.4406 28.39375 494.3 28.39375Q493.14374 28.39375 492.3 29.39375Q491.47186 30.39375 491.47186 32.284374ZM507.97186 34.20625L509.78436 34.440624Q509.3625 36.01875 508.1906 36.909374Q507.03436 37.784374 505.22186 37.784374Q502.95624 37.784374 501.6125 36.39375Q500.28436 34.9875 500.28436 32.45625Q500.28436 29.83125 501.6281 28.39375Q502.97186 26.940624 505.1281 26.940624Q507.20624 26.940624 508.51874 28.3625Q509.84686 29.76875 509.84686 32.346874Q509.84686 32.503124 509.83124 32.815624L502.09686 32.815624Q502.1906 34.51875 503.0656 35.425Q503.9406 36.33125 505.2375 36.33125Q506.20624 36.33125 506.8781 35.83125Q507.5656 35.315624 507.97186 34.20625ZM502.1906 31.3625L507.9875 31.3625Q507.8781 30.065624 507.33124 29.409374Q506.4875 28.39375 505.14374 28.39375Q503.9406 28.39375 503.1125 29.20625Q502.28436 30.003124 502.1906 31.3625ZM515.70624 35.971874L515.95624 37.534374Q515.22186 37.690624 514.6281 37.690624Q513.675 37.690624 513.14374 37.39375Q512.6281 37.08125 512.40936 36.596874Q512.1906 36.096874 512.1906 34.51875L512.1906 28.55L510.90936 28.55L510.90936 27.175L512.1906 27.175L512.1906 24.6125L513.9406 23.55L513.9406 27.175L515.70624 27.175L515.70624 28.55L513.9406 28.55L513.9406 34.6125Q513.9406 35.3625 514.03436 35.58125Q514.1281 35.784374 514.33124 35.925Q514.55 36.05 514.9406 36.05Q515.22186 36.05 515.70624 35.971874ZM521.70624 35.971874L521.95624 37.534374Q521.22186 37.690624 520.6281 37.690624Q519.675 37.690624 519.14374 37.39375Q518.6281 37.08125 518.40936 36.596874Q518.1906 36.096874 518.1906 34.51875L518.1906 28.55L516.90936 28.55L516.90936 27.175L518.1906 27.175L518.1906 24.6125L519.9406 23.55L519.9406 27.175L521.70624 27.175L521.70624 28.55L519.9406 28.55L519.9406 34.6125Q519.9406 35.3625 520.03436 35.58125Q520.1281 35.784374 520.33124 35.925Q520.55 36.05 520.9406 36.05Q521.22186 36.05 521.70624 35.971874ZM530.97186 34.20625L532.78436 34.440624Q532.3625 36.01875 531.1906 36.909374Q530.03436 37.784374 528.22186 37.784374Q525.95624 37.784374 524.6125 36.39375Q523.28436 34.9875 523.28436 32.45625Q523.28436 29.83125 524.6281 28.39375Q525.97186 26.940624 528.1281 26.940624Q530.20624 26.940624 531.51874 28.3625Q532.84686 29.76875 532.84686 32.346874Q532.84686 32.503124 532.83124 32.815624L525.09686 32.815624Q525.1906 34.51875 526.0656 35.425Q526.9406 36.33125 528.2375 36.33125Q529.20624 36.33125 529.8781 35.83125Q530.5656 35.315624 530.97186 34.20625ZM525.1906 31.3625L530.9875 31.3625Q530.8781 30.065624 530.33124 29.409374Q529.4875 28.39375 528.14374 28.39375Q526.9406 28.39375 526.1125 29.20625Q525.28436 30.003124 525.1906 31.3625ZM534.84686 37.55L534.84686 27.175L536.425 27.175L536.425 28.753124Q537.03436 27.64375 537.55 27.3Q538.0656 26.940624 538.675 26.940624Q539.5656 26.940624 540.4875 27.503124L539.8781 29.14375Q539.2375 28.753124 538.59686 28.753124Q538.01874 28.753124 537.55 29.1125Q537.09686 29.45625 536.89374 30.065624Q536.6125 31.003124 536.6125 32.1125L536.6125 37.55L534.84686 37.55ZM543.01874 41.753124L541.76874 41.753124Q544.675 37.065624 544.675 32.378124Q544.675 30.534374 544.26874 28.7375Q543.925 27.26875 543.33124 25.925Q542.95624 25.034374 541.76874 22.9875L543.01874 22.9875Q544.8625 25.440624 545.7375 27.909374Q546.4875 30.034374 546.4875 32.3625Q546.4875 35.003124 545.47186 37.471874Q544.47186 39.925 543.01874 41.753124Z" fill-rule="nonzero"/></svg>