<svg version="1.1" viewBox="0.0 0.0 600.0 371.0" fill="none" stroke="none" stroke-linecap="square" stroke-miterlimit="10" width="600" height="371" xmlns:xlink="http://www.w3.org/1999/xlink" xmlns="http://www.w3.org/2000/svg"><path fill="#ffffff" d="M0 0L600.0 0L600.0 371.0L0 371.0L0 0Z" fill-rule="nonzero"/><path stroke="#333333" stroke-width="1.0" stroke-linecap="butt" d="M52.5 286.5L581.5 286.5" fill-rule="nonzero"/><path stroke="#cccccc" stroke-width="1.0" stroke-linecap="butt" d="M52.5 236.5L581.5 236.5" fill-rule="nonzero"/><path stroke="#cccccc" stroke-width="1.0" stroke-linecap="butt" d="M52.5 187.5L581.5 187.5" fill-rule="nonzero"/><path stroke="#cccccc" stroke-width="1.0" stroke-linecap="butt" d="M52.5 137.5L581.5 137.5" fill-rule="nonzero"/><path stroke="#cccccc" stroke-width="1.0" stroke-linecap="butt" d="M52.5 88.5L581.5 88.5" fill-rule="nonzero"/><clipPath id="id_0"><path d="M52.55 88.28333L581.45 88.28333L581.45 286.45L52.55 286.45L52.55 88.28333Z" clip-rule="nonzero"/></clipPath><path stroke="#000000" stroke-width="2.0" stroke-linecap="butt" stroke-opacity="0.0" clip-path="url(#id_0)" d="M102.0 286.0L88.0 286.0L88.0 284.5C88.0 283.67157 88.67157 283.0 89.5 283.0L100.5 283.0C101.32843 283.0 102.0 283.67157 102.0 284.5Z" fill-rule="nonzero"/><path fill="#4285f4" clip-path="url(#id_0)" d="M102.0 286.0L88.0 286.0L88.0 284.5C88.0 283.67157 88.67157 283.0 89.5 283.0L100.5 283.0C101.32843 283.0 102.0 283.67157 102.0 284.5Z" fill-rule="nonzero"/><path stroke="#000000" stroke-width="2.0" stroke-linecap="butt" stroke-opacity="0.0" clip-path="url(#id_0)" d="M201.0 286.0L187.0 286.0L187.0 283.0C187.0 281.89542 187.89543 281.0 189.0 281.0L199.0 281.0C200.10457 281.0 201.0 281.89542 201.0 283.0Z" fill-rule="nonzero"/><path fill="#4285f4" clip-path="url(#id_0)" d="M201.0 286.0L187.0 286.0L187.0 283.0C187.0 281.89542 187.89543 281.0 189.0 281.0L199.0 281.0C200.10457 281.0 201.0 281.89542 201.0 283.0Z" fill-rule="nonzero"/><path stroke="#000000" stroke-width="2.0" stroke-linecap="butt" stroke-opacity="0.0" clip-path="url(#id_0)" d="M300.0 286.0L286.0 286.0L286.0 284.0C286.0 282.89542 286.89542 282.0 288.0 282.0L298.0 282.0C299.10458 282.0 300.0 282.89542 300.0 284.0Z" fill-rule="nonzero"/><path fill="#4285f4" clip-path="url(#id_0)" d="M300.0 286.0L286.0 286.0L286.0 284.0C286.0 282.89542 286.89542 282.0 288.0 282.0L298.0 282.0C299.10458 282.0 300.0 282.89542 300.0 284.0Z" fill-rule="nonzero"/><path stroke="#000000" stroke-width="2.0" stroke-linecap="butt" stroke-opacity="0.0" clip-path="url(#id_0)" d="M399.0 286.0L385.0 286.0L385.0 283.0C385.0 281.89542 385.89542 281.0 387.0 281.0L397.0 281.0C398.10458 281.0 399.0 281.89542 399.0 283.0Z" fill-rule="nonzero"/><path fill="#4285f4" clip-path="url(#id_0)" d="M399.0 286.0L385.0 286.0L385.0 283.0C385.0 281.89542 385.89542 281.0 387.0 281.0L397.0 281.0C398.10458 281.0 399.0 281.89542 399.0 283.0Z" fill-rule="nonzero"/><path stroke="#000000" stroke-width="2.0" stroke-linecap="butt" stroke-opacity="0.0" clip-path="url(#id_0)" d="M498.0 286.0L484.0 286.0L484.0 282.0C484.0 280.89542 484.89542 280.0 486.0 280.0L496.0 280.0C497.10458 280.0 498.0 280.89542 498.0 282.0Z" fill-rule="nonzero"/><path fill="#4285f4" clip-path="url(#id_0)" d="M498.0 286.0L484.0 286.0L484.0 282.0C484.0 280.89542 484.89542 280.0 486.0 280.0L496.0 280.0C497.10458 280.0 498.0 280.89542 498.0 282.0Z" fill-rule="nonzero"/><path stroke="#000000" stroke-width="2.0" stroke-linecap="butt" stroke-opacity="0.0" clip-path="url(#id_0)" d="M118.0 286.0L104.0 286.0L104.0 285.0C104.0 284.44772 104.447716 284.0 105.0 284.0L117.0 284.0C117.552284 284.0 118.0 284.44772 118.0 285.0Z" fill-rule="nonzero"/><path fill="#ea4335" clip-path="url(#id_0)" d="M118.0 286.0L104.0 286.0L104.0 285.0C104.0 284.44772 104.447716 284.0 105.0 284.0L117.0 284.0C117.552284 284.0 118.0 284.44772 118.0 285.0Z" fill-rule="nonzero"/><path stroke="#000000" stroke-width="2.0" stroke-linecap="butt" stroke-opacity="0.0" clip-path="url(#id_0)" d="M217.0 286.0L203.0 286.0L203.0 284.0C203.0 282.89542 203.89543 282.0 205.0 282.0L215.0 282.0C216.10457 282.0 217.0 282.89542 217.0 284.0Z" fill-rule="nonzero"/><path fill="#ea4335" clip-path="url(#id_0)" d="M217.0 286.0L203.0 286.0L203.0 284.0C203.0 282.89542 203.89543 282.0 205.0 282.0L215.0 282.0C216.10457 282.0 217.0 282.89542 217.0 284.0Z" fill-rule="nonzero"/><path stroke="#000000" stroke-width="2.0" stroke-linecap="butt" stroke-opacity="0.0" clip-path="url(#id_0)" d="M316.0 286.0L302.0 286.0L302.0 284.0C302.0 282.89542 302.89542 282.0 304.0 282.0L314.0 282.0C315.10458 282.0 316.0 282.89542 316.0 284.0Z" fill-rule="nonzero"/><path fill="#ea4335" clip-path="url(#id_0)" d="M316.0 286.0L302.0 286.0L302.0 284.0C302.0 282.89542 302.89542 282.0 304.0 282.0L314.0 282.0C315.10458 282.0 316.0 282.89542 316.0 284.0Z" fill-rule="nonzero"/><path stroke="#000000" stroke-width="2.0" stroke-linecap="butt" stroke-opacity="0.0" clip-path="url(#id_0)" d="M415.0 286.0L401.0 286.0L401.0 283.0C401.0 281.89542 401.89542 281.0 403.0 281.0L413.0 281.0C414.10458 281.0 415.0 281.89542 415.0 283.0Z" fill-rule="nonzero"/><path fill="#ea4335" clip-path="url(#id_0)" d="M415.0 286.0L401.0 286.0L401.0 283.0C401.0 281.89542 401.89542 281.0 403.0 281.0L413.0 281.0C414.10458 281.0 415.0 281.89542 415.0 283.0Z" fill-rule="nonzero"/><path stroke="#000000" stroke-width="2.0" stroke-linecap="butt" stroke-opacity="0.0" clip-path="url(#id_0)" d="M514.0 286.0L500.0 286.0L500.0 283.0C500.0 281.89542 500.89542 281.0 502.0 281.0L512.0 281.0C513.10455 281.0 514.0 281.89542 514.0 283.0Z" fill-rule="nonzero"/><path fill="#ea4335" clip-path="url(#id_0)" d="M514.0 286.0L500.0 286.0L500.0 283.0C500.0 281.89542 500.89542 281.0 502.0 281.0L512.0 281.0C513.10455 281.0 514.0 281.89542 514.0 283.0Z" fill-rule="nonzero"/><path stroke="#000000" stroke-width="2.0" stroke-linecap="butt" stroke-opacity="0.0" clip-path="url(#id_0)" d="M134.0 286.0L120.0 286.0L120.0 280.0C120.0 278.89542 120.89543 278.0 122.0 278.0L132.0 278.0C133.10457 278.0 134.0 278.89542 134.0 280.0Z" fill-rule="nonzero"/><path fill="#fbbc04" clip-path="url(#id_0)" d="M134.0 286.0L120.0 286.0L120.0 280.0C120.0 278.89542 120.89543 278.0 122.0 278.0L132.0 278.0C133.10457 278.0 134.0 278.89542 134.0 280.0Z" fill-rule="nonzero"/><path stroke="#000000" stroke-width="2.0" stroke-linecap="butt" stroke-opacity="0.0" clip-path="url(#id_0)" d="M233.0 286.0L219.0 286.0L219.0 278.0C219.0 276.89542 219.89543 276.0 221.0 276.0L231.0 276.0C232.10457 276.0 233.0 276.89542 233.0 278.0Z" fill-rule="nonzero"/><path fill="#fbbc04" clip-path="url(#id_0)" d="M233.0 286.0L219.0 286.0L219.0 278.0C219.0 276.89542 219.89543 276.0 221.0 276.0L231.0 276.0C232.10457 276.0 233.0 276.89542 233.0 278.0Z" fill-rule="nonzero"/><path stroke="#000000" stroke-width="2.0" stroke-linecap="butt" stroke-opacity="0.0" clip-path="url(#id_0)" d="M332.0 286.0L318.0 286.0L318.0 279.0C318.0 277.89542 318.89542 277.0 320.0 277.0L330.0 277.0C331.10458 277.0 332.0 277.89542 332.0 279.0Z" fill-rule="nonzero"/><path fill="#fbbc04" clip-path="url(#id_0)" d="M332.0 286.0L318.0 286.0L318.0 279.0C318.0 277.89542 318.89542 277.0 320.0 277.0L330.0 277.0C331.10458 277.0 332.0 277.89542 332.0 279.0Z" fill-rule="nonzero"/><path stroke="#000000" stroke-width="2.0" stroke-linecap="butt" stroke-opacity="0.0" clip-path="url(#id_0)" d="M431.0 286.0L417.0 286.0L417.0 278.0C417.0 276.89542 417.89542 276.0 419.0 276.0L429.0 276.0C430.10458 276.0 431.0 276.89542 431.0 278.0Z" fill-rule="nonzero"/><path fill="#fbbc04" clip-path="url(#id_0)" d="M431.0 286.0L417.0 286.0L417.0 278.0C417.0 276.89542 417.89542 276.0 419.0 276.0L429.0 276.0C430.10458 276.0 431.0 276.89542 431.0 278.0Z" fill-rule="nonzero"/><path stroke="#000000" stroke-width="2.0" stroke-linecap="butt" stroke-opacity="0.0" clip-path="url(#id_0)" d="M530.0 286.0L516.0 286.0L516.0 277.0C516.0 275.89542 516.89545 275.0 518.0 275.0L528.0 275.0C529.10455 275.0 530.0 275.89542 530.0 277.0Z" fill-rule="nonzero"/><path fill="#fbbc04" clip-path="url(#id_0)" d="M530.0 286.0L516.0 286.0L516.0 277.0C516.0 275.89542 516.89545 275.0 518.0 275.0L528.0 275.0C529.10455 275.0 530.0 275.89542 530.0 277.0Z" fill-rule="nonzero"/><path stroke="#000000" stroke-width="2.0" stroke-linecap="butt" stroke-opacity="0.0" clip-path="url(#id_0)" d="M150.0 286.0L136.0 286.0L136.0 280.0C136.0 278.89542 136.89543 278.0 138.0 278.0L148.0 278.0C149.10457 278.0 150.0 278.89542 150.0 280.0Z" fill-rule="nonzero"/><path fill="#34a853" clip-path="url(#id_0)" d="M150.0 286.0L136.0 286.0L136.0 280.0C136.0 278.89542 136.89543 278.0 138.0 278.0L148.0 278.0C149.10457 278.0 150.0 278.89542 150.0 280.0Z" fill-rule="nonzero"/><path stroke="#000000" stroke-width="2.0" stroke-linecap="butt" stroke-opacity="0.0" clip-path="url(#id_0)" d="M249.0 286.0L235.0 286.0L235.0 280.0C235.0 278.89542 235.89543 278.0 237.0 278.0L247.0 278.0C248.10457 278.0 249.0 278.89542 249.0 280.0Z" fill-rule="nonzero"/><path fill="#34a853" clip-path="url(#id_0)" d="M249.0 286.0L235.0 286.0L235.0 280.0C235.0 278.89542 235.89543 278.0 237.0 278.0L247.0 278.0C248.10457 278.0 249.0 278.89542 249.0 280.0Z" fill-rule="nonzero"/><path stroke="#000000" stroke-width="2.0" stroke-linecap="butt" stroke-opacity="0.0" clip-path="url(#id_0)" d="M348.0 286.0L334.0 286.0L334.0 280.0C334.0 278.89542 334.89542 278.0 336.0 278.0L346.0 278.0C347.10458 278.0 348.0 278.89542 348.0 280.0Z" fill-rule="nonzero"/><path fill="#34a853" clip-path="url(#id_0)" d="M348.0 286.0L334.0 286.0L334.0 280.0C334.0 278.89542 334.89542 278.0 336.0 278.0L346.0 278.0C347.10458 278.0 348.0 278.89542 348.0 280.0Z" fill-rule="nonzero"/><path stroke="#000000" stroke-width="2.0" stroke-linecap="butt" stroke-opacity="0.0" clip-path="url(#id_0)" d="M447.0 286.0L433.0 286.0L433.0 280.0C433.0 278.89542 433.89542 278.0 435.0 278.0L445.0 278.0C446.10458 278.0 447.0 278.89542 447.0 280.0Z" fill-rule="nonzero"/><path fill="#34a853" clip-path="url(#id_0)" d="M447.0 286.0L433.0 286.0L433.0 280.0C433.0 278.89542 433.89542 278.0 435.0 278.0L445.0 278.0C446.10458 278.0 447.0 278.89542 447.0 280.0Z" fill-rule="nonzero"/><path stroke="#000000" stroke-width="2.0" stroke-linecap="butt" stroke-opacity="0.0" clip-path="url(#id_0)" d="M546.0 286.0L532.0 286.0L532.0 280.0C532.0 278.89542 532.89545 278.0 534.0 278.0L544.0 278.0C545.10455 278.0 546.0 278.89542 546.0 280.0Z" fill-rule="nonzero"/><path fill="#34a853" clip-path="url(#id_0)" d="M546.0 286.0L532.0 286.0L532.0 280.0C532.0 278.89542 532.89545 278.0 534.0 278.0L544.0 278.0C545.10455 278.0 546.0 278.89542 546.0 280.0Z" fill-rule="nonzero"/><path fill="#000000" d="M40.05 286.21564Q40.05 284.6844 40.3625 283.7625Q40.675 282.825 41.284374 282.325Q41.909374 281.825 42.846874 281.825Q43.534374 281.825 44.05 282.10626Q44.58125 282.3875 44.925 282.91876Q45.26875 283.4344 45.45625 284.1844Q45.64375 284.9344 45.64375 286.21564Q45.64375 287.73126 45.33125 288.65314Q45.034374 289.575 44.409374 290.09064Q43.8 290.59064 42.846874 290.59064Q41.6125 290.59064 40.89375 289.7Q40.05 288.6375 40.05 286.21564ZM41.128124 286.21564Q41.128124 288.325 41.628124 289.02814Q42.128124 289.73126 42.846874 289.73126Q43.58125 289.73126 44.065624 289.02814Q44.565624 288.325 44.565624 286.21564Q44.565624 284.09064 44.065624 283.40314Q43.58125 282.7 42.83125 282.7Q42.1125 282.7 41.675 283.3094Q41.128124 284.09064 41.128124 286.21564Z" fill-rule="nonzero"/><path fill="#000000" d="M31.596874 239.89272L31.596874 240.90834L25.909374 240.90834Q25.909374 240.53334 26.034374 240.17397Q26.253124 239.59584 26.721874 239.03334Q27.20625 238.47084 28.1125 237.73647Q29.51875 236.58022 30.003124 235.90834Q30.503124 235.23647 30.503124 234.64272Q30.503124 234.01772 30.05 233.59584Q29.596874 233.15834 28.878124 233.15834Q28.1125 233.15834 27.659374 233.61147Q27.20625 234.06459 27.190624 234.87709L26.1125 234.76772Q26.221874 233.54897 26.940624 232.92397Q27.675 232.28334 28.909374 232.28334Q30.14375 232.28334 30.8625 232.97084Q31.58125 233.65834 31.58125 234.67397Q31.58125 235.18959 31.3625 235.68959Q31.159374 236.17397 30.659374 236.73647Q30.175 237.28334 29.05 238.23647Q28.096874 239.03334 27.815624 239.33022Q27.55 239.61147 27.378124 239.89272L31.596874 239.89272ZM33.05 238.65834L34.159374 238.56459Q34.284374 239.37709 34.721874 239.78334Q35.175 240.18959 35.815624 240.18959Q36.565624 240.18959 37.096874 239.61147Q37.628124 239.03334 37.628124 238.09584Q37.628124 237.18959 37.1125 236.67397Q36.6125 236.14272 35.784374 236.14272Q35.284374 236.14272 34.8625 236.37709Q34.45625 236.61147 34.221874 236.97084L33.2375 236.84584L34.065624 232.43959L38.346874 232.43959L38.346874 233.43959L34.909374 233.43959L34.45625 235.75209Q35.221874 235.20522 36.065624 235.20522Q37.190624 235.20522 37.95625 235.98647Q38.7375 236.76772 38.7375 238.00209Q38.7375 239.15834 38.065624 240.01772Q37.2375 241.04897 35.815624 241.04897Q34.64375 241.04897 33.89375 240.39272Q33.159374 239.73647 33.05 238.65834ZM40.05 236.67397Q40.05 235.14272 40.3625 234.22084Q40.675 233.28334 41.284374 232.78334Q41.909374 232.28334 42.846874 232.28334Q43.534374 232.28334 44.05 232.56459Q44.58125 232.84584 44.925 233.37709Q45.26875 233.89272 45.45625 234.64272Q45.64375 235.39272 45.64375 236.67397Q45.64375 238.18959 45.33125 239.11147Q45.034374 240.03334 44.409374 240.54897Q43.8 241.04897 42.846874 241.04897Q41.6125 241.04897 40.89375 240.15834Q40.05 239.09584 40.05 236.67397ZM41.128124 236.67397Q41.128124 238.78334 41.628124 239.48647Q42.128124 240.18959 42.846874 240.18959Q43.58125 240.18959 44.065624 239.48647Q44.565624 238.78334 44.565624 236.67397Q44.565624 234.54897 44.065624 233.86147Q43.58125 233.15834 42.83125 233.15834Q42.1125 233.15834 41.675 233.76772Q41.128124 234.54897 41.128124 236.67397Z" fill-rule="nonzero"/><path fill="#000000" d="M26.05 189.11667L27.159374 189.02292Q27.284374 189.83542 27.721874 190.24167Q28.175 190.64792 28.815624 190.64792Q29.565624 190.64792 30.096874 190.0698Q30.628124 189.49167 30.628124 188.55417Q30.628124 187.64792 30.1125 187.1323Q29.6125 186.60104 28.784374 186.60104Q28.284374 186.60104 27.8625 186.83542Q27.45625 187.0698 27.221874 187.42917L26.2375 187.30417L27.065624 182.89792L31.346874 182.89792L31.346874 183.89792L27.909374 183.89792L27.45625 186.21042Q28.221874 185.66354 29.065624 185.66354Q30.190624 185.66354 30.95625 186.4448Q31.7375 187.22604 31.7375 188.46042Q31.7375 189.61667 31.065624 190.47604Q30.2375 191.5073 28.815624 191.5073Q27.64375 191.5073 26.89375 190.85104Q26.159374 190.1948 26.05 189.11667ZM33.05 187.1323Q33.05 185.60104 33.3625 184.67917Q33.675 183.74167 34.284374 183.24167Q34.909374 182.74167 35.846874 182.74167Q36.534374 182.74167 37.05 183.02292Q37.58125 183.30417 37.925 183.83542Q38.26875 184.35104 38.45625 185.10104Q38.64375 185.85104 38.64375 187.1323Q38.64375 188.64792 38.33125 189.5698Q38.034374 190.49167 37.409374 191.0073Q36.8 191.5073 35.846874 191.5073Q34.6125 191.5073 33.89375 190.61667Q33.05 189.55417 33.05 187.1323ZM34.128124 187.1323Q34.128124 189.24167 34.628124 189.9448Q35.128124 190.64792 35.846874 190.64792Q36.58125 190.64792 37.065624 189.9448Q37.565624 189.24167 37.565624 187.1323Q37.565624 185.0073 37.065624 184.3198Q36.58125 183.61667 35.83125 183.61667Q35.1125 183.61667 34.675 184.22604Q34.128124 185.0073 34.128124 187.1323ZM40.05 187.1323Q40.05 185.60104 40.3625 184.67917Q40.675 183.74167 41.284374 183.24167Q41.909374 182.74167 42.846874 182.74167Q43.534374 182.74167 44.05 183.02292Q44.58125 183.30417 44.925 183.83542Q45.26875 184.35104 45.45625 185.10104Q45.64375 185.85104 45.64375 187.1323Q45.64375 188.64792 45.33125 189.5698Q45.034374 190.49167 44.409374 191.0073Q43.8 191.5073 42.846874 191.5073Q41.6125 191.5073 40.89375 190.61667Q40.05 189.55417 40.05 187.1323ZM41.128124 187.1323Q41.128124 189.24167 41.628124 189.9448Q42.128124 190.64792 42.846874 190.64792Q43.58125 190.64792 44.065624 189.9448Q44.565624 189.24167 44.565624 187.1323Q44.565624 185.0073 44.065624 184.3198Q43.58125 183.61667 42.83125 183.61667Q42.1125 183.61667 41.675 184.22604Q41.128124 185.0073 41.128124 187.1323Z" fill-rule="nonzero"/><path fill="#000000" d="M26.1125 134.35625L26.1125 133.34062L31.675 133.34062L31.675 134.16875Q30.8625 135.04375 30.05 136.49687Q29.253124 137.93437 28.815624 139.46562Q28.4875 140.54375 28.409374 141.825L27.315624 141.825Q27.33125 140.80937 27.70625 139.37187Q28.096874 137.93437 28.8 136.60625Q29.51875 135.27812 30.33125 134.35625L26.1125 134.35625ZM33.05 139.575L34.159374 139.48125Q34.284374 140.29375 34.721874 140.7Q35.175 141.10625 35.815624 141.10625Q36.565624 141.10625 37.096874 140.52812Q37.628124 139.95 37.628124 139.0125Q37.628124 138.10625 37.1125 137.59062Q36.6125 137.05937 35.784374 137.05937Q35.284374 137.05937 34.8625 137.29375Q34.45625 137.52812 34.221874 137.8875L33.2375 137.7625L34.065624 133.35625L38.346874 133.35625L38.346874 134.35625L34.909374 134.35625L34.45625 136.66875Q35.221874 136.12187 36.065624 136.12187Q37.190624 136.12187 37.95625 136.90312Q38.7375 137.68437 38.7375 138.91875Q38.7375 140.075 38.065624 140.93437Q37.2375 141.96562 35.815624 141.96562Q34.64375 141.96562 33.89375 141.30937Q33.159374 140.65312 33.05 139.575ZM40.05 137.59062Q40.05 136.05937 40.3625 135.1375Q40.675 134.2 41.284374 133.7Q41.909374 133.2 42.846874 133.2Q43.534374 133.2 44.05 133.48125Q44.58125 133.7625 44.925 134.29375Q45.26875 134.80937 45.45625 135.55937Q45.64375 136.30937 45.64375 137.59062Q45.64375 139.10625 45.33125 140.02812Q45.034374 140.95 44.409374 141.46562Q43.8 141.96562 42.846874 141.96562Q41.6125 141.96562 40.89375 141.075Q40.05 140.0125 40.05 137.59062ZM41.128124 137.59062Q41.128124 139.7 41.628124 140.40312Q42.128124 141.10625 42.846874 141.10625Q43.58125 141.10625 44.065624 140.40312Q44.565624 139.7 44.565624 137.59062Q44.565624 135.46562 44.065624 134.77812Q43.58125 134.075 42.83125 134.075Q42.1125 134.075 41.675 134.68437Q41.128124 135.46562 41.128124 137.59062Z" fill-rule="nonzero"/><path fill="#000000" d="M23.01875 92.28333L21.971874 92.28333L21.971874 85.56458Q21.58125 85.92396 20.95625 86.29896Q20.346874 86.65833 19.8625 86.83021L19.8625 85.81458Q20.7375 85.39271 21.39375 84.81458Q22.065624 84.22083 22.346874 83.65833L23.01875 83.65833L23.01875 92.28333ZM26.05 88.04896Q26.05 86.51771 26.3625 85.59583Q26.675 84.65833 27.284374 84.15833Q27.909374 83.65833 28.846874 83.65833Q29.534374 83.65833 30.05 83.93958Q30.58125 84.22083 30.925 84.75208Q31.26875 85.26771 31.45625 86.01771Q31.64375 86.76771 31.64375 88.04896Q31.64375 89.56458 31.33125 90.48646Q31.034374 91.40833 30.409374 91.92396Q29.8 92.42396 28.846874 92.42396Q27.6125 92.42396 26.89375 91.53333Q26.05 90.47083 26.05 88.04896ZM27.128124 88.04896Q27.128124 90.15833 27.628124 90.86146Q28.128124 91.56458 28.846874 91.56458Q29.58125 91.56458 30.065624 90.86146Q30.565624 90.15833 30.565624 88.04896Q30.565624 85.92396 30.065624 85.23646Q29.58125 84.53333 28.83125 84.53333Q28.1125 84.53333 27.675 85.14271Q27.128124 85.92396 27.128124 88.04896ZM33.05 88.04896Q33.05 86.51771 33.3625 85.59583Q33.675 84.65833 34.284374 84.15833Q34.909374 83.65833 35.846874 83.65833Q36.534374 83.65833 37.05 83.93958Q37.58125 84.22083 37.925 84.75208Q38.26875 85.26771 38.45625 86.01771Q38.64375 86.76771 38.64375 88.04896Q38.64375 89.56458 38.33125 90.48646Q38.034374 91.40833 37.409374 91.92396Q36.8 92.42396 35.846874 92.42396Q34.6125 92.42396 33.89375 91.53333Q33.05 90.47083 33.05 88.04896ZM34.128124 88.04896Q34.128124 90.15833 34.628124 90.86146Q35.128124 91.56458 35.846874 91.56458Q36.58125 91.56458 37.065624 90.86146Q37.565624 90.15833 37.565624 88.04896Q37.565624 85.92396 37.065624 85.23646Q36.58125 84.53333 35.83125 84.53333Q35.1125 84.53333 34.675 85.14271Q34.128124 85.92396 34.128124 88.04896ZM40.05 88.04896Q40.05 86.51771 40.3625 85.59583Q40.675 84.65833 41.284374 84.15833Q41.909374 83.65833 42.846874 83.65833Q43.534374 83.65833 44.05 83.93958Q44.58125 84.22083 44.925 84.75208Q45.26875 85.26771 45.45625 86.01771Q45.64375 86.76771 45.64375 88.04896Q45.64375 89.56458 45.33125 90.48646Q45.034374 91.40833 44.409374 91.92396Q43.8 92.42396 42.846874 92.42396Q41.6125 92.42396 40.89375 91.53333Q40.05 90.47083 40.05 88.04896ZM41.128124 88.04896Q41.128124 90.15833 41.628124 90.86146Q42.128124 91.56458 42.846874 91.56458Q43.58125 91.56458 44.065624 90.86146Q44.565624 90.15833 44.565624 88.04896Q44.565624 85.92396 44.065624 85.23646Q43.58125 84.53333 42.83125 84.53333Q42.1125 84.53333 41.675 85.14271Q41.128124 85.92396 41.128124 88.04896Z" fill-rule="nonzero"/><path fill="#000000" d="M110.171 303.45L110.171 294.85626L111.88975 294.85626L113.921 300.9344Q114.20225 301.79376 114.32725 302.21564Q114.46787 301.7469 114.78037 300.84064L116.84287 294.85626L118.37412 294.85626L118.37412 303.45L117.28037 303.45L117.28037 296.2625L114.78037 303.45L113.74912 303.45L111.26475 296.1375L111.26475 303.45L110.171 303.45ZM120.07725 296.075L120.07725 294.85626L121.13975 294.85626L121.13975 296.075L120.07725 296.075ZM120.07725 303.45L120.07725 297.23126L121.13975 297.23126L121.13975 303.45L120.07725 303.45ZM123.07725 303.45L123.07725 297.23126L124.01475 297.23126L124.01475 298.10626Q124.70225 297.09064 125.99912 297.09064Q126.56162 297.09064 127.03037 297.29376Q127.51475 297.4969 127.74912 297.825Q127.9835 298.15314 128.07724 298.59064Q128.12411 298.8875 128.12411 299.6219L128.12411 303.45L127.07725 303.45L127.07725 299.66876Q127.07725 299.0125 126.95225 298.7Q126.82725 298.3875 126.51475 298.2Q126.20225 297.9969 125.78037 297.9969Q125.1085 297.9969 124.6085 298.4344Q124.12412 298.85626 124.12412 300.04376L124.12412 303.45L123.07725 303.45Z" fill-rule="nonzero"/><path fill="#000000" d="M203.5308 303.45L203.5308 294.85626L205.24956 294.85626L207.2808 300.9344Q207.56206 301.79376 207.68706 302.21564Q207.82768 301.7469 208.14018 300.84064L210.20268 294.85626L211.73393 294.85626L211.73393 303.45L210.64018 303.45L210.64018 296.2625L208.14018 303.45L207.10893 303.45L204.62456 296.1375L204.62456 303.45L203.5308 303.45ZM217.68706 301.45L218.7808 301.575Q218.5308 302.52814 217.82768 303.0594Q217.12456 303.59064 216.04643 303.59064Q214.68706 303.59064 213.87456 302.7469Q213.07768 301.90314 213.07768 300.3875Q213.07768 298.825 213.89018 297.96564Q214.70268 297.09064 215.98393 297.09064Q217.23393 297.09064 218.01518 297.9344Q218.81206 298.77814 218.81206 300.325Q218.81206 300.41876 218.81206 300.60626L214.17143 300.60626Q214.23393 301.6375 214.74956 302.1844Q215.26518 302.71564 216.04643 302.71564Q216.62456 302.71564 217.0308 302.41876Q217.45268 302.10626 217.68706 301.45ZM214.23393 299.7469L217.70268 299.7469Q217.64018 298.95 217.31206 298.5594Q216.79643 297.95 215.99956 297.95Q215.26518 297.95 214.76518 298.4344Q214.2808 298.91876 214.23393 299.7469ZM224.49956 302.6844Q223.9058 303.1844 223.35893 303.3875Q222.82768 303.59064 222.20268 303.59064Q221.17143 303.59064 220.62456 303.09064Q220.07768 302.59064 220.07768 301.8094Q220.07768 301.35626 220.2808 300.98126Q220.48393 300.59064 220.82768 300.3719Q221.17143 300.1375 221.5933 300.02814Q221.89018 299.9344 222.5308 299.85626Q223.79643 299.71564 224.4058 299.4969Q224.4058 299.27814 224.4058 299.23126Q224.4058 298.575 224.10893 298.3094Q223.70268 297.96564 222.9058 297.96564Q222.17143 297.96564 221.81206 298.23126Q221.45268 298.48126 221.2808 299.1375L220.24956 298.9969Q220.39018 298.34064 220.7183 297.9344Q221.04643 297.52814 221.6558 297.3094Q222.26518 297.09064 223.06206 297.09064Q223.85893 297.09064 224.35893 297.27814Q224.85893 297.46564 225.0933 297.7469Q225.32768 298.02814 225.42143 298.46564Q225.4683 298.73126 225.4683 299.4344L225.4683 300.84064Q225.4683 302.3094 225.5308 302.7Q225.60893 303.09064 225.81206 303.45L224.70268 303.45Q224.54643 303.1219 224.49956 302.6844ZM224.4058 300.325Q223.82768 300.5594 222.68706 300.73126Q222.0308 300.825 221.76518 300.95Q221.49956 301.0594 221.3433 301.27814Q221.20268 301.4969 221.20268 301.77814Q221.20268 302.2 221.51518 302.48126Q221.8433 302.7625 222.45268 302.7625Q223.06206 302.7625 223.5308 302.4969Q224.01518 302.23126 224.23393 301.7625Q224.4058 301.40314 224.4058 300.71564L224.4058 300.325ZM227.43706 303.45L227.43706 297.23126L228.37456 297.23126L228.37456 298.10626Q229.06206 297.09064 230.35893 297.09064Q230.92143 297.09064 231.39018 297.29376Q231.87456 297.4969 232.10893 297.825Q232.3433 298.15314 232.43706 298.59064Q232.48393 298.8875 232.48393 299.6219L232.48393 303.45L231.43706 303.45L231.43706 299.66876Q231.43706 299.0125 231.31206 298.7Q231.18706 298.3875 230.87456 298.2Q230.56206 297.9969 230.14018 297.9969Q229.4683 297.9969 228.9683 298.4344Q228.48393 298.85626 228.48393 300.04376L228.48393 303.45L227.43706 303.45Z" fill-rule="nonzero"/><path fill="#000000" d="M307.29688 305.84064L307.29688 297.23126L308.25 297.23126L308.25 298.02814Q308.59375 297.5594 309.01562 297.325Q309.45312 297.09064 310.0625 297.09064Q310.85938 297.09064 311.46875 297.4969Q312.07812 297.90314 312.375 298.65314Q312.6875 299.40314 312.6875 300.29376Q312.6875 301.2469 312.34375 302.0125Q312.01562 302.77814 311.35938 303.1844Q310.70312 303.59064 309.98438 303.59064Q309.45312 303.59064 309.03125 303.3719Q308.60938 303.1375 308.34375 302.8094L308.34375 305.84064L307.29688 305.84064ZM308.25 300.3719Q308.25 301.575 308.73438 302.15314Q309.21875 302.71564 309.90625 302.71564Q310.60938 302.71564 311.10938 302.1219Q311.60938 301.52814 311.60938 300.27814Q311.60938 299.09064 311.125 298.5125Q310.64062 297.91876 309.95312 297.91876Q309.28125 297.91876 308.76562 298.54376Q308.25 299.16876 308.25 300.3719ZM314.0 301.2L315.10938 301.10626Q315.23438 301.91876 315.67188 302.325Q316.125 302.73126 316.76562 302.73126Q317.51562 302.73126 318.04688 302.15314Q318.57812 301.575 318.57812 300.6375Q318.57812 299.73126 318.0625 299.21564Q317.5625 298.6844 316.73438 298.6844Q316.23438 298.6844 315.8125 298.91876Q315.40625 299.15314 315.17188 299.5125L314.1875 299.3875L315.01562 294.98126L319.29688 294.98126L319.29688 295.98126L315.85938 295.98126L315.40625 298.29376Q316.17188 297.7469 317.01562 297.7469Q318.14062 297.7469 318.90625 298.52814Q319.6875 299.3094 319.6875 300.54376Q319.6875 301.7 319.01562 302.5594Q318.1875 303.59064 316.76562 303.59064Q315.59375 303.59064 314.84375 302.9344Q314.10938 302.27814 314.0 301.2ZM321.0 299.21564Q321.0 297.6844 321.3125 296.7625Q321.625 295.825 322.23438 295.325Q322.85938 294.825 323.79688 294.825Q324.48438 294.825 325.0 295.10626Q325.53125 295.3875 325.875 295.91876Q326.21875 296.4344 326.40625 297.1844Q326.59375 297.9344 326.59375 299.21564Q326.59375 300.73126 326.28125 301.65314Q325.98438 302.575 325.35938 303.09064Q324.75 303.59064 323.79688 303.59064Q322.5625 303.59064 321.84375 302.7Q321.0 301.6375 321.0 299.21564ZM322.07812 299.21564Q322.07812 301.325 322.57812 302.02814Q323.07812 302.73126 323.79688 302.73126Q324.53125 302.73126 325.01562 302.02814Q325.51562 301.325 325.51562 299.21564Q325.51562 297.09064 325.01562 296.40314Q324.53125 295.7 323.78125 295.7Q323.0625 295.7 322.625 296.3094Q322.07812 297.09064 322.07812 299.21564Z" fill-rule="nonzero"/><path fill="#000000" d="M406.15668 305.84064L406.15668 297.23126L407.1098 297.23126L407.1098 298.02814Q407.45355 297.5594 407.87543 297.325Q408.31293 297.09064 408.9223 297.09064Q409.71918 297.09064 410.32855 297.4969Q410.93793 297.90314 411.2348 298.65314Q411.5473 299.40314 411.5473 300.29376Q411.5473 301.2469 411.20355 302.0125Q410.87543 302.77814 410.21918 303.1844Q409.56293 303.59064 408.84418 303.59064Q408.31293 303.59064 407.89105 303.3719Q407.46918 303.1375 407.20355 302.8094L407.20355 305.84064L406.15668 305.84064ZM407.1098 300.3719Q407.1098 301.575 407.59418 302.15314Q408.07855 302.71564 408.76605 302.71564Q409.46918 302.71564 409.96918 302.1219Q410.46918 301.52814 410.46918 300.27814Q410.46918 299.09064 409.9848 298.5125Q409.50043 297.91876 408.81293 297.91876Q408.14105 297.91876 407.62543 298.54376Q407.1098 299.16876 407.1098 300.3719ZM413.01605 301.46564L414.03168 301.3719Q414.15668 302.09064 414.51605 302.41876Q414.89105 302.73126 415.45355 302.73126Q415.93793 302.73126 416.2973 302.5125Q416.6723 302.27814 416.90668 301.91876Q417.14105 301.54376 417.2973 300.91876Q417.45355 300.27814 417.45355 299.6219Q417.45355 299.54376 417.45355 299.40314Q417.14105 299.90314 416.59418 300.23126Q416.0473 300.54376 415.40668 300.54376Q414.32855 300.54376 413.59418 299.77814Q412.8598 298.9969 412.8598 297.73126Q412.8598 296.41876 413.62543 295.6219Q414.40668 294.825 415.56293 294.825Q416.39105 294.825 417.07855 295.27814Q417.78168 295.73126 418.14105 296.575Q418.50043 297.40314 418.50043 298.98126Q418.50043 300.6219 418.14105 301.60626Q417.7973 302.575 417.07855 303.09064Q416.37543 303.59064 415.43793 303.59064Q414.4223 303.59064 413.78168 303.04376Q413.14105 302.48126 413.01605 301.46564ZM417.32855 297.66876Q417.32855 296.7625 416.84418 296.23126Q416.37543 295.7 415.68793 295.7Q414.9848 295.7 414.45355 296.27814Q413.93793 296.84064 413.93793 297.7625Q413.93793 298.575 414.43793 299.09064Q414.93793 299.60626 415.65668 299.60626Q416.39105 299.60626 416.8598 299.09064Q417.32855 298.575 417.32855 297.66876ZM419.8598 299.21564Q419.8598 297.6844 420.1723 296.7625Q420.4848 295.825 421.09418 295.325Q421.71918 294.825 422.65668 294.825Q423.34418 294.825 423.8598 295.10626Q424.39105 295.3875 424.7348 295.91876Q425.07855 296.4344 425.26605 297.1844Q425.45355 297.9344 425.45355 299.21564Q425.45355 300.73126 425.14105 301.65314Q424.84418 302.575 424.21918 303.09064Q423.6098 303.59064 422.65668 303.59064Q421.4223 303.59064 420.70355 302.7Q419.8598 301.6375 419.8598 299.21564ZM420.93793 299.21564Q420.93793 301.325 421.43793 302.02814Q421.93793 302.73126 422.65668 302.73126Q423.39105 302.73126 423.87543 302.02814Q424.37543 301.325 424.37543 299.21564Q424.37543 297.09064 423.87543 296.40314Q423.39105 295.7 422.64105 295.7Q421.9223 295.7 421.4848 296.3094Q420.93793 297.09064 420.93793 299.21564Z" fill-rule="nonzero"/><path fill="#000000" d="M505.0165 305.84064L505.0165 297.23126L505.96964 297.23126L505.96964 298.02814Q506.3134 297.5594 506.73526 297.325Q507.17276 297.09064 507.78214 297.09064Q508.579 297.09064 509.1884 297.4969Q509.79776 297.90314 510.09464 298.65314Q510.40714 299.40314 510.40714 300.29376Q510.40714 301.2469 510.0634 302.0125Q509.73526 302.77814 509.079 303.1844Q508.42276 303.59064 507.704 303.59064Q507.17276 303.59064 506.7509 303.3719Q506.329 303.1375 506.0634 302.8094L506.0634 305.84064L505.0165 305.84064ZM505.96964 300.3719Q505.96964 301.575 506.454 302.15314Q506.9384 302.71564 507.6259 302.71564Q508.329 302.71564 508.829 302.1219Q509.329 301.52814 509.329 300.27814Q509.329 299.09064 508.84464 298.5125Q508.36026 297.91876 507.67276 297.91876Q507.0009 297.91876 506.48526 298.54376Q505.96964 299.16876 505.96964 300.3719ZM511.8759 301.46564L512.8915 301.3719Q513.0165 302.09064 513.37585 302.41876Q513.75085 302.73126 514.31335 302.73126Q514.7977 302.73126 515.1571 302.5125Q515.5321 302.27814 515.7665 301.91876Q516.00085 301.54376 516.1571 300.91876Q516.31335 300.27814 516.31335 299.6219Q516.31335 299.54376 516.31335 299.40314Q516.00085 299.90314 515.454 300.23126Q514.9071 300.54376 514.2665 300.54376Q513.18835 300.54376 512.454 299.77814Q511.71964 298.9969 511.71964 297.73126Q511.71964 296.41876 512.4852 295.6219Q513.2665 294.825 514.4227 294.825Q515.25085 294.825 515.93835 295.27814Q516.6415 295.73126 517.00085 296.575Q517.3602 297.40314 517.3602 298.98126Q517.3602 300.6219 517.00085 301.60626Q516.6571 302.575 515.93835 303.09064Q515.2352 303.59064 514.2977 303.59064Q513.2821 303.59064 512.6415 303.04376Q512.00085 302.48126 511.8759 301.46564ZM516.18835 297.66876Q516.18835 296.7625 515.704 296.23126Q515.2352 295.7 514.5477 295.7Q513.8446 295.7 513.31335 296.27814Q512.7977 296.84064 512.7977 297.7625Q512.7977 298.575 513.2977 299.09064Q513.7977 299.60626 514.5165 299.60626Q515.25085 299.60626 515.7196 299.09064Q516.18835 298.575 516.18835 297.66876ZM518.7196 301.2L519.829 301.10626Q519.954 301.91876 520.3915 302.325Q520.8446 302.73126 521.4852 302.73126Q522.2352 302.73126 522.7665 302.15314Q523.2977 301.575 523.2977 300.6375Q523.2977 299.73126 522.7821 299.21564Q522.2821 298.6844 521.454 298.6844Q520.954 298.6844 520.5321 298.91876Q520.12585 299.15314 519.8915 299.5125L518.9071 299.3875L519.7352 294.98126L524.0165 294.98126L524.0165 295.98126L520.579 295.98126L520.12585 298.29376Q520.8915 297.7469 521.7352 297.7469Q522.8602 297.7469 523.62585 298.52814Q524.4071 299.3094 524.4071 300.54376Q524.4071 301.7 523.7352 302.5594Q522.9071 303.59064 521.4852 303.59064Q520.31335 303.59064 519.56335 302.9344Q518.829 302.27814 518.7196 301.2Z" fill-rule="nonzero"/><path fill="#4285f4" d="M127.0 56.916668C127.0 56.364384 127.447716 55.916668 128.0 55.916668L138.0 55.916668C138.55229 55.916668 139.0 56.364384 139.0 56.916668L139.0 66.916664C139.0 67.46895 138.55229 67.916664 138.0 67.916664L128.0 67.916664C127.447716 67.916664 127.0 67.46895 127.0 66.916664Z" fill-rule="nonzero"/><path fill="#1a1a1a" d="M147.96875 65.916664L147.96875 57.322914L149.09375 57.322914L149.09375 60.854164L153.5625 60.854164L153.5625 57.322914L154.70312 57.322914L154.70312 65.916664L153.5625 65.916664L153.5625 61.86979L149.09375 61.86979L149.09375 65.916664L147.96875 65.916664ZM160.875 65.916664L160.875 64.99479Q160.14062 66.05729 158.89062 66.05729Q158.34375 66.05729 157.85938 65.854164Q157.39062 65.635414 157.15625 65.322914Q156.92188 64.99479 156.82812 64.52604Q156.76562 64.229164 156.76562 63.541664L156.76562 59.697914L157.82812 59.697914L157.82812 63.15104Q157.82812 63.96354 157.89062 64.260414Q157.98438 64.666664 158.29688 64.916664Q158.625 65.15104 159.10938 65.15104Q159.57812 65.15104 159.98438 64.916664Q160.40625 64.666664 160.57812 64.24479Q160.76562 63.822914 160.76562 63.02604L160.76562 59.697914L161.8125 59.697914L161.8125 65.916664L160.875 65.916664ZM163.59375 66.43229L164.625 66.58854Q164.6875 67.05729 164.98438 67.27604Q165.375 67.572914 166.04688 67.572914Q166.78125 67.572914 167.17188 67.27604Q167.57812 66.979164 167.71875 66.46354Q167.8125 66.135414 167.79688 65.104164Q167.10938 65.916664 166.07812 65.916664Q164.79688 65.916664 164.09375 64.99479Q163.39062 64.05729 163.39062 62.77604Q163.39062 61.885414 163.70312 61.135414Q164.03125 60.36979 164.64062 59.96354Q165.25 59.55729 166.07812 59.55729Q167.1875 59.55729 167.90625 60.447914L167.90625 59.697914L168.875 59.697914L168.875 65.072914Q168.875 66.52604 168.57812 67.135414Q168.28125 67.74479 167.64062 68.08854Q167.0 68.447914 166.0625 68.447914Q164.95312 68.447914 164.26562 67.947914Q163.57812 67.447914 163.59375 66.43229ZM164.46875 62.697914Q164.46875 63.916664 164.95312 64.479164Q165.4375 65.041664 166.17188 65.041664Q166.90625 65.041664 167.39062 64.479164Q167.89062 63.916664 167.89062 62.729164Q167.89062 61.58854 167.375 61.010414Q166.875 60.43229 166.15625 60.43229Q165.45312 60.43229 164.95312 61.010414Q164.46875 61.572914 164.46875 62.697914ZM170.40625 62.80729Q170.40625 61.072914 171.35938 60.24479Q172.15625 59.55729 173.3125 59.55729Q174.59375 59.55729 175.40625 60.40104Q176.23438 61.229164 176.23438 62.71354Q176.23438 63.916664 175.875 64.604164Q175.51562 65.291664 174.8125 65.68229Q174.125 66.05729 173.3125 66.05729Q172.01562 66.05729 171.20312 65.229164Q170.40625 64.385414 170.40625 62.80729ZM171.48438 62.80729Q171.48438 63.99479 172.0 64.58854Q172.53125 65.18229 173.3125 65.18229Q174.10938 65.18229 174.625 64.58854Q175.14062 63.99479 175.14062 62.77604Q175.14062 61.61979 174.60938 61.02604Q174.09375 60.43229 173.3125 60.43229Q172.53125 60.43229 172.0 61.02604Q171.48438 61.604164 171.48438 62.80729ZM183.0 64.52604L183.0 62.166664L180.67188 62.166664L180.67188 61.18229L183.0 61.18229L183.0 58.854164L184.0 58.854164L184.0 61.18229L186.34375 61.18229L186.34375 62.166664L184.0 62.166664L184.0 64.52604L183.0 64.52604ZM197.0625 62.90104L198.1875 63.197914Q197.82812 64.58854 196.90625 65.322914Q195.98438 66.05729 194.64062 66.05729Q193.25 66.05729 192.375 65.49479Q191.5 64.93229 191.04688 63.86979Q190.59375 62.791664 190.59375 61.55729Q190.59375 60.21354 191.10938 59.21354Q191.625 58.21354 192.5625 57.697914Q193.51562 57.18229 194.65625 57.18229Q195.9375 57.18229 196.8125 57.83854Q197.70312 58.49479 198.04688 59.68229L196.92188 59.947914Q196.625 59.010414 196.04688 58.58854Q195.48438 58.15104 194.625 58.15104Q193.64062 58.15104 192.96875 58.635414Q192.3125 59.104164 192.03125 59.90104Q191.76562 60.697914 191.76562 61.55729Q191.76562 62.65104 192.07812 63.46354Q192.40625 64.27604 193.07812 64.68229Q193.75 65.08854 194.54688 65.08854Q195.5 65.08854 196.15625 64.541664Q196.82812 63.99479 197.0625 62.90104ZM199.92188 65.916664L199.92188 57.322914L202.89062 57.322914Q203.89062 57.322914 204.42188 57.447914Q205.15625 57.61979 205.67188 58.05729Q206.35938 58.635414 206.6875 59.541664Q207.03125 60.43229 207.03125 61.572914Q207.03125 62.55729 206.79688 63.30729Q206.57812 64.05729 206.21875 64.55729Q205.85938 65.05729 205.42188 65.33854Q205.0 65.61979 204.40625 65.77604Q203.8125 65.916664 203.03125 65.916664L199.92188 65.916664ZM201.0625 64.90104L202.89062 64.90104Q203.75 64.90104 204.23438 64.74479Q204.71875 64.58854 205.0 64.291664Q205.40625 63.90104 205.625 63.21354Q205.85938 62.52604 205.85938 61.55729Q205.85938 60.21354 205.40625 59.49479Q204.96875 58.760414 204.34375 58.510414Q203.875 58.33854 202.875 58.33854L201.0625 58.33854L201.0625 64.90104ZM208.92188 65.916664L208.92188 57.322914L210.07812 57.322914L214.59375 64.072914L214.59375 57.322914L215.6875 57.322914L215.6875 65.916664L214.51562 65.916664L210.0 59.166664L210.0 65.916664L208.92188 65.916664Z" fill-rule="nonzero"/><path fill="#ea4335" d="M233.0 56.916668C233.0 56.364384 233.44771 55.916668 234.0 55.916668L244.0 55.916668C244.55229 55.916668 245.0 56.364384 245.0 56.916668L245.0 66.916664C245.0 67.46895 244.55229 67.916664 244.0 67.916664L234.0 67.916664C233.44771 67.916664 233.0 67.46895 233.0 66.916664Z" fill-rule="nonzero"/><path fill="#1a1a1a" d="M253.92188 65.916664L253.92188 57.322914L255.07812 57.322914L259.59375 64.072914L259.59375 57.322914L260.6875 57.322914L260.6875 65.916664L259.51562 65.916664L255.0 59.166664L255.0 65.916664L253.92188 65.916664ZM267.04688 63.916664L268.14062 64.041664Q267.89062 64.99479 267.1875 65.52604Q266.48438 66.05729 265.40625 66.05729Q264.04688 66.05729 263.23438 65.21354Q262.4375 64.36979 262.4375 62.854164Q262.4375 61.291664 263.25 60.43229Q264.0625 59.55729 265.34375 59.55729Q266.59375 59.55729 267.375 60.40104Q268.17188 61.24479 268.17188 62.791664Q268.17188 62.885414 268.17188 63.072914L263.53125 63.072914Q263.59375 64.104164 264.10938 64.65104Q264.625 65.18229 265.40625 65.18229Q265.98438 65.18229 266.39062 64.885414Q266.8125 64.572914 267.04688 63.916664ZM263.59375 62.21354L267.0625 62.21354Q267.0 61.416664 266.67188 61.02604Q266.15625 60.416664 265.35938 60.416664Q264.625 60.416664 264.125 60.90104Q263.64062 61.385414 263.59375 62.21354ZM269.09375 65.916664L271.35938 62.68229L269.26562 59.697914L270.57812 59.697914L271.53125 61.15104Q271.79688 61.572914 271.96875 61.854164Q272.21875 61.46354 272.4375 61.166664L273.48438 59.697914L274.75 59.697914L272.59375 62.61979L274.90625 65.916664L273.625 65.916664L272.34375 63.979164L272.0 63.46354L270.35938 65.916664L269.09375 65.916664ZM278.09375 64.979164L278.25 65.90104Q277.79688 65.99479 277.45312 65.99479Q276.875 65.99479 276.5625 65.822914Q276.25 65.635414 276.10938 65.33854Q275.98438 65.041664 275.98438 64.08854L275.98438 60.510414L275.21875 60.510414L275.21875 59.697914L275.98438 59.697914L275.98438 58.15104L277.03125 57.52604L277.03125 59.697914L278.09375 59.697914L278.09375 60.510414L277.03125 60.510414L277.03125 64.15104Q277.03125 64.604164 277.07812 64.729164Q277.14062 64.854164 277.26562 64.93229Q277.39062 65.010414 277.625 65.010414Q277.8125 65.010414 278.09375 64.979164ZM278.34375 63.479164L279.375 63.33854Q279.40625 64.322914 279.73438 64.68229Q280.0625 65.041664 280.65625 65.041664Q281.07812 65.041664 281.39062 64.854164Q281.70312 64.65104 281.8125 64.322914Q281.9375 63.979164 281.9375 63.24479L281.9375 57.322914L283.0625 57.322914L283.0625 63.18229Q283.0625 64.260414 282.79688 64.854164Q282.54688 65.447914 281.98438 65.760414Q281.42188 66.05729 280.65625 66.05729Q279.53125 66.05729 278.92188 65.416664Q278.32812 64.760414 278.34375 63.479164ZM284.54688 63.15104L285.60938 63.05729Q285.6875 63.71354 285.96875 64.11979Q286.25 64.52604 286.82812 64.791664Q287.42188 65.041664 288.15625 65.041664Q288.79688 65.041664 289.29688 64.854164Q289.79688 64.65104 290.03125 64.322914Q290.28125 63.979164 290.28125 63.58854Q290.28125 63.18229 290.04688 62.885414Q289.8125 62.572914 289.28125 62.36979Q288.92188 62.229164 287.73438 61.947914Q286.5625 61.666664 286.09375 61.416664Q285.46875 61.08854 285.17188 60.61979Q284.875 60.135414 284.875 59.541664Q284.875 58.90104 285.23438 58.33854Q285.60938 57.760414 286.3125 57.479164Q287.03125 57.18229 287.89062 57.18229Q288.84375 57.18229 289.57812 57.49479Q290.3125 57.791664 290.70312 58.40104Q291.09375 58.99479 291.125 59.74479L290.03125 59.822914Q289.9375 59.010414 289.42188 58.604164Q288.92188 58.18229 287.9375 58.18229Q286.90625 58.18229 286.4375 58.55729Q285.96875 58.93229 285.96875 59.46354Q285.96875 59.93229 286.29688 60.229164Q286.625 60.52604 288.0 60.83854Q289.39062 61.15104 289.90625 61.385414Q290.65625 61.74479 291.01562 62.27604Q291.375 62.791664 291.375 63.49479Q291.375 64.18229 290.98438 64.791664Q290.59375 65.385414 289.85938 65.729164Q289.125 66.05729 288.20312 66.05729Q287.03125 66.05729 286.23438 65.729164Q285.45312 65.385414 285.0 64.697914Q284.5625 64.010414 284.54688 63.15104ZM298.0 64.52604L298.0 62.166664L295.67188 62.166664L295.67188 61.18229L298.0 61.18229L298.0 58.854164L299.0 58.854164L299.0 61.18229L301.34375 61.18229L301.34375 62.166664L299.0 62.166664L299.0 64.52604L298.0 64.52604ZM312.0625 62.90104L313.1875 63.197914Q312.82812 64.58854 311.90625 65.322914Q310.98438 66.05729 309.64062 66.05729Q308.25 66.05729 307.375 65.49479Q306.5 64.93229 306.04688 63.86979Q305.59375 62.791664 305.59375 61.55729Q305.59375 60.21354 306.10938 59.21354Q306.625 58.21354 307.5625 57.697914Q308.51562 57.18229 309.65625 57.18229Q310.9375 57.18229 311.8125 57.83854Q312.70312 58.49479 313.04688 59.68229L311.92188 59.947914Q311.625 59.010414 311.04688 58.58854Q310.48438 58.15104 309.625 58.15104Q308.64062 58.15104 307.96875 58.635414Q307.3125 59.104164 307.03125 59.90104Q306.76562 60.697914 306.76562 61.55729Q306.76562 62.65104 307.07812 63.46354Q307.40625 64.27604 308.07812 64.68229Q308.75 65.08854 309.54688 65.08854Q310.5 65.08854 311.15625 64.541664Q311.82812 63.99479 312.0625 62.90104ZM314.92188 65.916664L314.92188 57.322914L317.89062 57.322914Q318.89062 57.322914 319.42188 57.447914Q320.15625 57.61979 320.67188 58.05729Q321.35938 58.635414 321.6875 59.541664Q322.03125 60.43229 322.03125 61.572914Q322.03125 62.55729 321.79688 63.30729Q321.57812 64.05729 321.21875 64.55729Q320.85938 65.05729 320.42188 65.33854Q320.0 65.61979 319.40625 65.77604Q318.8125 65.916664 318.03125 65.916664L314.92188 65.916664ZM316.0625 64.90104L317.89062 64.90104Q318.75 64.90104 319.23438 64.74479Q319.71875 64.58854 320.0 64.291664Q320.40625 63.90104 320.625 63.21354Q320.85938 62.52604 320.85938 61.55729Q320.85938 60.21354 320.40625 59.49479Q319.96875 58.760414 319.34375 58.510414Q318.875 58.33854 317.875 58.33854L316.0625 58.33854L316.0625 64.90104ZM323.92188 65.916664L323.92188 57.322914L325.07812 57.322914L329.59375 64.072914L329.59375 57.322914L330.6875 57.322914L330.6875 65.916664L329.51562 65.916664L325.0 59.166664L325.0 65.916664L323.92188 65.916664Z" fill-rule="nonzero"/><path fill="#fbbc04" d="M348.0 56.916668C348.0 56.364384 348.44772 55.916668 349.0 55.916668L359.0 55.916668C359.55228 55.916668 360.0 56.364384 360.0 56.916668L360.0 66.916664C360.0 67.46895 359.55228 67.916664 359.0 67.916664L349.0 67.916664C348.44772 67.916664 348.0 67.46895 348.0 66.916664Z" fill-rule="nonzero"/><path fill="#1a1a1a" d="M368.96875 65.916664L368.96875 57.322914L370.09375 57.322914L370.09375 60.854164L374.5625 60.854164L374.5625 57.322914L375.70312 57.322914L375.70312 65.916664L374.5625 65.916664L374.5625 61.86979L370.09375 61.86979L370.09375 65.916664L368.96875 65.916664ZM381.875 65.916664L381.875 64.99479Q381.14062 66.05729 379.89062 66.05729Q379.34375 66.05729 378.85938 65.854164Q378.39062 65.635414 378.15625 65.322914Q377.92188 64.99479 377.82812 64.52604Q377.76562 64.229164 377.76562 63.541664L377.76562 59.697914L378.82812 59.697914L378.82812 63.15104Q378.82812 63.96354 378.89062 64.260414Q378.98438 64.666664 379.29688 64.916664Q379.625 65.15104 380.10938 65.15104Q380.57812 65.15104 380.98438 64.916664Q381.40625 64.666664 381.57812 64.24479Q381.76562 63.822914 381.76562 63.02604L381.76562 59.697914L382.8125 59.697914L382.8125 65.916664L381.875 65.916664ZM384.59375 66.43229L385.625 66.58854Q385.6875 67.05729 385.98438 67.27604Q386.375 67.572914 387.04688 67.572914Q387.78125 67.572914 388.17188 67.27604Q388.57812 66.979164 388.71875 66.46354Q388.8125 66.135414 388.79688 65.104164Q388.10938 65.916664 387.07812 65.916664Q385.79688 65.916664 385.09375 64.99479Q384.39062 64.05729 384.39062 62.77604Q384.39062 61.885414 384.70312 61.135414Q385.03125 60.36979 385.64062 59.96354Q386.25 59.55729 387.07812 59.55729Q388.1875 59.55729 388.90625 60.447914L388.90625 59.697914L389.875 59.697914L389.875 65.072914Q389.875 66.52604 389.57812 67.135414Q389.28125 67.74479 388.64062 68.08854Q388.0 68.447914 387.0625 68.447914Q385.95312 68.447914 385.26562 67.947914Q384.57812 67.447914 384.59375 66.43229ZM385.46875 62.697914Q385.46875 63.916664 385.95312 64.479164Q386.4375 65.041664 387.17188 65.041664Q387.90625 65.041664 388.39062 64.479164Q388.89062 63.916664 388.89062 62.729164Q388.89062 61.58854 388.375 61.010414Q387.875 60.43229 387.15625 60.43229Q386.45312 60.43229 385.95312 61.010414Q385.46875 61.572914 385.46875 62.697914ZM391.40625 62.80729Q391.40625 61.072914 392.35938 60.24479Q393.15625 59.55729 394.3125 59.55729Q395.59375 59.55729 396.40625 60.40104Q397.23438 61.229164 397.23438 62.71354Q397.23438 63.916664 396.875 64.604164Q396.51562 65.291664 395.8125 65.68229Q395.125 66.05729 394.3125 66.05729Q393.01562 66.05729 392.20312 65.229164Q391.40625 64.385414 391.40625 62.80729ZM392.48438 62.80729Q392.48438 63.99479 393.0 64.58854Q393.53125 65.18229 394.3125 65.18229Q395.10938 65.18229 395.625 64.58854Q396.14062 63.99479 396.14062 62.77604Q396.14062 61.61979 395.60938 61.02604Q395.09375 60.43229 394.3125 60.43229Q393.53125 60.43229 393.0 61.02604Q392.48438 61.604164 392.48438 62.80729Z" fill-rule="nonzero"/><path fill="#34a853" d="M414.0 56.916668C414.0 56.364384 414.44772 55.916668 415.0 55.916668L425.0 55.916668C425.55228 55.916668 426.0 56.364384 426.0 56.916668L426.0 66.916664C426.0 67.46895 425.55228 67.916664 425.0 67.916664L415.0 67.916664C414.44772 67.916664 414.0 67.46895 414.0 66.916664Z" fill-rule="nonzero"/><path fill="#1a1a1a" d="M434.92188 65.916664L434.92188 57.322914L436.07812 57.322914L440.59375 64.072914L440.59375 57.322914L441.6875 57.322914L441.6875 65.916664L440.51562 65.916664L436.0 59.166664L436.0 65.916664L434.92188 65.916664ZM448.04688 63.916664L449.14062 64.041664Q448.89062 64.99479 448.1875 65.52604Q447.48438 66.05729 446.40625 66.05729Q445.04688 66.05729 444.23438 65.21354Q443.4375 64.36979 443.4375 62.854164Q443.4375 61.291664 444.25 60.43229Q445.0625 59.55729 446.34375 59.55729Q447.59375 59.55729 448.375 60.40104Q449.17188 61.24479 449.17188 62.791664Q449.17188 62.885414 449.17188 63.072914L444.53125 63.072914Q444.59375 64.104164 445.10938 64.65104Q445.625 65.18229 446.40625 65.18229Q446.98438 65.18229 447.39062 64.885414Q447.8125 64.572914 448.04688 63.916664ZM444.59375 62.21354L448.0625 62.21354Q448.0 61.416664 447.67188 61.02604Q447.15625 60.416664 446.35938 60.416664Q445.625 60.416664 445.125 60.90104Q444.64062 61.385414 444.59375 62.21354ZM450.09375 65.916664L452.35938 62.68229L450.26562 59.697914L451.57812 59.697914L452.53125 61.15104Q452.79688 61.572914 452.96875 61.854164Q453.21875 61.46354 453.4375 61.166664L454.48438 59.697914L455.75 59.697914L453.59375 62.61979L455.90625 65.916664L454.625 65.916664L453.34375 63.979164L453.0 63.46354L451.35938 65.916664L450.09375 65.916664ZM459.09375 64.979164L459.25 65.90104Q458.79688 65.99479 458.45312 65.99479Q457.875 65.99479 457.5625 65.822914Q457.25 65.635414 457.10938 65.33854Q456.98438 65.041664 456.98438 64.08854L456.98438 60.510414L456.21875 60.510414L456.21875 59.697914L456.98438 59.697914L456.98438 58.15104L458.03125 57.52604L458.03125 59.697914L459.09375 59.697914L459.09375 60.510414L458.03125 60.510414L458.03125 64.15104Q458.03125 64.604164 458.07812 64.729164Q458.14062 64.854164 458.26562 64.93229Q458.39062 65.010414 458.625 65.010414Q458.8125 65.010414 459.09375 64.979164ZM459.34375 63.479164L460.375 63.33854Q460.40625 64.322914 460.73438 64.68229Q461.0625 65.041664 461.65625 65.041664Q462.07812 65.041664 462.39062 64.854164Q462.70312 64.65104 462.8125 64.322914Q462.9375 63.979164 462.9375 63.24479L462.9375 57.322914L464.0625 57.322914L464.0625 63.18229Q464.0625 64.260414 463.79688 64.854164Q463.54688 65.447914 462.98438 65.760414Q462.42188 66.05729 461.65625 66.05729Q460.53125 66.05729 459.92188 65.416664Q459.32812 64.760414 459.34375 63.479164ZM465.54688 63.15104L466.60938 63.05729Q466.6875 63.71354 466.96875 64.11979Q467.25 64.52604 467.82812 64.791664Q468.42188 65.041664 469.15625 65.041664Q469.79688 65.041664 470.29688 64.854164Q470.79688 64.65104 471.03125 64.322914Q471.28125 63.979164 471.28125 63.58854Q471.28125 63.18229 471.04688 62.885414Q470.8125 62.572914 470.28125 62.36979Q469.92188 62.229164 468.73438 61.947914Q467.5625 61.666664 467.09375 61.416664Q466.46875 61.08854 466.17188 60.61979Q465.875 60.135414 465.875 59.541664Q465.875 58.90104 466.23438 58.33854Q466.60938 57.760414 467.3125 57.479164Q468.03125 57.18229 468.89062 57.18229Q469.84375 57.18229 470.57812 57.49479Q471.3125 57.791664 471.70312 58.40104Q472.09375 58.99479 472.125 59.74479L471.03125 59.822914Q470.9375 59.010414 470.42188 58.604164Q469.92188 58.18229 468.9375 58.18229Q467.90625 58.18229 467.4375 58.55729Q466.96875 58.93229 466.96875 59.46354Q466.96875 59.93229 467.29688 60.229164Q467.625 60.52604 469.0 60.83854Q470.39062 61.15104 470.90625 61.385414Q471.65625 61.74479 472.01562 62.27604Q472.375 62.791664 472.375 63.49479Q472.375 64.18229 471.98438 64.791664Q471.59375 65.385414 470.85938 65.729164Q470.125 66.05729 469.20312 66.05729Q468.03125 66.05729 467.23438 65.729164Q466.45312 65.385414 466.0 64.697914Q465.5625 64.010414 465.54688 63.15104Z" fill-rule="nonzero"/><path fill="#757575" d="M19.45625 32.95625L21.2375 32.8Q21.3625 33.8625 21.815624 34.55Q22.284374 35.2375 23.253124 35.675Q24.2375 36.096874 25.471874 36.096874Q26.55 36.096874 27.378124 35.784374Q28.20625 35.45625 28.6125 34.89375Q29.01875 34.33125 29.01875 33.659374Q29.01875 32.9875 28.628124 32.4875Q28.2375 31.9875 27.346874 31.64375Q26.76875 31.409374 24.784374 30.940624Q22.815624 30.471874 22.034374 30.05Q21.003124 29.51875 20.503124 28.721874Q20.003124 27.925 20.003124 26.940624Q20.003124 25.846874 20.6125 24.909374Q21.221874 23.971874 22.409374 23.4875Q23.596874 22.9875 25.034374 22.9875Q26.628124 22.9875 27.846874 23.503124Q29.065624 24.01875 29.70625 25.01875Q30.3625 26.003124 30.409374 27.26875L28.596874 27.409374Q28.45625 26.05 27.6125 25.3625Q26.76875 24.659374 25.1125 24.659374Q23.39375 24.659374 22.596874 25.3Q21.815624 25.925 21.815624 26.8Q21.815624 27.58125 22.378124 28.08125Q22.925 28.58125 25.2375 29.096874Q27.55 29.6125 28.409374 30.003124Q29.659374 30.58125 30.253124 31.471874Q30.846874 32.346874 30.846874 33.503124Q30.846874 34.64375 30.190624 35.659374Q29.534374 36.675 28.3 37.2375Q27.08125 37.8 25.55 37.8Q23.6125 37.8 22.3 37.2375Q20.9875 36.659374 20.2375 35.51875Q19.4875 34.378124 19.45625 32.95625ZM32.878124 25.253124L32.878124 23.2375L34.64375 23.2375L34.64375 25.253124L32.878124 25.253124ZM32.878124 37.55L32.878124 27.175L34.64375 27.175L34.64375 37.55L32.878124 37.55ZM36.8625 37.55L36.8625 27.175L38.45625 27.175L38.45625 28.659374Q39.596874 26.940624 41.753124 26.940624Q42.690624 26.940624 43.471874 27.284374Q44.26875 27.6125 44.659374 28.159374Q45.05 28.70625 45.20625 29.45625Q45.3 29.95625 45.3 31.175L45.3 37.55L43.534374 37.55L43.534374 31.2375Q43.534374 30.159374 43.33125 29.628124Q43.128124 29.096874 42.596874 28.784374Q42.08125 28.471874 41.378124 28.471874Q40.253124 28.471874 39.440624 29.190624Q38.628124 29.89375 38.628124 31.878124L38.628124 37.55L36.8625 37.55ZM47.55 38.409374L49.253124 38.659374Q49.3625 39.45625 49.846874 39.815624Q50.503124 40.3 51.64375 40.3Q52.8625 40.3 53.51875 39.815624Q54.190624 39.33125 54.425 38.45625Q54.565624 37.909374 54.55 36.190624Q53.39375 37.55 51.675 37.55Q49.534374 37.55 48.3625 36.003124Q47.190624 34.45625 47.190624 32.3Q47.190624 30.815624 47.721874 29.565624Q48.26875 28.315624 49.284374 27.628124Q50.315624 26.940624 51.690624 26.940624Q53.51875 26.940624 54.721874 28.425L54.721874 27.175L56.33125 27.175L56.33125 36.14375Q56.33125 38.565624 55.83125 39.565624Q55.346874 40.58125 54.26875 41.159374Q53.20625 41.753124 51.64375 41.753124Q49.8 41.753124 48.64375 40.925Q47.503124 40.096874 47.55 38.409374ZM49.003124 32.175Q49.003124 34.221874 49.815624 35.159374Q50.628124 36.096874 51.846874 36.096874Q53.05 36.096874 53.8625 35.159374Q54.690624 34.221874 54.690624 32.2375Q54.690624 30.33125 53.846874 29.3625Q53.003124 28.39375 51.815624 28.39375Q50.64375 28.39375 49.815624 29.346874Q49.003124 30.3 49.003124 32.175ZM65.64375 36.26875Q64.65938 37.096874 63.753124 37.440624Q62.846874 37.784374 61.815624 37.784374Q60.1125 37.784374 59.190624 36.95625Q58.26875 36.1125 58.26875 34.815624Q58.26875 34.05 58.6125 33.425Q58.971874 32.8 59.534374 32.425Q60.096874 32.034374 60.8 31.83125Q61.315624 31.70625 62.3625 31.565624Q64.4875 31.315624 65.4875 30.971874Q65.50313 30.6125 65.50313 30.503124Q65.50313 29.440624 65.00313 28.9875Q64.33125 28.39375 63.003124 28.39375Q61.753124 28.39375 61.159374 28.83125Q60.58125 29.26875 60.3 30.378124L58.58125 30.14375Q58.815624 29.034374 59.346874 28.3625Q59.878124 27.675 60.89375 27.315624Q61.909374 26.940624 63.253124 26.940624Q64.58125 26.940624 65.40938 27.253124Q66.2375 27.565624 66.62813 28.05Q67.01875 28.51875 67.175 29.2375Q67.26875 29.690624 67.26875 30.8625L67.26875 33.20625Q67.26875 35.659374 67.37813 36.315624Q67.4875 36.95625 67.83125 37.55L65.9875 37.55Q65.72188 37.003124 65.64375 36.26875ZM65.4875 32.346874Q64.53438 32.7375 62.6125 33.003124Q61.534374 33.159374 61.08125 33.3625Q60.64375 33.55 60.39375 33.925Q60.14375 34.3 60.14375 34.76875Q60.14375 35.471874 60.675 35.940624Q61.20625 36.409374 62.2375 36.409374Q63.253124 36.409374 64.03438 35.971874Q64.83125 35.51875 65.20625 34.753124Q65.4875 34.14375 65.4875 32.9875L65.4875 32.346874ZM69.8625 41.51875L69.8625 27.175L71.47188 27.175L71.47188 28.51875Q72.03438 27.7375 72.7375 27.346874Q73.45625 26.940624 74.47188 26.940624Q75.8 26.940624 76.81563 27.628124Q77.83125 28.315624 78.34688 29.565624Q78.87813 30.8 78.87813 32.284374Q78.87813 33.878124 78.3 35.159374Q77.7375 36.425 76.64375 37.1125Q75.55 37.784374 74.34688 37.784374Q73.47188 37.784374 72.76875 37.409374Q72.08125 37.034374 71.62813 36.471874L71.62813 41.51875L69.8625 41.51875ZM71.45625 32.425Q71.45625 34.425 72.26875 35.378124Q73.08125 36.33125 74.2375 36.33125Q75.40938 36.33125 76.2375 35.346874Q77.08125 34.3625 77.08125 32.26875Q77.08125 30.3 76.25313 29.315624Q75.44063 28.315624 74.31563 28.315624Q73.19063 28.315624 72.31563 29.378124Q71.45625 30.425 71.45625 32.425ZM80.22188 32.3625Q80.22188 29.4875 81.81563 28.096874Q83.15938 26.940624 85.08125 26.940624Q87.22188 26.940624 88.56563 28.346874Q89.925 29.753124 89.925 32.221874Q89.925 34.221874 89.33125 35.378124Q88.7375 36.51875 87.58125 37.159374Q86.44063 37.784374 85.08125 37.784374Q82.89375 37.784374 81.55 36.39375Q80.22188 34.9875 80.22188 32.3625ZM82.01875 32.3625Q82.01875 34.3625 82.87813 35.346874Q83.75313 36.33125 85.08125 36.33125Q86.39375 36.33125 87.25313 35.346874Q88.12813 34.346874 88.12813 32.3Q88.12813 30.378124 87.25313 29.39375Q86.37813 28.39375 85.08125 28.39375Q83.75313 28.39375 82.87813 29.39375Q82.01875 30.378124 82.01875 32.3625ZM91.84688 37.55L91.84688 27.175L93.425 27.175L93.425 28.753124Q94.03438 27.64375 94.55 27.3Q95.06563 26.940624 95.675 26.940624Q96.56563 26.940624 97.4875 27.503124L96.87813 29.14375Q96.2375 28.753124 95.59688 28.753124Q95.01875 28.753124 94.55 29.1125Q94.09688 29.45625 93.89375 30.065624Q93.6125 31.003124 93.6125 32.1125L93.6125 37.55L91.84688 37.55ZM105.97188 34.20625L107.78438 34.440624Q107.3625 36.01875 106.19063 36.909374Q105.03438 37.784374 103.22188 37.784374Q100.95625 37.784374 99.6125 36.39375Q98.28438 34.9875 98.28438 32.45625Q98.28438 29.83125 99.62813 28.39375Q100.97188 26.940624 103.12813 26.940624Q105.20625 26.940624 106.51875 28.3625Q107.84688 29.76875 107.84688 32.346874Q107.84688 32.503124 107.83125 32.815624L100.09688 32.815624Q100.19063 34.51875 101.06563 35.425Q101.94063 36.33125 103.2375 36.33125Q104.20625 36.33125 104.87813 35.83125Q105.56563 35.315624 105.97188 34.20625ZM100.19063 31.3625L105.9875 31.3625Q105.87813 30.065624 105.33125 29.409374Q104.4875 28.39375 103.14375 28.39375Q101.94063 28.39375 101.1125 29.20625Q100.28438 30.003124 100.19063 31.3625Z" fill-rule="nonzero"/></svg>