<svg version="1.1" viewBox="0.0 0.0 600.0 371.0" fill="none" stroke="none" stroke-linecap="square" stroke-miterlimit="10" width="600" height="371" xmlns:xlink="http://www.w3.org/1999/xlink" xmlns="http://www.w3.org/2000/svg"><path fill="#ffffff" d="M0 0L600.0 0L600.0 371.0L0 371.0L0 0Z" fill-rule="nonzero"/><path stroke="#333333" stroke-width="1.0" stroke-linecap="butt" d="M52.5 332.5L581.5 332.5" fill-rule="nonzero"/><path stroke="#cccccc" stroke-width="1.0" stroke-linecap="butt" d="M52.5 271.5L581.5 271.5" fill-rule="nonzero"/><path stroke="#cccccc" stroke-width="1.0" stroke-linecap="butt" d="M52.5 210.5L581.5 210.5" fill-rule="nonzero"/><path stroke="#cccccc" stroke-width="1.0" stroke-linecap="butt" d="M52.5 149.5L581.5 149.5" fill-rule="nonzero"/><path stroke="#cccccc" stroke-width="1.0" stroke-linecap="butt" d="M52.5 88.5L581.5 88.5" fill-rule="nonzero"/><clipPath id="id_0"><path d="M52.55 88.28333L581.45 88.28333L581.45 332.45L52.55 332.45L52.55 88.28333Z" clip-rule="nonzero"/></clipPath><path stroke="#000000" stroke-width="2.0" stroke-linecap="butt" stroke-opacity="0.0" clip-path="url(#id_0)" d="M102.0 332.0L88.0 332.0L88.0 330.5C88.0 329.67157 88.67157 329.0 89.5 329.0L100.5 329.0C101.32843 329.0 102.0 329.67157 102.0 330.5Z" fill-rule="nonzero"/><path fill="#4285f4" clip-path="url(#id_0)" d="M102.0 332.0L88.0 332.0L88.0 330.5C88.0 329.67157 88.67157 329.0 89.5 329.0L100.5 329.0C101.32843 329.0 102.0 329.67157 102.0 330.5Z" fill-rule="nonzero"/><path stroke="#000000" stroke-width="2.0" stroke-linecap="butt" stroke-opacity="0.0" clip-path="url(#id_0)" d="M201.0 332.0L187.0 332.0L187.0 326.0C187.0 324.89542 187.89543 324.0 189.0 324.0L199.0 324.0C200.10457 324.0 201.0 324.89542 201.0 326.0Z" fill-rule="nonzero"/><path fill="#4285f4" clip-path="url(#id_0)" d="M201.0 332.0L187.0 332.0L187.0 326.0C187.0 324.89542 187.89543 324.0 189.0 324.0L199.0 324.0C200.10457 324.0 201.0 324.89542 201.0 326.0Z" fill-rule="nonzero"/><path stroke="#000000" stroke-width="2.0" stroke-linecap="butt" stroke-opacity="0.0" clip-path="url(#id_0)" d="M300.0 332.0L286.0 332.0L286.0 328.0C286.0 326.89542 286.89542 326.0 288.0 326.0L298.0 326.0C299.10458 326.0 300.0 326.89542 300.0 328.0Z" fill-rule="nonzero"/><path fill="#4285f4" clip-path="url(#id_0)" d="M300.0 332.0L286.0 332.0L286.0 328.0C286.0 326.89542 286.89542 326.0 288.0 326.0L298.0 326.0C299.10458 326.0 300.0 326.89542 300.0 328.0Z" fill-rule="nonzero"/><path stroke="#000000" stroke-width="2.0" stroke-linecap="butt" stroke-opacity="0.0" clip-path="url(#id_0)" d="M399.0 332.0L385.0 332.0L385.0 325.0C385.0 323.89542 385.89542 323.0 387.0 323.0L397.0 323.0C398.10458 323.0 399.0 323.89542 399.0 325.0Z" fill-rule="nonzero"/><path fill="#4285f4" clip-path="url(#id_0)" d="M399.0 332.0L385.0 332.0L385.0 325.0C385.0 323.89542 385.89542 323.0 387.0 323.0L397.0 323.0C398.10458 323.0 399.0 323.89542 399.0 325.0Z" fill-rule="nonzero"/><path stroke="#000000" stroke-width="2.0" stroke-linecap="butt" stroke-opacity="0.0" clip-path="url(#id_0)" d="M498.0 332.0L484.0 332.0L484.0 323.0C484.0 321.89542 484.89542 321.0 486.0 321.0L496.0 321.0C497.10458 321.0 498.0 321.89542 498.0 323.0Z" fill-rule="nonzero"/><path fill="#4285f4" clip-path="url(#id_0)" d="M498.0 332.0L484.0 332.0L484.0 323.0C484.0 321.89542 484.89542 321.0 486.0 321.0L496.0 321.0C497.10458 321.0 498.0 321.89542 498.0 323.0Z" fill-rule="nonzero"/><path stroke="#000000" stroke-width="2.0" stroke-linecap="butt" stroke-opacity="0.0" clip-path="url(#id_0)" d="M118.0 332.0L104.0 332.0L104.0 330.0C104.0 328.89542 104.89543 328.0 106.0 328.0L116.0 328.0C117.10457 328.0 118.0 328.89542 118.0 330.0Z" fill-rule="nonzero"/><path fill="#ea4335" clip-path="url(#id_0)" d="M118.0 332.0L104.0 332.0L104.0 330.0C104.0 328.89542 104.89543 328.0 106.0 328.0L116.0 328.0C117.10457 328.0 118.0 328.89542 118.0 330.0Z" fill-rule="nonzero"/><path stroke="#000000" stroke-width="2.0" stroke-linecap="butt" stroke-opacity="0.0" clip-path="url(#id_0)" d="M217.0 332.0L203.0 332.0L203.0 325.0C203.0 323.89542 203.89543 323.0 205.0 323.0L215.0 323.0C216.10457 323.0 217.0 323.89542 217.0 325.0Z" fill-rule="nonzero"/><path fill="#ea4335" clip-path="url(#id_0)" d="M217.0 332.0L203.0 332.0L203.0 325.0C203.0 323.89542 203.89543 323.0 205.0 323.0L215.0 323.0C216.10457 323.0 217.0 323.89542 217.0 325.0Z" fill-rule="nonzero"/><path stroke="#000000" stroke-width="2.0" stroke-linecap="butt" stroke-opacity="0.0" clip-path="url(#id_0)" d="M316.0 332.0L302.0 332.0L302.0 327.0C302.0 325.89542 302.89542 325.0 304.0 325.0L314.0 325.0C315.10458 325.0 316.0 325.89542 316.0 327.0Z" fill-rule="nonzero"/><path fill="#ea4335" clip-path="url(#id_0)" d="M316.0 332.0L302.0 332.0L302.0 327.0C302.0 325.89542 302.89542 325.0 304.0 325.0L314.0 325.0C315.10458 325.0 316.0 325.89542 316.0 327.0Z" fill-rule="nonzero"/><path stroke="#000000" stroke-width="2.0" stroke-linecap="butt" stroke-opacity="0.0" clip-path="url(#id_0)" d="M415.0 332.0L401.0 332.0L401.0 324.0C401.0 322.89542 401.89542 322.0 403.0 322.0L413.0 322.0C414.10458 322.0 415.0 322.89542 415.0 324.0Z" fill-rule="nonzero"/><path fill="#ea4335" clip-path="url(#id_0)" d="M415.0 332.0L401.0 332.0L401.0 324.0C401.0 322.89542 401.89542 322.0 403.0 322.0L413.0 322.0C414.10458 322.0 415.0 322.89542 415.0 324.0Z" fill-rule="nonzero"/><path stroke="#000000" stroke-width="2.0" stroke-linecap="butt" stroke-opacity="0.0" clip-path="url(#id_0)" d="M514.0 332.0L500.0 332.0L500.0 322.0C500.0 320.89542 500.89542 320.0 502.0 320.0L512.0 320.0C513.10455 320.0 514.0 320.89542 514.0 322.0Z" fill-rule="nonzero"/><path fill="#ea4335" clip-path="url(#id_0)" d="M514.0 332.0L500.0 332.0L500.0 322.0C500.0 320.89542 500.89542 320.0 502.0 320.0L512.0 320.0C513.10455 320.0 514.0 320.89542 514.0 322.0Z" fill-rule="nonzero"/><path stroke="#000000" stroke-width="2.0" stroke-linecap="butt" stroke-opacity="0.0" clip-path="url(#id_0)" d="M134.0 332.0L120.0 332.0L120.0 301.0C120.0 299.89542 120.89543 299.0 122.0 299.0L132.0 299.0C133.10457 299.0 134.0 299.89542 134.0 301.0Z" fill-rule="nonzero"/><path fill="#fbbc04" clip-path="url(#id_0)" d="M134.0 332.0L120.0 332.0L120.0 301.0C120.0 299.89542 120.89543 299.0 122.0 299.0L132.0 299.0C133.10457 299.0 134.0 299.89542 134.0 301.0Z" fill-rule="nonzero"/><path stroke="#000000" stroke-width="2.0" stroke-linecap="butt" stroke-opacity="0.0" clip-path="url(#id_0)" d="M233.0 332.0L219.0 332.0L219.0 296.0C219.0 294.89542 219.89543 294.0 221.0 294.0L231.0 294.0C232.10457 294.0 233.0 294.89542 233.0 296.0Z" fill-rule="nonzero"/><path fill="#fbbc04" clip-path="url(#id_0)" d="M233.0 332.0L219.0 332.0L219.0 296.0C219.0 294.89542 219.89543 294.0 221.0 294.0L231.0 294.0C232.10457 294.0 233.0 294.89542 233.0 296.0Z" fill-rule="nonzero"/><path stroke="#000000" stroke-width="2.0" stroke-linecap="butt" stroke-opacity="0.0" clip-path="url(#id_0)" d="M332.0 332.0L318.0 332.0L318.0 299.0C318.0 297.89542 318.89542 297.0 320.0 297.0L330.0 297.0C331.10458 297.0 332.0 297.89542 332.0 299.0Z" fill-rule="nonzero"/><path fill="#fbbc04" clip-path="url(#id_0)" d="M332.0 332.0L318.0 332.0L318.0 299.0C318.0 297.89542 318.89542 297.0 320.0 297.0L330.0 297.0C331.10458 297.0 332.0 297.89542 332.0 299.0Z" fill-rule="nonzero"/><path stroke="#000000" stroke-width="2.0" stroke-linecap="butt" stroke-opacity="0.0" clip-path="url(#id_0)" d="M431.0 332.0L417.0 332.0L417.0 296.0C417.0 294.89542 417.89542 294.0 419.0 294.0L429.0 294.0C430.10458 294.0 431.0 294.89542 431.0 296.0Z" fill-rule="nonzero"/><path fill="#fbbc04" clip-path="url(#id_0)" d="M431.0 332.0L417.0 332.0L417.0 296.0C417.0 294.89542 417.89542 294.0 419.0 294.0L429.0 294.0C430.10458 294.0 431.0 294.89542 431.0 296.0Z" fill-rule="nonzero"/><path stroke="#000000" stroke-width="2.0" stroke-linecap="butt" stroke-opacity="0.0" clip-path="url(#id_0)" d="M530.0 332.0L516.0 332.0L516.0 291.0C516.0 289.89542 516.89545 289.0 518.0 289.0L528.0 289.0C529.10455 289.0 530.0 289.89542 530.0 291.0Z" fill-rule="nonzero"/><path fill="#fbbc04" clip-path="url(#id_0)" d="M530.0 332.0L516.0 332.0L516.0 291.0C516.0 289.89542 516.89545 289.0 518.0 289.0L528.0 289.0C529.10455 289.0 530.0 289.89542 530.0 291.0Z" fill-rule="nonzero"/><path stroke="#000000" stroke-width="2.0" stroke-linecap="butt" stroke-opacity="0.0" clip-path="url(#id_0)" d="M150.0 332.0L136.0 332.0L136.0 327.0C136.0 325.89542 136.89543 325.0 138.0 325.0L148.0 325.0C149.10457 325.0 150.0 325.89542 150.0 327.0Z" fill-rule="nonzero"/><path fill="#34a853" clip-path="url(#id_0)" d="M150.0 332.0L136.0 332.0L136.0 327.0C136.0 325.89542 136.89543 325.0 138.0 325.0L148.0 325.0C149.10457 325.0 150.0 325.89542 150.0 327.0Z" fill-rule="nonzero"/><path stroke="#000000" stroke-width="2.0" stroke-linecap="butt" stroke-opacity="0.0" clip-path="url(#id_0)" d="M249.0 332.0L235.0 332.0L235.0 271.0C235.0 269.89542 235.89543 269.0 237.0 269.0L247.0 269.0C248.10457 269.0 249.0 269.89542 249.0 271.0Z" fill-rule="nonzero"/><path fill="#34a853" clip-path="url(#id_0)" d="M249.0 332.0L235.0 332.0L235.0 271.0C235.0 269.89542 235.89543 269.0 237.0 269.0L247.0 269.0C248.10457 269.0 249.0 269.89542 249.0 271.0Z" fill-rule="nonzero"/><path stroke="#000000" stroke-width="2.0" stroke-linecap="butt" stroke-opacity="0.0" clip-path="url(#id_0)" d="M348.0 332.0L334.0 332.0L334.0 302.0C334.0 300.89542 334.89542 300.0 336.0 300.0L346.0 300.0C347.10458 300.0 348.0 300.89542 348.0 302.0Z" fill-rule="nonzero"/><path fill="#34a853" clip-path="url(#id_0)" d="M348.0 332.0L334.0 332.0L334.0 302.0C334.0 300.89542 334.89542 300.0 336.0 300.0L346.0 300.0C347.10458 300.0 348.0 300.89542 348.0 302.0Z" fill-rule="nonzero"/><path stroke="#000000" stroke-width="2.0" stroke-linecap="butt" stroke-opacity="0.0" clip-path="url(#id_0)" d="M447.0 332.0L433.0 332.0L433.0 141.0C433.0 139.89543 433.89542 139.0 435.0 139.0L445.0 139.0C446.10458 139.0 447.0 139.89543 447.0 141.0Z" fill-rule="nonzero"/><path fill="#34a853" clip-path="url(#id_0)" d="M447.0 332.0L433.0 332.0L433.0 141.0C433.0 139.89543 433.89542 139.0 435.0 139.0L445.0 139.0C446.10458 139.0 447.0 139.89543 447.0 141.0Z" fill-rule="nonzero"/><path stroke="#000000" stroke-width="2.0" stroke-linecap="butt" stroke-opacity="0.0" clip-path="url(#id_0)" d="M546.0 332.0L532.0 332.0L532.0 120.0C532.0 118.89543 532.89545 118.0 534.0 118.0L544.0 118.0C545.10455 118.0 546.0 118.89543 546.0 120.0Z" fill-rule="nonzero"/><path fill="#34a853" clip-path="url(#id_0)" d="M546.0 332.0L532.0 332.0L532.0 120.0C532.0 118.89543 532.89545 118.0 534.0 118.0L544.0 118.0C545.10455 118.0 546.0 118.89543 546.0 120.0Z" fill-rule="nonzero"/><path fill="#000000" d="M40.05 332.21564Q40.05 330.6844 40.3625 329.7625Q40.675 328.825 41.284374 328.325Q41.909374 327.825 42.846874 327.825Q43.534374 327.825 44.05 328.10626Q44.58125 328.3875 44.925 328.91876Q45.26875 329.4344 45.45625 330.1844Q45.64375 330.9344 45.64375 332.21564Q45.64375 333.73126 45.33125 334.65314Q45.034374 335.575 44.409374 336.09064Q43.8 336.59064 42.846874 336.59064Q41.6125 336.59064 40.89375 335.7Q40.05 334.6375 40.05 332.21564ZM41.128124 332.21564Q41.128124 334.325 41.628124 335.02814Q42.128124 335.73126 42.846874 335.73126Q43.58125 335.73126 44.065624 335.02814Q44.565624 334.325 44.565624 332.21564Q44.565624 330.09064 44.065624 329.40314Q43.58125 328.7 42.83125 328.7Q42.1125 328.7 41.675 329.3094Q41.128124 330.09064 41.128124 332.21564Z" fill-rule="nonzero"/><path fill="#000000" d="M31.596874 274.3927L31.596874 275.40833L25.909374 275.40833Q25.909374 275.03333 26.034374 274.67395Q26.253124 274.09583 26.721874 273.53333Q27.20625 272.97083 28.1125 272.23645Q29.51875 271.0802 30.003124 270.40833Q30.503124 269.73645 30.503124 269.1427Q30.503124 268.5177 30.05 268.09583Q29.596874 267.65833 28.878124 267.65833Q28.1125 267.65833 27.659374 268.11145Q27.20625 268.56458 27.190624 269.37708L26.1125 269.2677Q26.221874 268.04895 26.940624 267.42395Q27.675 266.78333 28.909374 266.78333Q30.14375 266.78333 30.8625 267.47083Q31.58125 268.15833 31.58125 269.17395Q31.58125 269.68958 31.3625 270.18958Q31.159374 270.67395 30.659374 271.23645Q30.175 271.78333 29.05 272.73645Q28.096874 273.53333 27.815624 273.8302Q27.55 274.11145 27.378124 274.3927L31.596874 274.3927ZM33.05 273.15833L34.159374 273.06458Q34.284374 273.87708 34.721874 274.28333Q35.175 274.68958 35.815624 274.68958Q36.565624 274.68958 37.096874 274.11145Q37.628124 273.53333 37.628124 272.59583Q37.628124 271.68958 37.1125 271.17395Q36.6125 270.6427 35.784374 270.6427Q35.284374 270.6427 34.8625 270.87708Q34.45625 271.11145 34.221874 271.47083L33.2375 271.34583L34.065624 266.93958L38.346874 266.93958L38.346874 267.93958L34.909374 267.93958L34.45625 270.25208Q35.221874 269.7052 36.065624 269.7052Q37.190624 269.7052 37.95625 270.48645Q38.7375 271.2677 38.7375 272.50208Q38.7375 273.65833 38.065624 274.5177Q37.2375 275.54895 35.815624 275.54895Q34.64375 275.54895 33.89375 274.8927Q33.159374 274.23645 33.05 273.15833ZM40.05 271.17395Q40.05 269.6427 40.3625 268.72083Q40.675 267.78333 41.284374 267.28333Q41.909374 266.78333 42.846874 266.78333Q43.534374 266.78333 44.05 267.06458Q44.58125 267.34583 44.925 267.87708Q45.26875 268.3927 45.45625 269.1427Q45.64375 269.8927 45.64375 271.17395Q45.64375 272.68958 45.33125 273.61145Q45.034374 274.53333 44.409374 275.04895Q43.8 275.54895 42.846874 275.54895Q41.6125 275.54895 40.89375 274.65833Q40.05 273.59583 40.05 271.17395ZM41.128124 271.17395Q41.128124 273.28333 41.628124 273.98645Q42.128124 274.68958 42.846874 274.68958Q43.58125 274.68958 44.065624 273.98645Q44.565624 273.28333 44.565624 271.17395Q44.565624 269.04895 44.065624 268.36145Q43.58125 267.65833 42.83125 267.65833Q42.1125 267.65833 41.675 268.2677Q41.128124 269.04895 41.128124 271.17395Z" fill-rule="nonzero"/><path fill="#000000" d="M26.05 212.11667L27.159374 212.02292Q27.284374 212.83542 27.721874 213.24167Q28.175 213.64792 28.815624 213.64792Q29.565624 213.64792 30.096874 213.0698Q30.628124 212.49167 30.628124 211.55417Q30.628124 210.64792 30.1125 210.1323Q29.6125 209.60104 28.784374 209.60104Q28.284374 209.60104 27.8625 209.83542Q27.45625 210.0698 27.221874 210.42917L26.2375 210.30417L27.065624 205.89792L31.346874 205.89792L31.346874 206.89792L27.909374 206.89792L27.45625 209.21042Q28.221874 208.66354 29.065624 208.66354Q30.190624 208.66354 30.95625 209.4448Q31.7375 210.22604 31.7375 211.46042Q31.7375 212.61667 31.065624 213.47604Q30.2375 214.5073 28.815624 214.5073Q27.64375 214.5073 26.89375 213.85104Q26.159374 213.1948 26.05 212.11667ZM33.05 210.1323Q33.05 208.60104 33.3625 207.67917Q33.675 206.74167 34.284374 206.24167Q34.909374 205.74167 35.846874 205.74167Q36.534374 205.74167 37.05 206.02292Q37.58125 206.30417 37.925 206.83542Q38.26875 207.35104 38.45625 208.10104Q38.64375 208.85104 38.64375 210.1323Q38.64375 211.64792 38.33125 212.5698Q38.034374 213.49167 37.409374 214.0073Q36.8 214.5073 35.846874 214.5073Q34.6125 214.5073 33.89375 213.61667Q33.05 212.55417 33.05 210.1323ZM34.128124 210.1323Q34.128124 212.24167 34.628124 212.9448Q35.128124 213.64792 35.846874 213.64792Q36.58125 213.64792 37.065624 212.9448Q37.565624 212.24167 37.565624 210.1323Q37.565624 208.0073 37.065624 207.3198Q36.58125 206.61667 35.83125 206.61667Q35.1125 206.61667 34.675 207.22604Q34.128124 208.0073 34.128124 210.1323ZM40.05 210.1323Q40.05 208.60104 40.3625 207.67917Q40.675 206.74167 41.284374 206.24167Q41.909374 205.74167 42.846874 205.74167Q43.534374 205.74167 44.05 206.02292Q44.58125 206.30417 44.925 206.83542Q45.26875 207.35104 45.45625 208.10104Q45.64375 208.85104 45.64375 210.1323Q45.64375 211.64792 45.33125 212.5698Q45.034374 213.49167 44.409374 214.0073Q43.8 214.5073 42.846874 214.5073Q41.6125 214.5073 40.89375 213.61667Q40.05 212.55417 40.05 210.1323ZM41.128124 210.1323Q41.128124 212.24167 41.628124 212.9448Q42.128124 213.64792 42.846874 213.64792Q43.58125 213.64792 44.065624 212.9448Q44.565624 212.24167 44.565624 210.1323Q44.565624 208.0073 44.065624 207.3198Q43.58125 206.61667 42.83125 206.61667Q42.1125 206.61667 41.675 207.22604Q41.128124 208.0073 41.128124 210.1323Z" fill-rule="nonzero"/><path fill="#000000" d="M26.1125 145.85625L26.1125 144.84062L31.675 144.84062L31.675 145.66875Q30.8625 146.54375 30.05 147.99687Q29.253124 149.43437 28.815624 150.96562Q28.4875 152.04375 28.409374 153.325L27.315624 153.325Q27.33125 152.30937 27.70625 150.87187Q28.096874 149.43437 28.8 148.10625Q29.51875 146.77812 30.33125 145.85625L26.1125 145.85625ZM33.05 151.075L34.159374 150.98125Q34.284374 151.79375 34.721874 152.2Q35.175 152.60625 35.815624 152.60625Q36.565624 152.60625 37.096874 152.02812Q37.628124 151.45 37.628124 150.5125Q37.628124 149.60625 37.1125 149.09062Q36.6125 148.55937 35.784374 148.55937Q35.284374 148.55937 34.8625 148.79375Q34.45625 149.02812 34.221874 149.3875L33.2375 149.2625L34.065624 144.85625L38.346874 144.85625L38.346874 145.85625L34.909374 145.85625L34.45625 148.16875Q35.221874 147.62187 36.065624 147.62187Q37.190624 147.62187 37.95625 148.40312Q38.7375 149.18437 38.7375 150.41875Q38.7375 151.575 38.065624 152.43437Q37.2375 153.46562 35.815624 153.46562Q34.64375 153.46562 33.89375 152.80937Q33.159374 152.15312 33.05 151.075ZM40.05 149.09062Q40.05 147.55937 40.3625 146.6375Q40.675 145.7 41.284374 145.2Q41.909374 144.7 42.846874 144.7Q43.534374 144.7 44.05 144.98125Q44.58125 145.2625 44.925 145.79375Q45.26875 146.30937 45.45625 147.05937Q45.64375 147.80937 45.64375 149.09062Q45.64375 150.60625 45.33125 151.52812Q45.034374 152.45 44.409374 152.96562Q43.8 153.46562 42.846874 153.46562Q41.6125 153.46562 40.89375 152.575Q40.05 151.5125 40.05 149.09062ZM41.128124 149.09062Q41.128124 151.2 41.628124 151.90312Q42.128124 152.60625 42.846874 152.60625Q43.58125 152.60625 44.065624 151.90312Q44.565624 151.2 44.565624 149.09062Q44.565624 146.96562 44.065624 146.27812Q43.58125 145.575 42.83125 145.575Q42.1125 145.575 41.675 146.18437Q41.128124 146.96562 41.128124 149.09062Z" fill-rule="nonzero"/><path fill="#000000" d="M23.01875 92.28333L21.971874 92.28333L21.971874 85.56458Q21.58125 85.92396 20.95625 86.29896Q20.346874 86.65833 19.8625 86.83021L19.8625 85.81458Q20.7375 85.39271 21.39375 84.81458Q22.065624 84.22083 22.346874 83.65833L23.01875 83.65833L23.01875 92.28333ZM26.05 88.04896Q26.05 86.51771 26.3625 85.59583Q26.675 84.65833 27.284374 84.15833Q27.909374 83.65833 28.846874 83.65833Q29.534374 83.65833 30.05 83.93958Q30.58125 84.22083 30.925 84.75208Q31.26875 85.26771 31.45625 86.01771Q31.64375 86.76771 31.64375 88.04896Q31.64375 89.56458 31.33125 90.48646Q31.034374 91.40833 30.409374 91.92396Q29.8 92.42396 28.846874 92.42396Q27.6125 92.42396 26.89375 91.53333Q26.05 90.47083 26.05 88.04896ZM27.128124 88.04896Q27.128124 90.15833 27.628124 90.86146Q28.128124 91.56458 28.846874 91.56458Q29.58125 91.56458 30.065624 90.86146Q30.565624 90.15833 30.565624 88.04896Q30.565624 85.92396 30.065624 85.23646Q29.58125 84.53333 28.83125 84.53333Q28.1125 84.53333 27.675 85.14271Q27.128124 85.92396 27.128124 88.04896ZM33.05 88.04896Q33.05 86.51771 33.3625 85.59583Q33.675 84.65833 34.284374 84.15833Q34.909374 83.65833 35.846874 83.65833Q36.534374 83.65833 37.05 83.93958Q37.58125 84.22083 37.925 84.75208Q38.26875 85.26771 38.45625 86.01771Q38.64375 86.76771 38.64375 88.04896Q38.64375 89.56458 38.33125 90.48646Q38.034374 91.40833 37.409374 91.92396Q36.8 92.42396 35.846874 92.42396Q34.6125 92.42396 33.89375 91.53333Q33.05 90.47083 33.05 88.04896ZM34.128124 88.04896Q34.128124 90.15833 34.628124 90.86146Q35.128124 91.56458 35.846874 91.56458Q36.58125 91.56458 37.065624 90.86146Q37.565624 90.15833 37.565624 88.04896Q37.565624 85.92396 37.065624 85.23646Q36.58125 84.53333 35.83125 84.53333Q35.1125 84.53333 34.675 85.14271Q34.128124 85.92396 34.128124 88.04896ZM40.05 88.04896Q40.05 86.51771 40.3625 85.59583Q40.675 84.65833 41.284374 84.15833Q41.909374 83.65833 42.846874 83.65833Q43.534374 83.65833 44.05 83.93958Q44.58125 84.22083 44.925 84.75208Q45.26875 85.26771 45.45625 86.01771Q45.64375 86.76771 45.64375 88.04896Q45.64375 89.56458 45.33125 90.48646Q45.034374 91.40833 44.409374 91.92396Q43.8 92.42396 42.846874 92.42396Q41.6125 92.42396 40.89375 91.53333Q40.05 90.47083 40.05 88.04896ZM41.128124 88.04896Q41.128124 90.15833 41.628124 90.86146Q42.128124 91.56458 42.846874 91.56458Q43.58125 91.56458 44.065624 90.86146Q44.565624 90.15833 44.565624 88.04896Q44.565624 85.92396 44.065624 85.23646Q43.58125 84.53333 42.83125 84.53333Q42.1125 84.53333 41.675 85.14271Q41.128124 85.92396 41.128124 88.04896Z" fill-rule="nonzero"/><path fill="#000000" d="M110.171 349.45L110.171 340.85626L111.88975 340.85626L113.921 346.9344Q114.20225 347.79376 114.32725 348.21564Q114.46787 347.7469 114.78037 346.84064L116.84287 340.85626L118.37412 340.85626L118.37412 349.45L117.28037 349.45L117.28037 342.2625L114.78037 349.45L113.74912 349.45L111.26475 342.1375L111.26475 349.45L110.171 349.45ZM120.07725 342.075L120.07725 340.85626L121.13975 340.85626L121.13975 342.075L120.07725 342.075ZM120.07725 349.45L120.07725 343.23126L121.13975 343.23126L121.13975 349.45L120.07725 349.45ZM123.07725 349.45L123.07725 343.23126L124.01475 343.23126L124.01475 344.10626Q124.70225 343.09064 125.99912 343.09064Q126.56162 343.09064 127.03037 343.29376Q127.51475 343.4969 127.74912 343.825Q127.9835 344.15314 128.07724 344.59064Q128.12411 344.8875 128.12411 345.6219L128.12411 349.45L127.07725 349.45L127.07725 345.66876Q127.07725 345.0125 126.95225 344.7Q126.82725 344.3875 126.51475 344.2Q126.20225 343.9969 125.78037 343.9969Q125.1085 343.9969 124.6085 344.4344Q124.12412 344.85626 124.12412 346.04376L124.12412 349.45L123.07725 349.45Z" fill-rule="nonzero"/><path fill="#000000" d="M203.5308 349.45L203.5308 340.85626L205.24956 340.85626L207.2808 346.9344Q207.56206 347.79376 207.68706 348.21564Q207.82768 347.7469 208.14018 346.84064L210.20268 340.85626L211.73393 340.85626L211.73393 349.45L210.64018 349.45L210.64018 342.2625L208.14018 349.45L207.10893 349.45L204.62456 342.1375L204.62456 349.45L203.5308 349.45ZM217.68706 347.45L218.7808 347.575Q218.5308 348.52814 217.82768 349.0594Q217.12456 349.59064 216.04643 349.59064Q214.68706 349.59064 213.87456 348.7469Q213.07768 347.90314 213.07768 346.3875Q213.07768 344.825 213.89018 343.96564Q214.70268 343.09064 215.98393 343.09064Q217.23393 343.09064 218.01518 343.9344Q218.81206 344.77814 218.81206 346.325Q218.81206 346.41876 218.81206 346.60626L214.17143 346.60626Q214.23393 347.6375 214.74956 348.1844Q215.26518 348.71564 216.04643 348.71564Q216.62456 348.71564 217.0308 348.41876Q217.45268 348.10626 217.68706 347.45ZM214.23393 345.7469L217.70268 345.7469Q217.64018 344.95 217.31206 344.5594Q216.79643 343.95 215.99956 343.95Q215.26518 343.95 214.76518 344.4344Q214.2808 344.91876 214.23393 345.7469ZM224.49956 348.6844Q223.9058 349.1844 223.35893 349.3875Q222.82768 349.59064 222.20268 349.59064Q221.17143 349.59064 220.62456 349.09064Q220.07768 348.59064 220.07768 347.8094Q220.07768 347.35626 220.2808 346.98126Q220.48393 346.59064 220.82768 346.3719Q221.17143 346.1375 221.5933 346.02814Q221.89018 345.9344 222.5308 345.85626Q223.79643 345.71564 224.4058 345.4969Q224.4058 345.27814 224.4058 345.23126Q224.4058 344.575 224.10893 344.3094Q223.70268 343.96564 222.9058 343.96564Q222.17143 343.96564 221.81206 344.23126Q221.45268 344.48126 221.2808 345.1375L220.24956 344.9969Q220.39018 344.34064 220.7183 343.9344Q221.04643 343.52814 221.6558 343.3094Q222.26518 343.09064 223.06206 343.09064Q223.85893 343.09064 224.35893 343.27814Q224.85893 343.46564 225.0933 343.7469Q225.32768 344.02814 225.42143 344.46564Q225.4683 344.73126 225.4683 345.4344L225.4683 346.84064Q225.4683 348.3094 225.5308 348.7Q225.60893 349.09064 225.81206 349.45L224.70268 349.45Q224.54643 349.1219 224.49956 348.6844ZM224.4058 346.325Q223.82768 346.5594 222.68706 346.73126Q222.0308 346.825 221.76518 346.95Q221.49956 347.0594 221.3433 347.27814Q221.20268 347.4969 221.20268 347.77814Q221.20268 348.2 221.51518 348.48126Q221.8433 348.7625 222.45268 348.7625Q223.06206 348.7625 223.5308 348.4969Q224.01518 348.23126 224.23393 347.7625Q224.4058 347.40314 224.4058 346.71564L224.4058 346.325ZM227.43706 349.45L227.43706 343.23126L228.37456 343.23126L228.37456 344.10626Q229.06206 343.09064 230.35893 343.09064Q230.92143 343.09064 231.39018 343.29376Q231.87456 343.4969 232.10893 343.825Q232.3433 344.15314 232.43706 344.59064Q232.48393 344.8875 232.48393 345.6219L232.48393 349.45L231.43706 349.45L231.43706 345.66876Q231.43706 345.0125 231.31206 344.7Q231.18706 344.3875 230.87456 344.2Q230.56206 343.9969 230.14018 343.9969Q229.4683 343.9969 228.9683 344.4344Q228.48393 344.85626 228.48393 346.04376L228.48393 349.45L227.43706 349.45Z" fill-rule="nonzero"/><path fill="#000000" d="M307.29688 351.84064L307.29688 343.23126L308.25 343.23126L308.25 344.02814Q308.59375 343.5594 309.01562 343.325Q309.45312 343.09064 310.0625 343.09064Q310.85938 343.09064 311.46875 343.4969Q312.07812 343.90314 312.375 344.65314Q312.6875 345.40314 312.6875 346.29376Q312.6875 347.2469 312.34375 348.0125Q312.01562 348.77814 311.35938 349.1844Q310.70312 349.59064 309.98438 349.59064Q309.45312 349.59064 309.03125 349.3719Q308.60938 349.1375 308.34375 348.8094L308.34375 351.84064L307.29688 351.84064ZM308.25 346.3719Q308.25 347.575 308.73438 348.15314Q309.21875 348.71564 309.90625 348.71564Q310.60938 348.71564 311.10938 348.1219Q311.60938 347.52814 311.60938 346.27814Q311.60938 345.09064 311.125 344.5125Q310.64062 343.91876 309.95312 343.91876Q309.28125 343.91876 308.76562 344.54376Q308.25 345.16876 308.25 346.3719ZM314.0 347.2L315.10938 347.10626Q315.23438 347.91876 315.67188 348.325Q316.125 348.73126 316.76562 348.73126Q317.51562 348.73126 318.04688 348.15314Q318.57812 347.575 318.57812 346.6375Q318.57812 345.73126 318.0625 345.21564Q317.5625 344.6844 316.73438 344.6844Q316.23438 344.6844 315.8125 344.91876Q315.40625 345.15314 315.17188 345.5125L314.1875 345.3875L315.01562 340.98126L319.29688 340.98126L319.29688 341.98126L315.85938 341.98126L315.40625 344.29376Q316.17188 343.7469 317.01562 343.7469Q318.14062 343.7469 318.90625 344.52814Q319.6875 345.3094 319.6875 346.54376Q319.6875 347.7 319.01562 348.5594Q318.1875 349.59064 316.76562 349.59064Q315.59375 349.59064 314.84375 348.9344Q314.10938 348.27814 314.0 347.2ZM321.0 345.21564Q321.0 343.6844 321.3125 342.7625Q321.625 341.825 322.23438 341.325Q322.85938 340.825 323.79688 340.825Q324.48438 340.825 325.0 341.10626Q325.53125 341.3875 325.875 341.91876Q326.21875 342.4344 326.40625 343.1844Q326.59375 343.9344 326.59375 345.21564Q326.59375 346.73126 326.28125 347.65314Q325.98438 348.575 325.35938 349.09064Q324.75 349.59064 323.79688 349.59064Q322.5625 349.59064 321.84375 348.7Q321.0 347.6375 321.0 345.21564ZM322.07812 345.21564Q322.07812 347.325 322.57812 348.02814Q323.07812 348.73126 323.79688 348.73126Q324.53125 348.73126 325.01562 348.02814Q325.51562 347.325 325.51562 345.21564Q325.51562 343.09064 325.01562 342.40314Q324.53125 341.7 323.78125 341.7Q323.0625 341.7 322.625 342.3094Q322.07812 343.09064 322.07812 345.21564Z" fill-rule="nonzero"/><path fill="#000000" d="M406.15668 351.84064L406.15668 343.23126L407.1098 343.23126L407.1098 344.02814Q407.45355 343.5594 407.87543 343.325Q408.31293 343.09064 408.9223 343.09064Q409.71918 343.09064 410.32855 343.4969Q410.93793 343.90314 411.2348 344.65314Q411.5473 345.40314 411.5473 346.29376Q411.5473 347.2469 411.20355 348.0125Q410.87543 348.77814 410.21918 349.1844Q409.56293 349.59064 408.84418 349.59064Q408.31293 349.59064 407.89105 349.3719Q407.46918 349.1375 407.20355 348.8094L407.20355 351.84064L406.15668 351.84064ZM407.1098 346.3719Q407.1098 347.575 407.59418 348.15314Q408.07855 348.71564 408.76605 348.71564Q409.46918 348.71564 409.96918 348.1219Q410.46918 347.52814 410.46918 346.27814Q410.46918 345.09064 409.9848 344.5125Q409.50043 343.91876 408.81293 343.91876Q408.14105 343.91876 407.62543 344.54376Q407.1098 345.16876 407.1098 346.3719ZM413.01605 347.46564L414.03168 347.3719Q414.15668 348.09064 414.51605 348.41876Q414.89105 348.73126 415.45355 348.73126Q415.93793 348.73126 416.2973 348.5125Q416.6723 348.27814 416.90668 347.91876Q417.14105 347.54376 417.2973 346.91876Q417.45355 346.27814 417.45355 345.6219Q417.45355 345.54376 417.45355 345.40314Q417.14105 345.90314 416.59418 346.23126Q416.0473 346.54376 415.40668 346.54376Q414.32855 346.54376 413.59418 345.77814Q412.8598 344.9969 412.8598 343.73126Q412.8598 342.41876 413.62543 341.6219Q414.40668 340.825 415.56293 340.825Q416.39105 340.825 417.07855 341.27814Q417.78168 341.73126 418.14105 342.575Q418.50043 343.40314 418.50043 344.98126Q418.50043 346.6219 418.14105 347.60626Q417.7973 348.575 417.07855 349.09064Q416.37543 349.59064 415.43793 349.59064Q414.4223 349.59064 413.78168 349.04376Q413.14105 348.48126 413.01605 347.46564ZM417.32855 343.66876Q417.32855 342.7625 416.84418 342.23126Q416.37543 341.7 415.68793 341.7Q414.9848 341.7 414.45355 342.27814Q413.93793 342.84064 413.93793 343.7625Q413.93793 344.575 414.43793 345.09064Q414.93793 345.60626 415.65668 345.60626Q416.39105 345.60626 416.8598 345.09064Q417.32855 344.575 417.32855 343.66876ZM419.8598 345.21564Q419.8598 343.6844 420.1723 342.7625Q420.4848 341.825 421.09418 341.325Q421.71918 340.825 422.65668 340.825Q423.34418 340.825 423.8598 341.10626Q424.39105 341.3875 424.7348 341.91876Q425.07855 342.4344 425.26605 343.1844Q425.45355 343.9344 425.45355 345.21564Q425.45355 346.73126 425.14105 347.65314Q424.84418 348.575 424.21918 349.09064Q423.6098 349.59064 422.65668 349.59064Q421.4223 349.59064 420.70355 348.7Q419.8598 347.6375 419.8598 345.21564ZM420.93793 345.21564Q420.93793 347.325 421.43793 348.02814Q421.93793 348.73126 422.65668 348.73126Q423.39105 348.73126 423.87543 348.02814Q424.37543 347.325 424.37543 345.21564Q424.37543 343.09064 423.87543 342.40314Q423.39105 341.7 422.64105 341.7Q421.9223 341.7 421.4848 342.3094Q420.93793 343.09064 420.93793 345.21564Z" fill-rule="nonzero"/><path fill="#000000" d="M505.0165 351.84064L505.0165 343.23126L505.96964 343.23126L505.96964 344.02814Q506.3134 343.5594 506.73526 343.325Q507.17276 343.09064 507.78214 343.09064Q508.579 343.09064 509.1884 343.4969Q509.79776 343.90314 510.09464 344.65314Q510.40714 345.40314 510.40714 346.29376Q510.40714 347.2469 510.0634 348.0125Q509.73526 348.77814 509.079 349.1844Q508.42276 349.59064 507.704 349.59064Q507.17276 349.59064 506.7509 349.3719Q506.329 349.1375 506.0634 348.8094L506.0634 351.84064L505.0165 351.84064ZM505.96964 346.3719Q505.96964 347.575 506.454 348.15314Q506.9384 348.71564 507.6259 348.71564Q508.329 348.71564 508.829 348.1219Q509.329 347.52814 509.329 346.27814Q509.329 345.09064 508.84464 344.5125Q508.36026 343.91876 507.67276 343.91876Q507.0009 343.91876 506.48526 344.54376Q505.96964 345.16876 505.96964 346.3719ZM511.8759 347.46564L512.8915 347.3719Q513.0165 348.09064 513.37585 348.41876Q513.75085 348.73126 514.31335 348.73126Q514.7977 348.73126 515.1571 348.5125Q515.5321 348.27814 515.7665 347.91876Q516.00085 347.54376 516.1571 346.91876Q516.31335 346.27814 516.31335 345.6219Q516.31335 345.54376 516.31335 345.40314Q516.00085 345.90314 515.454 346.23126Q514.9071 346.54376 514.2665 346.54376Q513.18835 346.54376 512.454 345.77814Q511.71964 344.9969 511.71964 343.73126Q511.71964 342.41876 512.4852 341.6219Q513.2665 340.825 514.4227 340.825Q515.25085 340.825 515.93835 341.27814Q516.6415 341.73126 517.00085 342.575Q517.3602 343.40314 517.3602 344.98126Q517.3602 346.6219 517.00085 347.60626Q516.6571 348.575 515.93835 349.09064Q515.2352 349.59064 514.2977 349.59064Q513.2821 349.59064 512.6415 349.04376Q512.00085 348.48126 511.8759 347.46564ZM516.18835 343.66876Q516.18835 342.7625 515.704 342.23126Q515.2352 341.7 514.5477 341.7Q513.8446 341.7 513.31335 342.27814Q512.7977 342.84064 512.7977 343.7625Q512.7977 344.575 513.2977 345.09064Q513.7977 345.60626 514.5165 345.60626Q515.25085 345.60626 515.7196 345.09064Q516.18835 344.575 516.18835 343.66876ZM518.7196 347.2L519.829 347.10626Q519.954 347.91876 520.3915 348.325Q520.8446 348.73126 521.4852 348.73126Q522.2352 348.73126 522.7665 348.15314Q523.2977 347.575 523.2977 346.6375Q523.2977 345.73126 522.7821 345.21564Q522.2821 344.6844 521.454 344.6844Q520.954 344.6844 520.5321 344.91876Q520.12585 345.15314 519.8915 345.5125L518.9071 345.3875L519.7352 340.98126L524.0165 340.98126L524.0165 341.98126L520.579 341.98126L520.12585 344.29376Q520.8915 343.7469 521.7352 343.7469Q522.8602 343.7469 523.62585 344.52814Q524.4071 345.3094 524.4071 346.54376Q524.4071 347.7 523.7352 348.5594Q522.9071 349.59064 521.4852 349.59064Q520.31335 349.59064 519.56335 348.9344Q518.829 348.27814 518.7196 347.2Z" fill-rule="nonzero"/><path fill="#4285f4" d="M127.0 56.916668C127.0 56.364384 127.447716 55.916668 128.0 55.916668L138.0 55.916668C138.55229 55.916668 139.0 56.364384 139.0 56.916668L139.0 66.916664C139.0 67.46895 138.55229 67.916664 138.0 67.916664L128.0 67.916664C127.447716 67.916664 127.0 67.46895 127.0 66.916664Z" fill-rule="nonzero"/><path fill="#1a1a1a" d="M147.96875 65.916664L147.96875 57.322914L149.09375 57.322914L149.09375 60.854164L153.5625 60.854164L153.5625 57.322914L154.70312 57.322914L154.70312 65.916664L153.5625 65.916664L153.5625 61.86979L149.09375 61.86979L149.09375 65.916664L147.96875 65.916664ZM160.875 65.916664L160.875 64.99479Q160.14062 66.05729 158.89062 66.05729Q158.34375 66.05729 157.85938 65.854164Q157.39062 65.635414 157.15625 65.322914Q156.92188 64.99479 156.82812 64.52604Q156.76562 64.229164 156.76562 63.541664L156.76562 59.697914L157.82812 59.697914L157.82812 63.15104Q157.82812 63.96354 157.89062 64.260414Q157.98438 64.666664 158.29688 64.916664Q158.625 65.15104 159.10938 65.15104Q159.57812 65.15104 159.98438 64.916664Q160.40625 64.666664 160.57812 64.24479Q160.76562 63.822914 160.76562 63.02604L160.76562 59.697914L161.8125 59.697914L161.8125 65.916664L160.875 65.916664ZM163.59375 66.43229L164.625 66.58854Q164.6875 67.05729 164.98438 67.27604Q165.375 67.572914 166.04688 67.572914Q166.78125 67.572914 167.17188 67.27604Q167.57812 66.979164 167.71875 66.46354Q167.8125 66.135414 167.79688 65.104164Q167.10938 65.916664 166.07812 65.916664Q164.79688 65.916664 164.09375 64.99479Q163.39062 64.05729 163.39062 62.77604Q163.39062 61.885414 163.70312 61.135414Q164.03125 60.36979 164.64062 59.96354Q165.25 59.55729 166.07812 59.55729Q167.1875 59.55729 167.90625 60.447914L167.90625 59.697914L168.875 59.697914L168.875 65.072914Q168.875 66.52604 168.57812 67.135414Q168.28125 67.74479 167.64062 68.08854Q167.0 68.447914 166.0625 68.447914Q164.95312 68.447914 164.26562 67.947914Q163.57812 67.447914 163.59375 66.43229ZM164.46875 62.697914Q164.46875 63.916664 164.95312 64.479164Q165.4375 65.041664 166.17188 65.041664Q166.90625 65.041664 167.39062 64.479164Q167.89062 63.916664 167.89062 62.729164Q167.89062 61.58854 167.375 61.010414Q166.875 60.43229 166.15625 60.43229Q165.45312 60.43229 164.95312 61.010414Q164.46875 61.572914 164.46875 62.697914ZM170.40625 62.80729Q170.40625 61.072914 171.35938 60.24479Q172.15625 59.55729 173.3125 59.55729Q174.59375 59.55729 175.40625 60.40104Q176.23438 61.229164 176.23438 62.71354Q176.23438 63.916664 175.875 64.604164Q175.51562 65.291664 174.8125 65.68229Q174.125 66.05729 173.3125 66.05729Q172.01562 66.05729 171.20312 65.229164Q170.40625 64.385414 170.40625 62.80729ZM171.48438 62.80729Q171.48438 63.99479 172.0 64.58854Q172.53125 65.18229 173.3125 65.18229Q174.10938 65.18229 174.625 64.58854Q175.14062 63.99479 175.14062 62.77604Q175.14062 61.61979 174.60938 61.02604Q174.09375 60.43229 173.3125 60.43229Q172.53125 60.43229 172.0 61.02604Q171.48438 61.604164 171.48438 62.80729ZM183.0 64.52604L183.0 62.166664L180.67188 62.166664L180.67188 61.18229L183.0 61.18229L183.0 58.854164L184.0 58.854164L184.0 61.18229L186.34375 61.18229L186.34375 62.166664L184.0 62.166664L184.0 64.52604L183.0 64.52604ZM197.0625 62.90104L198.1875 63.197914Q197.82812 64.58854 196.90625 65.322914Q195.98438 66.05729 194.64062 66.05729Q193.25 66.05729 192.375 65.49479Q191.5 64.93229 191.04688 63.86979Q190.59375 62.791664 190.59375 61.55729Q190.59375 60.21354 191.10938 59.21354Q191.625 58.21354 192.5625 57.697914Q193.51562 57.18229 194.65625 57.18229Q195.9375 57.18229 196.8125 57.83854Q197.70312 58.49479 198.04688 59.68229L196.92188 59.947914Q196.625 59.010414 196.04688 58.58854Q195.48438 58.15104 194.625 58.15104Q193.64062 58.15104 192.96875 58.635414Q192.3125 59.104164 192.03125 59.90104Q191.76562 60.697914 191.76562 61.55729Q191.76562 62.65104 192.07812 63.46354Q192.40625 64.27604 193.07812 64.68229Q193.75 65.08854 194.54688 65.08854Q195.5 65.08854 196.15625 64.541664Q196.82812 63.99479 197.0625 62.90104ZM199.92188 65.916664L199.92188 57.322914L202.89062 57.322914Q203.89062 57.322914 204.42188 57.447914Q205.15625 57.61979 205.67188 58.05729Q206.35938 58.635414 206.6875 59.541664Q207.03125 60.43229 207.03125 61.572914Q207.03125 62.55729 206.79688 63.30729Q206.57812 64.05729 206.21875 64.55729Q205.85938 65.05729 205.42188 65.33854Q205.0 65.61979 204.40625 65.77604Q203.8125 65.916664 203.03125 65.916664L199.92188 65.916664ZM201.0625 64.90104L202.89062 64.90104Q203.75 64.90104 204.23438 64.74479Q204.71875 64.58854 205.0 64.291664Q205.40625 63.90104 205.625 63.21354Q205.85938 62.52604 205.85938 61.55729Q205.85938 60.21354 205.40625 59.49479Q204.96875 58.760414 204.34375 58.510414Q203.875 58.33854 202.875 58.33854L201.0625 58.33854L201.0625 64.90104ZM208.92188 65.916664L208.92188 57.322914L210.07812 57.322914L214.59375 64.072914L214.59375 57.322914L215.6875 57.322914L215.6875 65.916664L214.51562 65.916664L210.0 59.166664L210.0 65.916664L208.92188 65.916664Z" fill-rule="nonzero"/><path fill="#ea4335" d="M233.0 56.916668C233.0 56.364384 233.44771 55.916668 234.0 55.916668L244.0 55.916668C244.55229 55.916668 245.0 56.364384 245.0 56.916668L245.0 66.916664C245.0 67.46895 244.55229 67.916664 244.0 67.916664L234.0 67.916664C233.44771 67.916664 233.0 67.46895 233.0 66.916664Z" fill-rule="nonzero"/><path fill="#1a1a1a" d="M253.92188 65.916664L253.92188 57.322914L255.07812 57.322914L259.59375 64.072914L259.59375 57.322914L260.6875 57.322914L260.6875 65.916664L259.51562 65.916664L255.0 59.166664L255.0 65.916664L253.92188 65.916664ZM267.04688 63.916664L268.14062 64.041664Q267.89062 64.99479 267.1875 65.52604Q266.48438 66.05729 265.40625 66.05729Q264.04688 66.05729 263.23438 65.21354Q262.4375 64.36979 262.4375 62.854164Q262.4375 61.291664 263.25 60.43229Q264.0625 59.55729 265.34375 59.55729Q266.59375 59.55729 267.375 60.40104Q268.17188 61.24479 268.17188 62.791664Q268.17188 62.885414 268.17188 63.072914L263.53125 63.072914Q263.59375 64.104164 264.10938 64.65104Q264.625 65.18229 265.40625 65.18229Q265.98438 65.18229 266.39062 64.885414Q266.8125 64.572914 267.04688 63.916664ZM263.59375 62.21354L267.0625 62.21354Q267.0 61.416664 266.67188 61.02604Q266.15625 60.416664 265.35938 60.416664Q264.625 60.416664 264.125 60.90104Q263.64062 61.385414 263.59375 62.21354ZM269.09375 65.916664L271.35938 62.68229L269.26562 59.697914L270.57812 59.697914L271.53125 61.15104Q271.79688 61.572914 271.96875 61.854164Q272.21875 61.46354 272.4375 61.166664L273.48438 59.697914L274.75 59.697914L272.59375 62.61979L274.90625 65.916664L273.625 65.916664L272.34375 63.979164L272.0 63.46354L270.35938 65.916664L269.09375 65.916664ZM278.09375 64.979164L278.25 65.90104Q277.79688 65.99479 277.45312 65.99479Q276.875 65.99479 276.5625 65.822914Q276.25 65.635414 276.10938 65.33854Q275.98438 65.041664 275.98438 64.08854L275.98438 60.510414L275.21875 60.510414L275.21875 59.697914L275.98438 59.697914L275.98438 58.15104L277.03125 57.52604L277.03125 59.697914L278.09375 59.697914L278.09375 60.510414L277.03125 60.510414L277.03125 64.15104Q277.03125 64.604164 277.07812 64.729164Q277.14062 64.854164 277.26562 64.93229Q277.39062 65.010414 277.625 65.010414Q277.8125 65.010414 278.09375 64.979164ZM278.34375 63.479164L279.375 63.33854Q279.40625 64.322914 279.73438 64.68229Q280.0625 65.041664 280.65625 65.041664Q281.07812 65.041664 281.39062 64.854164Q281.70312 64.65104 281.8125 64.322914Q281.9375 63.979164 281.9375 63.24479L281.9375 57.322914L283.0625 57.322914L283.0625 63.18229Q283.0625 64.260414 282.79688 64.854164Q282.54688 65.447914 281.98438 65.760414Q281.42188 66.05729 280.65625 66.05729Q279.53125 66.05729 278.92188 65.416664Q278.32812 64.760414 278.34375 63.479164ZM284.54688 63.15104L285.60938 63.05729Q285.6875 63.71354 285.96875 64.11979Q286.25 64.52604 286.82812 64.791664Q287.42188 65.041664 288.15625 65.041664Q288.79688 65.041664 289.29688 64.854164Q289.79688 64.65104 290.03125 64.322914Q290.28125 63.979164 290.28125 63.58854Q290.28125 63.18229 290.04688 62.885414Q289.8125 62.572914 289.28125 62.36979Q288.92188 62.229164 287.73438 61.947914Q286.5625 61.666664 286.09375 61.416664Q285.46875 61.08854 285.17188 60.61979Q284.875 60.135414 284.875 59.541664Q284.875 58.90104 285.23438 58.33854Q285.60938 57.760414 286.3125 57.479164Q287.03125 57.18229 287.89062 57.18229Q288.84375 57.18229 289.57812 57.49479Q290.3125 57.791664 290.70312 58.40104Q291.09375 58.99479 291.125 59.74479L290.03125 59.822914Q289.9375 59.010414 289.42188 58.604164Q288.92188 58.18229 287.9375 58.18229Q286.90625 58.18229 286.4375 58.55729Q285.96875 58.93229 285.96875 59.46354Q285.96875 59.93229 286.29688 60.229164Q286.625 60.52604 288.0 60.83854Q289.39062 61.15104 289.90625 61.385414Q290.65625 61.74479 291.01562 62.27604Q291.375 62.791664 291.375 63.49479Q291.375 64.18229 290.98438 64.791664Q290.59375 65.385414 289.85938 65.729164Q289.125 66.05729 288.20312 66.05729Q287.03125 66.05729 286.23438 65.729164Q285.45312 65.385414 285.0 64.697914Q284.5625 64.010414 284.54688 63.15104ZM298.0 64.52604L298.0 62.166664L295.67188 62.166664L295.67188 61.18229L298.0 61.18229L298.0 58.854164L299.0 58.854164L299.0 61.18229L301.34375 61.18229L301.34375 62.166664L299.0 62.166664L299.0 64.52604L298.0 64.52604ZM312.0625 62.90104L313.1875 63.197914Q312.82812 64.58854 311.90625 65.322914Q310.98438 66.05729 309.64062 66.05729Q308.25 66.05729 307.375 65.49479Q306.5 64.93229 306.04688 63.86979Q305.59375 62.791664 305.59375 61.55729Q305.59375 60.21354 306.10938 59.21354Q306.625 58.21354 307.5625 57.697914Q308.51562 57.18229 309.65625 57.18229Q310.9375 57.18229 311.8125 57.83854Q312.70312 58.49479 313.04688 59.68229L311.92188 59.947914Q311.625 59.010414 311.04688 58.58854Q310.48438 58.15104 309.625 58.15104Q308.64062 58.15104 307.96875 58.635414Q307.3125 59.104164 307.03125 59.90104Q306.76562 60.697914 306.76562 61.55729Q306.76562 62.65104 307.07812 63.46354Q307.40625 64.27604 308.07812 64.68229Q308.75 65.08854 309.54688 65.08854Q310.5 65.08854 311.15625 64.541664Q311.82812 63.99479 312.0625 62.90104ZM314.92188 65.916664L314.92188 57.322914L317.89062 57.322914Q318.89062 57.322914 319.42188 57.447914Q320.15625 57.61979 320.67188 58.05729Q321.35938 58.635414 321.6875 59.541664Q322.03125 60.43229 322.03125 61.572914Q322.03125 62.55729 321.79688 63.30729Q321.57812 64.05729 321.21875 64.55729Q320.85938 65.05729 320.42188 65.33854Q320.0 65.61979 319.40625 65.77604Q318.8125 65.916664 318.03125 65.916664L314.92188 65.916664ZM316.0625 64.90104L317.89062 64.90104Q318.75 64.90104 319.23438 64.74479Q319.71875 64.58854 320.0 64.291664Q320.40625 63.90104 320.625 63.21354Q320.85938 62.52604 320.85938 61.55729Q320.85938 60.21354 320.40625 59.49479Q319.96875 58.760414 319.34375 58.510414Q318.875 58.33854 317.875 58.33854L316.0625 58.33854L316.0625 64.90104ZM323.92188 65.916664L323.92188 57.322914L325.07812 57.322914L329.59375 64.072914L329.59375 57.322914L330.6875 57.322914L330.6875 65.916664L329.51562 65.916664L325.0 59.166664L325.0 65.916664L323.92188 65.916664Z" fill-rule="nonzero"/><path fill="#fbbc04" d="M348.0 56.916668C348.0 56.364384 348.44772 55.916668 349.0 55.916668L359.0 55.916668C359.55228 55.916668 360.0 56.364384 360.0 56.916668L360.0 66.916664C360.0 67.46895 359.55228 67.916664 359.0 67.916664L349.0 67.916664C348.44772 67.916664 348.0 67.46895 348.0 66.916664Z" fill-rule="nonzero"/><path fill="#1a1a1a" d="M368.96875 65.916664L368.96875 57.322914L370.09375 57.322914L370.09375 60.854164L374.5625 60.854164L374.5625 57.322914L375.70312 57.322914L375.70312 65.916664L374.5625 65.916664L374.5625 61.86979L370.09375 61.86979L370.09375 65.916664L368.96875 65.916664ZM381.875 65.916664L381.875 64.99479Q381.14062 66.05729 379.89062 66.05729Q379.34375 66.05729 378.85938 65.854164Q378.39062 65.635414 378.15625 65.322914Q377.92188 64.99479 377.82812 64.52604Q377.76562 64.229164 377.76562 63.541664L377.76562 59.697914L378.82812 59.697914L378.82812 63.15104Q378.82812 63.96354 378.89062 64.260414Q378.98438 64.666664 379.29688 64.916664Q379.625 65.15104 380.10938 65.15104Q380.57812 65.15104 380.98438 64.916664Q381.40625 64.666664 381.57812 64.24479Q381.76562 63.822914 381.76562 63.02604L381.76562 59.697914L382.8125 59.697914L382.8125 65.916664L381.875 65.916664ZM384.59375 66.43229L385.625 66.58854Q385.6875 67.05729 385.98438 67.27604Q386.375 67.572914 387.04688 67.572914Q387.78125 67.572914 388.17188 67.27604Q388.57812 66.979164 388.71875 66.46354Q388.8125 66.135414 388.79688 65.104164Q388.10938 65.916664 387.07812 65.916664Q385.79688 65.916664 385.09375 64.99479Q384.39062 64.05729 384.39062 62.77604Q384.39062 61.885414 384.70312 61.135414Q385.03125 60.36979 385.64062 59.96354Q386.25 59.55729 387.07812 59.55729Q388.1875 59.55729 388.90625 60.447914L388.90625 59.697914L389.875 59.697914L389.875 65.072914Q389.875 66.52604 389.57812 67.135414Q389.28125 67.74479 388.64062 68.08854Q388.0 68.447914 387.0625 68.447914Q385.95312 68.447914 385.26562 67.947914Q384.57812 67.447914 384.59375 66.43229ZM385.46875 62.697914Q385.46875 63.916664 385.95312 64.479164Q386.4375 65.041664 387.17188 65.041664Q387.90625 65.041664 388.39062 64.479164Q388.89062 63.916664 388.89062 62.729164Q388.89062 61.58854 388.375 61.010414Q387.875 60.43229 387.15625 60.43229Q386.45312 60.43229 385.95312 61.010414Q385.46875 61.572914 385.46875 62.697914ZM391.40625 62.80729Q391.40625 61.072914 392.35938 60.24479Q393.15625 59.55729 394.3125 59.55729Q395.59375 59.55729 396.40625 60.40104Q397.23438 61.229164 397.23438 62.71354Q397.23438 63.916664 396.875 64.604164Q396.51562 65.291664 395.8125 65.68229Q395.125 66.05729 394.3125 66.05729Q393.01562 66.05729 392.20312 65.229164Q391.40625 64.385414 391.40625 62.80729ZM392.48438 62.80729Q392.48438 63.99479 393.0 64.58854Q393.53125 65.18229 394.3125 65.18229Q395.10938 65.18229 395.625 64.58854Q396.14062 63.99479 396.14062 62.77604Q396.14062 61.61979 395.60938 61.02604Q395.09375 60.43229 394.3125 60.43229Q393.53125 60.43229 393.0 61.02604Q392.48438 61.604164 392.48438 62.80729Z" fill-rule="nonzero"/><path fill="#34a853" d="M414.0 56.916668C414.0 56.364384 414.44772 55.916668 415.0 55.916668L425.0 55.916668C425.55228 55.916668 426.0 56.364384 426.0 56.916668L426.0 66.916664C426.0 67.46895 425.55228 67.916664 425.0 67.916664L415.0 67.916664C414.44772 67.916664 414.0 67.46895 414.0 66.916664Z" fill-rule="nonzero"/><path fill="#1a1a1a" d="M434.92188 65.916664L434.92188 57.322914L436.07812 57.322914L440.59375 64.072914L440.59375 57.322914L441.6875 57.322914L441.6875 65.916664L440.51562 65.916664L436.0 59.166664L436.0 65.916664L434.92188 65.916664ZM448.04688 63.916664L449.14062 64.041664Q448.89062 64.99479 448.1875 65.52604Q447.48438 66.05729 446.40625 66.05729Q445.04688 66.05729 444.23438 65.21354Q443.4375 64.36979 443.4375 62.854164Q443.4375 61.291664 444.25 60.43229Q445.0625 59.55729 446.34375 59.55729Q447.59375 59.55729 448.375 60.40104Q449.17188 61.24479 449.17188 62.791664Q449.17188 62.885414 449.17188 63.072914L444.53125 63.072914Q444.59375 64.104164 445.10938 64.65104Q445.625 65.18229 446.40625 65.18229Q446.98438 65.18229 447.39062 64.885414Q447.8125 64.572914 448.04688 63.916664ZM444.59375 62.21354L448.0625 62.21354Q448.0 61.416664 447.67188 61.02604Q447.15625 60.416664 446.35938 60.416664Q445.625 60.416664 445.125 60.90104Q444.64062 61.385414 444.59375 62.21354ZM450.09375 65.916664L452.35938 62.68229L450.26562 59.697914L451.57812 59.697914L452.53125 61.15104Q452.79688 61.572914 452.96875 61.854164Q453.21875 61.46354 453.4375 61.166664L454.48438 59.697914L455.75 59.697914L453.59375 62.61979L455.90625 65.916664L454.625 65.916664L453.34375 63.979164L453.0 63.46354L451.35938 65.916664L450.09375 65.916664ZM459.09375 64.979164L459.25 65.90104Q458.79688 65.99479 458.45312 65.99479Q457.875 65.99479 457.5625 65.822914Q457.25 65.635414 457.10938 65.33854Q456.98438 65.041664 456.98438 64.08854L456.98438 60.510414L456.21875 60.510414L456.21875 59.697914L456.98438 59.697914L456.98438 58.15104L458.03125 57.52604L458.03125 59.697914L459.09375 59.697914L459.09375 60.510414L458.03125 60.510414L458.03125 64.15104Q458.03125 64.604164 458.07812 64.729164Q458.14062 64.854164 458.26562 64.93229Q458.39062 65.010414 458.625 65.010414Q458.8125 65.010414 459.09375 64.979164ZM459.34375 63.479164L460.375 63.33854Q460.40625 64.322914 460.73438 64.68229Q461.0625 65.041664 461.65625 65.041664Q462.07812 65.041664 462.39062 64.854164Q462.70312 64.65104 462.8125 64.322914Q462.9375 63.979164 462.9375 63.24479L462.9375 57.322914L464.0625 57.322914L464.0625 63.18229Q464.0625 64.260414 463.79688 64.854164Q463.54688 65.447914 462.98438 65.760414Q462.42188 66.05729 461.65625 66.05729Q460.53125 66.05729 459.92188 65.416664Q459.32812 64.760414 459.34375 63.479164ZM465.54688 63.15104L466.60938 63.05729Q466.6875 63.71354 466.96875 64.11979Q467.25 64.52604 467.82812 64.791664Q468.42188 65.041664 469.15625 65.041664Q469.79688 65.041664 470.29688 64.854164Q470.79688 64.65104 471.03125 64.322914Q471.28125 63.979164 471.28125 63.58854Q471.28125 63.18229 471.04688 62.885414Q470.8125 62.572914 470.28125 62.36979Q469.92188 62.229164 468.73438 61.947914Q467.5625 61.666664 467.09375 61.416664Q466.46875 61.08854 466.17188 60.61979Q465.875 60.135414 465.875 59.541664Q465.875 58.90104 466.23438 58.33854Q466.60938 57.760414 467.3125 57.479164Q468.03125 57.18229 468.89062 57.18229Q469.84375 57.18229 470.57812 57.49479Q471.3125 57.791664 471.70312 58.40104Q472.09375 58.99479 472.125 59.74479L471.03125 59.822914Q470.9375 59.010414 470.42188 58.604164Q469.92188 58.18229 468.9375 58.18229Q467.90625 58.18229 467.4375 58.55729Q466.96875 58.93229 466.96875 59.46354Q466.96875 59.93229 467.29688 60.229164Q467.625 60.52604 469.0 60.83854Q470.39062 61.15104 470.90625 61.385414Q471.65625 61.74479 472.01562 62.27604Q472.375 62.791664 472.375 63.49479Q472.375 64.18229 471.98438 64.791664Q471.59375 65.385414 470.85938 65.729164Q470.125 66.05729 469.20312 66.05729Q468.03125 66.05729 467.23438 65.729164Q466.45312 65.385414 466.0 64.697914Q465.5625 64.010414 465.54688 63.15104Z" fill-rule="nonzero"/><path fill="#757575" d="M19.45625 32.95625L21.2375 32.8Q21.3625 33.8625 21.815624 34.55Q22.284374 35.2375 23.253124 35.675Q24.2375 36.096874 25.471874 36.096874Q26.55 36.096874 27.378124 35.784374Q28.20625 35.45625 28.6125 34.89375Q29.01875 34.33125 29.01875 33.659374Q29.01875 32.9875 28.628124 32.4875Q28.2375 31.9875 27.346874 31.64375Q26.76875 31.409374 24.784374 30.940624Q22.815624 30.471874 22.034374 30.05Q21.003124 29.51875 20.503124 28.721874Q20.003124 27.925 20.003124 26.940624Q20.003124 25.846874 20.6125 24.909374Q21.221874 23.971874 22.409374 23.4875Q23.596874 22.9875 25.034374 22.9875Q26.628124 22.9875 27.846874 23.503124Q29.065624 24.01875 29.70625 25.01875Q30.3625 26.003124 30.409374 27.26875L28.596874 27.409374Q28.45625 26.05 27.6125 25.3625Q26.76875 24.659374 25.1125 24.659374Q23.39375 24.659374 22.596874 25.3Q21.815624 25.925 21.815624 26.8Q21.815624 27.58125 22.378124 28.08125Q22.925 28.58125 25.2375 29.096874Q27.55 29.6125 28.409374 30.003124Q29.659374 30.58125 30.253124 31.471874Q30.846874 32.346874 30.846874 33.503124Q30.846874 34.64375 30.190624 35.659374Q29.534374 36.675 28.3 37.2375Q27.08125 37.8 25.55 37.8Q23.6125 37.8 22.3 37.2375Q20.9875 36.659374 20.2375 35.51875Q19.4875 34.378124 19.45625 32.95625ZM32.784374 41.55L32.596874 39.89375Q33.175 40.05 33.596874 40.05Q34.190624 40.05 34.534374 39.846874Q34.89375 39.659374 35.1125 39.315624Q35.284374 39.05 35.659374 38.003124Q35.70625 37.846874 35.815624 37.565624L31.878124 27.175L33.76875 27.175L35.925 33.190624Q36.346874 34.33125 36.675 35.58125Q36.9875 34.378124 37.39375 33.221874L39.6125 27.175L41.378124 27.175L37.425 37.721874Q36.8 39.440624 36.440624 40.08125Q35.971874 40.95625 35.3625 41.346874Q34.76875 41.753124 33.925 41.753124Q33.409374 41.753124 32.784374 41.55ZM49.596874 37.55L49.596874 36.2375Q48.6125 37.784374 46.690624 37.784374Q45.45625 37.784374 44.409374 37.096874Q43.378124 36.409374 42.8 35.190624Q42.2375 33.971874 42.2375 32.378124Q42.2375 30.815624 42.753124 29.55Q43.26875 28.284374 44.3 27.6125Q45.346874 26.940624 46.6125 26.940624Q47.55 26.940624 48.284374 27.346874Q49.01875 27.7375 49.4875 28.3625L49.4875 23.2375L51.221874 23.2375L51.221874 37.55L49.596874 37.55ZM44.034374 32.378124Q44.034374 34.3625 44.878124 35.346874Q45.721874 36.33125 46.8625 36.33125Q48.01875 36.33125 48.815624 35.39375Q49.628124 34.45625 49.628124 32.51875Q49.628124 30.39375 48.8 29.39375Q47.9875 28.39375 46.784374 28.39375Q45.6125 28.39375 44.815624 29.3625Q44.034374 30.315624 44.034374 32.378124ZM53.8625 37.55L53.8625 27.175L55.45625 27.175L55.45625 28.659374Q56.596874 26.940624 58.753124 26.940624Q59.690624 26.940624 60.471874 27.284374Q61.26875 27.6125 61.659374 28.159374Q62.05 28.70625 62.20625 29.45625Q62.3 29.95625 62.3 31.175L62.3 37.55L60.534374 37.55L60.534374 31.2375Q60.534374 30.159374 60.33125 29.628124Q60.128124 29.096874 59.596874 28.784374Q59.08125 28.471874 58.378124 28.471874Q57.253124 28.471874 56.440624 29.190624Q55.628124 29.89375 55.628124 31.878124L55.628124 37.55L53.8625 37.55ZM71.97188 34.20625L73.78438 34.440624Q73.3625 36.01875 72.19063 36.909374Q71.03438 37.784374 69.22188 37.784374Q66.95625 37.784374 65.6125 36.39375Q64.28438 34.9875 64.28438 32.45625Q64.28438 29.83125 65.62813 28.39375Q66.97188 26.940624 69.12813 26.940624Q71.20625 26.940624 72.51875 28.3625Q73.84688 29.76875 73.84688 32.346874Q73.84688 32.503124 73.83125 32.815624L66.09688 32.815624Q66.19063 34.51875 67.06563 35.425Q67.94063 36.33125 69.2375 36.33125Q70.20625 36.33125 70.87813 35.83125Q71.56563 35.315624 71.97188 34.20625ZM66.19063 31.3625L71.9875 31.3625Q71.87813 30.065624 71.33125 29.409374Q70.4875 28.39375 69.14375 28.39375Q67.94063 28.39375 67.1125 29.20625Q66.28438 30.003124 66.19063 31.3625ZM75.78438 41.55L75.59688 39.89375Q76.175 40.05 76.59688 40.05Q77.19063 40.05 77.53438 39.846874Q77.89375 39.659374 78.1125 39.315624Q78.28438 39.05 78.65938 38.003124Q78.70625 37.846874 78.81563 37.565624L74.87813 27.175L76.76875 27.175L78.925 33.190624Q79.34688 34.33125 79.675 35.58125Q79.9875 34.378124 80.39375 33.221874L82.6125 27.175L84.37813 27.175L80.425 37.721874Q79.8 39.440624 79.44063 40.08125Q78.97188 40.95625 78.3625 41.346874Q77.76875 41.753124 76.925 41.753124Q76.40938 41.753124 75.78438 41.55Z" fill-rule="nonzero"/></svg>