<svg version="1.1" viewBox="0.0 0.0 600.0 371.0" fill="none" stroke="none" stroke-linecap="square" stroke-miterlimit="10" width="600" height="371" xmlns:xlink="http://www.w3.org/1999/xlink" xmlns="http://www.w3.org/2000/svg"><path fill="#ffffff" d="M0 0L600.0 0L600.0 371.0L0 371.0L0 0Z" fill-rule="nonzero"/><path stroke="#cccccc" stroke-width="1.0" stroke-linecap="butt" d="M174.5 61.5L174.5 300.5" fill-rule="nonzero"/><path stroke="#cccccc" stroke-width="1.0" stroke-linecap="butt" d="M276.5 61.5L276.5 300.5" fill-rule="nonzero"/><path stroke="#cccccc" stroke-width="1.0" stroke-linecap="butt" d="M377.5 61.5L377.5 300.5" fill-rule="nonzero"/><path stroke="#cccccc" stroke-width="1.0" stroke-linecap="butt" d="M479.5 61.5L479.5 300.5" fill-rule="nonzero"/><path stroke="#cccccc" stroke-width="1.0" stroke-linecap="butt" d="M581.5 61.5L581.5 300.5" fill-rule="nonzero"/><path stroke="#333333" stroke-width="1.0" stroke-linecap="butt" d="M77.5 300.5L581.5 300.5" fill-rule="nonzero"/><path stroke="#cccccc" stroke-width="1.0" stroke-linecap="butt" d="M77.5 252.5L581.5 252.5" fill-rule="nonzero"/><path stroke="#cccccc" stroke-width="1.0" stroke-linecap="butt" d="M77.5 205.5L581.5 205.5" fill-rule="nonzero"/><path stroke="#cccccc" stroke-width="1.0" stroke-linecap="butt" d="M77.5 157.5L581.5 157.5" fill-rule="nonzero"/><path stroke="#cccccc" stroke-width="1.0" stroke-linecap="butt" d="M77.5 109.5L581.5 109.5" fill-rule="nonzero"/><path stroke="#cccccc" stroke-width="1.0" stroke-linecap="butt" d="M77.5 61.5L581.5 61.5" fill-rule="nonzero"/><clipPath id="id_0"><path d="M77.55 61.916668L581.45 61.916668L581.45 300.45L77.55 300.45L77.55 61.916668Z" clip-rule="nonzero"/></clipPath><path stroke="#4285f4" stroke-width="2.0" stroke-linecap="butt" clip-path="url(#id_0)" d="M77.55 90.540665L82.6399 92.83059L87.7298 95.07471L92.819695 97.27395L97.9096 99.4292L102.9995 101.54135L108.08939 103.61126L113.17929 105.63976L118.269196 107.6277L123.35909 109.57588L128.44899 111.4851L133.5389 113.35613L138.62878 115.18974L143.71869 116.98668L148.80858 118.74768L153.89848 120.47346L158.98839 122.16473L164.07828 123.82216L169.16818 125.44645L174.25809 127.03825L179.34798 128.59822L184.43788 130.127L189.52777 131.62518L194.61768 133.09341L199.70758 134.53229L204.79747 135.94237L209.88737 137.32425L214.97728 138.6785L220.06717 140.00566L225.15707 141.30629L230.24696 142.58089L235.33687 143.83002L240.42677 145.05414L245.51666 146.2538L250.60657 147.42944L255.69647 148.58159L260.78638 149.7107L265.87625 150.81721L270.96616 151.90161L276.05606 152.96431L281.14597 154.00575L286.23587 155.02637L291.32574 156.02658L296.41565 157.00677L301.50555 157.96738L306.59546 158.90877L311.68536 159.83131L316.77524 160.73543L321.86514 161.62146L326.95505 162.48976L332.04495 163.3407L337.13486 164.17462L342.22476 164.99185L347.31464 165.79276L352.40454 166.57764L357.49445 167.34682L362.58435 168.1006L367.67426 168.83932L372.76413 169.56328L377.85403 170.27275L382.94394 170.96802L388.03384 171.6494L393.12375 172.31714L398.21362 172.97153L403.30353 173.61284L408.39343 174.24132L413.48334 174.85722L418.57324 175.4608L423.66312 176.05232L428.75302 176.632L433.84293 177.2001L438.93283 177.75684L444.02274 178.30243L449.11264 178.83711L454.2025 179.36111L459.29242 179.87462L464.38232 180.37785L469.47223 180.87103L474.56213 181.35435L479.652 181.82799L484.7419 182.29218L489.83182 182.74706L494.92172 183.19286L500.01163 183.62973L505.1015 184.05786L510.1914 184.47745L515.2813 184.88863L520.3712 185.29158L525.4611 185.6865L530.551 186.07349L535.6409 186.45276L540.73083 186.82443L545.8207 187.18867L550.9106 187.54564L556.0005 187.89546L561.0904 188.23828L566.1803 188.57425L571.2702 188.9035L576.3601 189.22617L581.45 189.54237" fill-rule="nonzero"/><path fill="#000000" fill-opacity="0.0" clip-path="url(#id_0)" d="M80.55 90.540665C80.55 92.19752 79.206856 93.540665 77.55 93.540665C75.89314 93.540665 74.55 92.19752 74.55 90.540665C74.55 88.88381 75.89314 87.540665 77.55 87.540665C79.206856 87.540665 80.55 88.88381 80.55 90.540665Z" fill-rule="nonzero"/><path fill="#000000" fill-opacity="0.0" clip-path="url(#id_0)" d="M85.6399 92.83059C85.6399 94.48744 84.29675 95.83059 82.6399 95.83059C80.98305 95.83059 79.6399 94.48744 79.6399 92.83059C79.6399 91.17373 80.98305 89.83059 82.6399 89.83059C84.29675 89.83059 85.6399 91.17373 85.6399 92.83059Z" fill-rule="nonzero"/><path fill="#000000" fill-opacity="0.0" clip-path="url(#id_0)" d="M90.7298 95.07471C90.7298 96.73156 89.38665 98.07471 87.7298 98.07471C86.072945 98.07471 84.7298 96.73156 84.7298 95.07471C84.7298 93.417854 86.072945 92.07471 87.7298 92.07471C89.38665 92.07471 90.7298 93.417854 90.7298 95.07471Z" fill-rule="nonzero"/><path fill="#000000" fill-opacity="0.0" clip-path="url(#id_0)" d="M95.819695 97.27395C95.819695 98.9308 94.476555 100.27395 92.819695 100.27395C91.16284 100.27395 89.819695 98.9308 89.819695 97.27395C89.819695 95.617096 91.16284 94.27395 92.819695 94.27395C94.476555 94.27395 95.819695 95.617096 95.819695 97.27395Z" fill-rule="nonzero"/><path fill="#000000" fill-opacity="0.0" clip-path="url(#id_0)" d="M100.9096 99.4292C100.9096 101.08606 99.56645 102.4292 97.9096 102.4292C96.25274 102.4292 94.9096 101.08606 94.9096 99.4292C94.9096 97.77235 96.25274 96.4292 97.9096 96.4292C99.56645 96.4292 100.9096 97.77235 100.9096 99.4292Z" fill-rule="nonzero"/><path fill="#000000" fill-opacity="0.0" clip-path="url(#id_0)" d="M105.9995 101.54135C105.9995 103.198204 104.65635 104.54135 102.9995 104.54135C101.34264 104.54135 99.9995 103.198204 99.9995 101.54135C99.9995 99.8845 101.34264 98.54135 102.9995 98.54135C104.65635 98.54135 105.9995 99.8845 105.9995 101.54135Z" fill-rule="nonzero"/><path fill="#000000" fill-opacity="0.0" clip-path="url(#id_0)" d="M111.08939 103.61126C111.08939 105.26811 109.74625 106.61126 108.08939 106.61126C106.43254 106.61126 105.08939 105.26811 105.08939 103.61126C105.08939 101.95441 106.43254 100.61126 108.08939 100.61126C109.74625 100.61126 111.08939 101.95441 111.08939 103.61126Z" fill-rule="nonzero"/><path fill="#000000" fill-opacity="0.0" clip-path="url(#id_0)" d="M116.17929 105.63976C116.17929 107.29662 114.83614 108.63976 113.17929 108.63976C111.52244 108.63976 110.17929 107.29662 110.17929 105.63976C110.17929 103.98291 111.52244 102.63976 113.17929 102.63976C114.83614 102.63976 116.17929 103.98291 116.17929 105.63976Z" fill-rule="nonzero"/><path fill="#000000" fill-opacity="0.0" clip-path="url(#id_0)" d="M121.269196 107.6277C121.269196 109.28456 119.92605 110.6277 118.269196 110.6277C116.612335 110.6277 115.269196 109.28456 115.269196 107.6277C115.269196 105.97085 116.612335 104.6277 118.269196 104.6277C119.92605 104.6277 121.269196 105.97085 121.269196 107.6277Z" fill-rule="nonzero"/><path fill="#000000" fill-opacity="0.0" clip-path="url(#id_0)" d="M126.35909 109.57588C126.35909 111.232735 125.015945 112.57588 123.35909 112.57588C121.70224 112.57588 120.35909 111.232735 120.35909 109.57588C120.35909 107.91903 121.70224 106.57588 123.35909 106.57588C125.015945 106.57588 126.35909 107.91903 126.35909 109.57588Z" fill-rule="nonzero"/><path fill="#000000" fill-opacity="0.0" clip-path="url(#id_0)" d="M131.44899 111.4851C131.44899 113.14195 130.10585 114.4851 128.44899 114.4851C126.79214 114.4851 125.44899 113.14195 125.44899 111.4851C125.44899 109.82825 126.79214 108.4851 128.44899 108.4851C130.10585 108.4851 131.44899 109.82825 131.44899 111.4851Z" fill-rule="nonzero"/><path fill="#000000" fill-opacity="0.0" clip-path="url(#id_0)" d="M136.5389 113.35613C136.5389 115.012985 135.19574 116.35613 133.5389 116.35613C131.88203 116.35613 130.5389 115.012985 130.5389 113.35613C130.5389 111.69927 131.88203 110.35613 133.5389 110.35613C135.19574 110.35613 136.5389 111.69927 136.5389 113.35613Z" fill-rule="nonzero"/><path fill="#000000" fill-opacity="0.0" clip-path="url(#id_0)" d="M141.62878 115.18974C141.62878 116.846596 140.28564 118.18974 138.62878 118.18974C136.97194 118.18974 135.62878 116.846596 135.62878 115.18974C135.62878 113.53288 136.97194 112.18974 138.62878 112.18974C140.28564 112.18974 141.62878 113.53288 141.62878 115.18974Z" fill-rule="nonzero"/><path fill="#000000" fill-opacity="0.0" clip-path="url(#id_0)" d="M146.71869 116.98668C146.71869 118.64353 145.37553 119.98668 143.71869 119.98668C142.06183 119.98668 140.71869 118.64353 140.71869 116.98668C140.71869 115.32983 142.06183 113.98668 143.71869 113.98668C145.37553 113.98668 146.71869 115.32983 146.71869 116.98668Z" fill-rule="nonzero"/><path fill="#000000" fill-opacity="0.0" clip-path="url(#id_0)" d="M151.80858 118.74768C151.80858 120.40453 150.46544 121.74768 148.80858 121.74768C147.15173 121.74768 145.80858 120.40453 145.80858 118.74768C145.80858 117.09083 147.15173 115.74768 148.80858 115.74768C150.46544 115.74768 151.80858 117.09083 151.80858 118.74768Z" fill-rule="nonzero"/><path fill="#000000" fill-opacity="0.0" clip-path="url(#id_0)" d="M156.89848 120.47346C156.89848 122.13031 155.55534 123.47346 153.89848 123.47346C152.24164 123.47346 150.89848 122.13031 150.89848 120.47346C150.89848 118.816605 152.24164 117.47346 153.89848 117.47346C155.55534 117.47346 156.89848 118.816605 156.89848 120.47346Z" fill-rule="nonzero"/><path fill="#000000" fill-opacity="0.0" clip-path="url(#id_0)" d="M161.98839 122.16473C161.98839 123.82158 160.64523 125.16473 158.98839 125.16473C157.33153 125.16473 155.98839 123.82158 155.98839 122.16473C155.98839 120.507866 157.33153 119.16473 158.98839 119.16473C160.64523 119.16473 161.98839 120.507866 161.98839 122.16473Z" fill-rule="nonzero"/><path fill="#000000" fill-opacity="0.0" clip-path="url(#id_0)" d="M167.07828 123.82216C167.07828 125.47902 165.73514 126.82216 164.07828 126.82216C162.42143 126.82216 161.07828 125.47902 161.07828 123.82216C161.07828 122.165306 162.42143 120.82216 164.07828 120.82216C165.73514 120.82216 167.07828 122.165306 167.07828 123.82216Z" fill-rule="nonzero"/><path fill="#000000" fill-opacity="0.0" clip-path="url(#id_0)" d="M172.16818 125.44645C172.16818 127.10331 170.82504 128.44646 169.16818 128.44646C167.51132 128.44646 166.16818 127.10331 166.16818 125.44645C166.16818 123.7896 167.51132 122.44645 169.16818 122.44645C170.82504 122.44645 172.16818 123.7896 172.16818 125.44645Z" fill-rule="nonzero"/><path fill="#000000" fill-opacity="0.0" clip-path="url(#id_0)" d="M177.25809 127.03825C177.25809 128.69511 175.91493 130.03825 174.25809 130.03825C172.60123 130.03825 171.25809 128.69511 171.25809 127.03825C171.25809 125.3814 172.60123 124.03825 174.25809 124.03825C175.91493 124.03825 177.25809 125.3814 177.25809 127.03825Z" fill-rule="nonzero"/><path fill="#000000" fill-opacity="0.0" clip-path="url(#id_0)" d="M182.34798 128.59822C182.34798 130.25508 181.00484 131.59822 179.34798 131.59822C177.69113 131.59822 176.34798 130.25508 176.34798 128.59822C176.34798 126.94137 177.69113 125.59822 179.34798 125.59822C181.00484 125.59822 182.34798 126.94137 182.34798 128.59822Z" fill-rule="nonzero"/><path fill="#000000" fill-opacity="0.0" clip-path="url(#id_0)" d="M187.43788 130.127C187.43788 131.78384 186.09473 133.127 184.43788 133.127C182.78102 133.127 181.43788 131.78384 181.43788 130.127C181.43788 128.47014 182.78102 127.12699 184.43788 127.12699C186.09473 127.12699 187.43788 128.47014 187.43788 130.127Z" fill-rule="nonzero"/><path fill="#000000" fill-opacity="0.0" clip-path="url(#id_0)" d="M192.52777 131.62518C192.52777 133.28204 191.18463 134.62518 189.52777 134.62518C187.87093 134.62518 186.52777 133.28204 186.52777 131.62518C186.52777 129.96834 187.87093 128.62518 189.52777 128.62518C191.18463 128.62518 192.52777 129.96834 192.52777 131.62518Z" fill-rule="nonzero"/><path fill="#000000" fill-opacity="0.0" clip-path="url(#id_0)" d="M197.61768 133.09341C197.61768 134.75027 196.27454 136.09341 194.61768 136.09341C192.96082 136.09341 191.61768 134.75027 191.61768 133.09341C191.61768 131.43657 192.96082 130.09341 194.61768 130.09341C196.27454 130.09341 197.61768 131.43657 197.61768 133.09341Z" fill-rule="nonzero"/><path fill="#000000" fill-opacity="0.0" clip-path="url(#id_0)" d="M202.70758 134.53229C202.70758 136.18913 201.36443 137.53229 199.70758 137.53229C198.05072 137.53229 196.70758 136.18913 196.70758 134.53229C196.70758 132.87543 198.05072 131.53229 199.70758 131.53229C201.36443 131.53229 202.70758 132.87543 202.70758 134.53229Z" fill-rule="nonzero"/><path fill="#000000" fill-opacity="0.0" clip-path="url(#id_0)" d="M207.79747 135.94237C207.79747 137.59923 206.45433 138.94237 204.79747 138.94237C203.14062 138.94237 201.79747 137.59923 201.79747 135.94237C201.79747 134.2855 203.14062 132.94237 204.79747 132.94237C206.45433 132.94237 207.79747 134.2855 207.79747 135.94237Z" fill-rule="nonzero"/><path fill="#000000" fill-opacity="0.0" clip-path="url(#id_0)" d="M212.88737 137.32425C212.88737 138.98111 211.54424 140.32425 209.88737 140.32425C208.23051 140.32425 206.88737 138.98111 206.88737 137.32425C206.88737 135.6674 208.23051 134.32425 209.88737 134.32425C211.54424 134.32425 212.88737 135.6674 212.88737 137.32425Z" fill-rule="nonzero"/><path fill="#000000" fill-opacity="0.0" clip-path="url(#id_0)" d="M217.97728 138.6785C217.97728 140.33536 216.63412 141.6785 214.97728 141.6785C213.32042 141.6785 211.97728 140.33536 211.97728 138.6785C211.97728 137.02165 213.32042 135.6785 214.97728 135.6785C216.63412 135.6785 217.97728 137.02165 217.97728 138.6785Z" fill-rule="nonzero"/><path fill="#000000" fill-opacity="0.0" clip-path="url(#id_0)" d="M223.06717 140.00566C223.06717 141.66252 221.72403 143.00566 220.06717 143.00566C218.41032 143.00566 217.06717 141.66252 217.06717 140.00566C217.06717 138.34882 218.41032 137.00566 220.06717 137.00566C221.72403 137.00566 223.06717 138.34882 223.06717 140.00566Z" fill-rule="nonzero"/><path fill="#000000" fill-opacity="0.0" clip-path="url(#id_0)" d="M228.15707 141.30629C228.15707 142.96313 226.81392 144.30629 225.15707 144.30629C223.50021 144.30629 222.15707 142.96313 222.15707 141.30629C222.15707 139.64943 223.50021 138.30629 225.15707 138.30629C226.81392 138.30629 228.15707 139.64943 228.15707 141.30629Z" fill-rule="nonzero"/><path fill="#000000" fill-opacity="0.0" clip-path="url(#id_0)" d="M233.24696 142.58089C233.24696 144.23775 231.90382 145.58089 230.24696 145.58089C228.59012 145.58089 227.24696 144.23775 227.24696 142.58089C227.24696 140.92404 228.59012 139.58089 230.24696 139.58089C231.90382 139.58089 233.24696 140.92404 233.24696 142.58089Z" fill-rule="nonzero"/><path fill="#000000" fill-opacity="0.0" clip-path="url(#id_0)" d="M238.33687 143.83002C238.33687 145.48686 236.99373 146.83002 235.33687 146.83002C233.68001 146.83002 232.33687 145.48686 232.33687 143.83002C232.33687 142.17316 233.68001 140.83002 235.33687 140.83002C236.99373 140.83002 238.33687 142.17316 238.33687 143.83002Z" fill-rule="nonzero"/><path fill="#000000" fill-opacity="0.0" clip-path="url(#id_0)" d="M243.42677 145.05414C243.42677 146.711 242.08362 148.05414 240.42677 148.05414C238.76991 148.05414 237.42677 146.711 237.42677 145.05414C237.42677 143.3973 238.76991 142.05414 240.42677 142.05414C242.08362 142.05414 243.42677 143.3973 243.42677 145.05414Z" fill-rule="nonzero"/><path fill="#000000" fill-opacity="0.0" clip-path="url(#id_0)" d="M248.51666 146.2538C248.51666 147.91064 247.17352 149.2538 245.51666 149.2538C243.85982 149.2538 242.51666 147.91064 242.51666 146.2538C242.51666 144.59694 243.85982 143.2538 245.51666 143.2538C247.17352 143.2538 248.51666 144.59694 248.51666 146.2538Z" fill-rule="nonzero"/><path fill="#000000" fill-opacity="0.0" clip-path="url(#id_0)" d="M253.60657 147.42944C253.60657 149.0863 252.26341 150.42944 250.60657 150.42944C248.9497 150.42944 247.60657 149.0863 247.60657 147.42944C247.60657 145.7726 248.9497 144.42944 250.60657 144.42944C252.26341 144.42944 253.60657 145.7726 253.60657 147.42944Z" fill-rule="nonzero"/><path fill="#000000" fill-opacity="0.0" clip-path="url(#id_0)" d="M258.69647 148.58159C258.69647 150.23845 257.35333 151.58159 255.69647 151.58159C254.03961 151.58159 252.69647 150.23845 252.69647 148.58159C252.69647 146.92474 254.03961 145.58159 255.69647 145.58159C257.35333 145.58159 258.69647 146.92474 258.69647 148.58159Z" fill-rule="nonzero"/><path fill="#000000" fill-opacity="0.0" clip-path="url(#id_0)" d="M263.78638 149.7107C263.78638 151.36755 262.4432 152.7107 260.78638 152.7107C259.12952 152.7107 257.78638 151.36755 257.78638 149.7107C257.78638 148.05385 259.12952 146.7107 260.78638 146.7107C262.4432 146.7107 263.78638 148.05385 263.78638 149.7107Z" fill-rule="nonzero"/><path fill="#000000" fill-opacity="0.0" clip-path="url(#id_0)" d="M268.87625 150.81721C268.87625 152.47408 267.5331 153.81721 265.87625 153.81721C264.21942 153.81721 262.87625 152.47408 262.87625 150.81721C262.87625 149.16035 264.21942 147.81721 265.87625 147.81721C267.5331 147.81721 268.87625 149.16035 268.87625 150.81721Z" fill-rule="nonzero"/><path fill="#000000" fill-opacity="0.0" clip-path="url(#id_0)" d="M273.96616 151.90161C273.96616 153.55846 272.62302 154.90161 270.96616 154.90161C269.3093 154.90161 267.96616 153.55846 267.96616 151.90161C267.96616 150.24475 269.3093 148.90161 270.96616 148.90161C272.62302 148.90161 273.96616 150.24475 273.96616 151.90161Z" fill-rule="nonzero"/><path fill="#000000" fill-opacity="0.0" clip-path="url(#id_0)" d="M279.05606 152.96431C279.05606 154.62115 277.71292 155.96431 276.05606 155.96431C274.3992 155.96431 273.05606 154.62115 273.05606 152.96431C273.05606 151.30745 274.3992 149.96431 276.05606 149.96431C277.71292 149.96431 279.05606 151.30745 279.05606 152.96431Z" fill-rule="nonzero"/><path fill="#000000" fill-opacity="0.0" clip-path="url(#id_0)" d="M284.14597 154.00575C284.14597 155.66261 282.80283 157.00575 281.14597 157.00575C279.4891 157.00575 278.14597 155.66261 278.14597 154.00575C278.14597 152.34889 279.4891 151.00575 281.14597 151.00575C282.80283 151.00575 284.14597 152.34889 284.14597 154.00575Z" fill-rule="nonzero"/><path fill="#000000" fill-opacity="0.0" clip-path="url(#id_0)" d="M289.23587 155.02637C289.23587 156.68323 287.8927 158.02637 286.23587 158.02637C284.579 158.02637 283.23587 156.68323 283.23587 155.02637C283.23587 153.36952 284.579 152.02637 286.23587 152.02637C287.8927 152.02637 289.23587 153.36952 289.23587 155.02637Z" fill-rule="nonzero"/><path fill="#000000" fill-opacity="0.0" clip-path="url(#id_0)" d="M294.32574 156.02658C294.32574 157.68343 292.9826 159.02658 291.32574 159.02658C289.6689 159.02658 288.32574 157.68343 288.32574 156.02658C288.32574 154.36972 289.6689 153.02658 291.32574 153.02658C292.9826 153.02658 294.32574 154.36972 294.32574 156.02658Z" fill-rule="nonzero"/><path fill="#000000" fill-opacity="0.0" clip-path="url(#id_0)" d="M299.41565 157.00677C299.41565 158.66364 298.0725 160.00677 296.41565 160.00677C294.7588 160.00677 293.41565 158.66364 293.41565 157.00677C293.41565 155.34993 294.7588 154.00677 296.41565 154.00677C298.0725 154.00677 299.41565 155.34993 299.41565 157.00677Z" fill-rule="nonzero"/><path fill="#000000" fill-opacity="0.0" clip-path="url(#id_0)" d="M304.50555 157.96738C304.50555 159.62424 303.1624 160.96738 301.50555 160.96738C299.8487 160.96738 298.50555 159.62424 298.50555 157.96738C298.50555 156.31052 299.8487 154.96738 301.50555 154.96738C303.1624 154.96738 304.50555 156.31052 304.50555 157.96738Z" fill-rule="nonzero"/><path fill="#000000" fill-opacity="0.0" clip-path="url(#id_0)" d="M309.59546 158.90877C309.59546 160.56561 308.25232 161.90877 306.59546 161.90877C304.9386 161.90877 303.59546 160.56561 303.59546 158.90877C303.59546 157.2519 304.9386 155.90877 306.59546 155.90877C308.25232 155.90877 309.59546 157.2519 309.59546 158.90877Z" fill-rule="nonzero"/><path fill="#000000" fill-opacity="0.0" clip-path="url(#id_0)" d="M314.68536 159.83131C314.68536 161.48817 313.3422 162.83131 311.68536 162.83131C310.0285 162.83131 308.68536 161.48817 308.68536 159.83131C308.68536 158.17447 310.0285 156.83131 311.68536 156.83131C313.3422 156.83131 314.68536 158.17447 314.68536 159.83131Z" fill-rule="nonzero"/><path fill="#000000" fill-opacity="0.0" clip-path="url(#id_0)" d="M319.77524 160.73543C319.77524 162.39229 318.4321 163.73543 316.77524 163.73543C315.1184 163.73543 313.77524 162.39229 313.77524 160.73543C313.77524 159.07857 315.1184 157.73543 316.77524 157.73543C318.4321 157.73543 319.77524 159.07857 319.77524 160.73543Z" fill-rule="nonzero"/><path fill="#000000" fill-opacity="0.0" clip-path="url(#id_0)" d="M324.86514 161.62146C324.86514 163.2783 323.522 164.62146 321.86514 164.62146C320.20828 164.62146 318.86514 163.2783 318.86514 161.62146C318.86514 159.9646 320.20828 158.62146 321.86514 158.62146C323.522 158.62146 324.86514 159.9646 324.86514 161.62146Z" fill-rule="nonzero"/><path fill="#000000" fill-opacity="0.0" clip-path="url(#id_0)" d="M329.95505 162.48976C329.95505 164.1466 328.6119 165.48976 326.95505 165.48976C325.2982 165.48976 323.95505 164.1466 323.95505 162.48976C323.95505 160.8329 325.2982 159.48976 326.95505 159.48976C328.6119 159.48976 329.95505 160.8329 329.95505 162.48976Z" fill-rule="nonzero"/><path fill="#000000" fill-opacity="0.0" clip-path="url(#id_0)" d="M335.04495 163.3407C335.04495 164.99754 333.7018 166.3407 332.04495 166.3407C330.3881 166.3407 329.04495 164.99754 329.04495 163.3407C329.04495 161.68384 330.3881 160.3407 332.04495 160.3407C333.7018 160.3407 335.04495 161.68384 335.04495 163.3407Z" fill-rule="nonzero"/><path fill="#000000" fill-opacity="0.0" clip-path="url(#id_0)" d="M340.13486 164.17462C340.13486 165.83147 338.79172 167.17462 337.13486 167.17462C335.478 167.17462 334.13486 165.83147 334.13486 164.17462C334.13486 162.51776 335.478 161.17462 337.13486 161.17462C338.79172 161.17462 340.13486 162.51776 340.13486 164.17462Z" fill-rule="nonzero"/><path fill="#000000" fill-opacity="0.0" clip-path="url(#id_0)" d="M345.22476 164.99185C345.22476 166.64871 343.8816 167.99185 342.22476 167.99185C340.5679 167.99185 339.22476 166.64871 339.22476 164.99185C339.22476 163.335 340.5679 161.99185 342.22476 161.99185C343.8816 161.99185 345.22476 163.335 345.22476 164.99185Z" fill-rule="nonzero"/><path fill="#000000" fill-opacity="0.0" clip-path="url(#id_0)" d="M350.31464 165.79276C350.31464 167.4496 348.9715 168.79276 347.31464 168.79276C345.6578 168.79276 344.31464 167.4496 344.31464 165.79276C344.31464 164.1359 345.6578 162.79276 347.31464 162.79276C348.9715 162.79276 350.31464 164.1359 350.31464 165.79276Z" fill-rule="nonzero"/><path fill="#000000" fill-opacity="0.0" clip-path="url(#id_0)" d="M355.40454 166.57764C355.40454 168.23448 354.0614 169.57764 352.40454 169.57764C350.74768 169.57764 349.40454 168.23448 349.40454 166.57764C349.40454 164.92078 350.74768 163.57764 352.40454 163.57764C354.0614 163.57764 355.40454 164.92078 355.40454 166.57764Z" fill-rule="nonzero"/><path fill="#000000" fill-opacity="0.0" clip-path="url(#id_0)" d="M360.49445 167.34682C360.49445 169.00366 359.1513 170.34682 357.49445 170.34682C355.8376 170.34682 354.49445 169.00366 354.49445 167.34682C354.49445 165.68996 355.8376 164.34682 357.49445 164.34682C359.1513 164.34682 360.49445 165.68996 360.49445 167.34682Z" fill-rule="nonzero"/><path fill="#000000" fill-opacity="0.0" clip-path="url(#id_0)" d="M365.58435 168.1006C365.58435 169.75746 364.2412 171.1006 362.58435 171.1006C360.9275 171.1006 359.58435 169.75746 359.58435 168.1006C359.58435 166.44376 360.9275 165.1006 362.58435 165.1006C364.2412 165.1006 365.58435 166.44376 365.58435 168.1006Z" fill-rule="nonzero"/><path fill="#000000" fill-opacity="0.0" clip-path="url(#id_0)" d="M370.67426 168.83932C370.67426 170.49619 369.3311 171.83932 367.67426 171.83932C366.0174 171.83932 364.67426 170.49619 364.67426 168.83932C364.67426 167.18248 366.0174 165.83932 367.67426 165.83932C369.3311 165.83932 370.67426 167.18248 370.67426 168.83932Z" fill-rule="nonzero"/><path fill="#000000" fill-opacity="0.0" clip-path="url(#id_0)" d="M375.76413 169.56328C375.76413 171.22012 374.421 172.56328 372.76413 172.56328C371.1073 172.56328 369.76413 171.22012 369.76413 169.56328C369.76413 167.90642 371.1073 166.56328 372.76413 166.56328C374.421 166.56328 375.76413 167.90642 375.76413 169.56328Z" fill-rule="nonzero"/><path fill="#000000" fill-opacity="0.0" clip-path="url(#id_0)" d="M380.85403 170.27275C380.85403 171.9296 379.5109 173.27275 377.85403 173.27275C376.19717 173.27275 374.85403 171.9296 374.85403 170.27275C374.85403 168.61589 376.19717 167.27275 377.85403 167.27275C379.5109 167.27275 380.85403 168.61589 380.85403 170.27275Z" fill-rule="nonzero"/><path fill="#000000" fill-opacity="0.0" clip-path="url(#id_0)" d="M385.94394 170.96802C385.94394 172.62488 384.6008 173.96802 382.94394 173.96802C381.28708 173.96802 379.94394 172.62488 379.94394 170.96802C379.94394 169.31117 381.28708 167.96802 382.94394 167.96802C384.6008 167.96802 385.94394 169.31117 385.94394 170.96802Z" fill-rule="nonzero"/><path fill="#000000" fill-opacity="0.0" clip-path="url(#id_0)" d="M391.03384 171.6494C391.03384 173.30624 389.6907 174.6494 388.03384 174.6494C386.37698 174.6494 385.03384 173.30624 385.03384 171.6494C385.03384 169.99254 386.37698 168.6494 388.03384 168.6494C389.6907 168.6494 391.03384 169.99254 391.03384 171.6494Z" fill-rule="nonzero"/><path fill="#000000" fill-opacity="0.0" clip-path="url(#id_0)" d="M396.12375 172.31714C396.12375 173.974 394.78058 175.31714 393.12375 175.31714C391.4669 175.31714 390.12375 173.974 390.12375 172.31714C390.12375 170.6603 391.4669 169.31714 393.12375 169.31714C394.78058 169.31714 396.12375 170.6603 396.12375 172.31714Z" fill-rule="nonzero"/><path fill="#000000" fill-opacity="0.0" clip-path="url(#id_0)" d="M401.21362 172.97153C401.21362 174.62839 399.87048 175.97153 398.21362 175.97153C396.5568 175.97153 395.21362 174.62839 395.21362 172.97153C395.21362 171.31468 396.5568 169.97153 398.21362 169.97153C399.87048 169.97153 401.21362 171.31468 401.21362 172.97153Z" fill-rule="nonzero"/><path fill="#000000" fill-opacity="0.0" clip-path="url(#id_0)" d="M406.30353 173.61284C406.30353 175.26968 404.9604 176.61284 403.30353 176.61284C401.64667 176.61284 400.30353 175.26968 400.30353 173.61284C400.30353 171.95598 401.64667 170.61284 403.30353 170.61284C404.9604 170.61284 406.30353 171.95598 406.30353 173.61284Z" fill-rule="nonzero"/><path fill="#000000" fill-opacity="0.0" clip-path="url(#id_0)" d="M411.39343 174.24132C411.39343 175.89816 410.0503 177.24132 408.39343 177.24132C406.73657 177.24132 405.39343 175.89816 405.39343 174.24132C405.39343 172.58446 406.73657 171.24132 408.39343 171.24132C410.0503 171.24132 411.39343 172.58446 411.39343 174.24132Z" fill-rule="nonzero"/><path fill="#000000" fill-opacity="0.0" clip-path="url(#id_0)" d="M416.48334 174.85722C416.48334 176.51407 415.1402 177.85722 413.48334 177.85722C411.82648 177.85722 410.48334 176.51407 410.48334 174.85722C410.48334 173.20036 411.82648 171.85722 413.48334 171.85722C415.1402 171.85722 416.48334 173.20036 416.48334 174.85722Z" fill-rule="nonzero"/><path fill="#000000" fill-opacity="0.0" clip-path="url(#id_0)" d="M421.57324 175.4608C421.57324 177.11766 420.23007 178.4608 418.57324 178.4608C416.91638 178.4608 415.57324 177.11766 415.57324 175.4608C415.57324 173.80396 416.91638 172.4608 418.57324 172.4608C420.23007 172.4608 421.57324 173.80396 421.57324 175.4608Z" fill-rule="nonzero"/><path fill="#000000" fill-opacity="0.0" clip-path="url(#id_0)" d="M426.66312 176.05232C426.66312 177.70918 425.31998 179.05232 423.66312 179.05232C422.0063 179.05232 420.66312 177.70918 420.66312 176.05232C420.66312 174.39546 422.0063 173.05232 423.66312 173.05232C425.31998 173.05232 426.66312 174.39546 426.66312 176.05232Z" fill-rule="nonzero"/><path fill="#000000" fill-opacity="0.0" clip-path="url(#id_0)" d="M431.75302 176.632C431.75302 178.28886 430.40988 179.632 428.75302 179.632C427.09616 179.632 425.75302 178.28886 425.75302 176.632C425.75302 174.97516 427.09616 173.632 428.75302 173.632C430.40988 173.632 431.75302 174.97516 431.75302 176.632Z" fill-rule="nonzero"/><path fill="#000000" fill-opacity="0.0" clip-path="url(#id_0)" d="M436.84293 177.2001C436.84293 178.85696 435.4998 180.2001 433.84293 180.2001C432.18607 180.2001 430.84293 178.85696 430.84293 177.2001C430.84293 175.54324 432.18607 174.2001 433.84293 174.2001C435.4998 174.2001 436.84293 175.54324 436.84293 177.2001Z" fill-rule="nonzero"/><path fill="#000000" fill-opacity="0.0" clip-path="url(#id_0)" d="M441.93283 177.75684C441.93283 179.4137 440.5897 180.75684 438.93283 180.75684C437.27597 180.75684 435.93283 179.4137 435.93283 177.75684C435.93283 176.09998 437.27597 174.75684 438.93283 174.75684C440.5897 174.75684 441.93283 176.09998 441.93283 177.75684Z" fill-rule="nonzero"/><path fill="#000000" fill-opacity="0.0" clip-path="url(#id_0)" d="M447.02274 178.30243C447.02274 179.95929 445.6796 181.30243 444.02274 181.30243C442.36588 181.30243 441.02274 179.95929 441.02274 178.30243C441.02274 176.64558 442.36588 175.30243 444.02274 175.30243C445.6796 175.30243 447.02274 176.64558 447.02274 178.30243Z" fill-rule="nonzero"/><path fill="#000000" fill-opacity="0.0" clip-path="url(#id_0)" d="M452.11264 178.83711C452.11264 180.49397 450.76947 181.83711 449.11264 181.83711C447.45578 181.83711 446.11264 180.49397 446.11264 178.83711C446.11264 177.18027 447.45578 175.83711 449.11264 175.83711C450.76947 175.83711 452.11264 177.18027 452.11264 178.83711Z" fill-rule="nonzero"/><path fill="#000000" fill-opacity="0.0" clip-path="url(#id_0)" d="M457.2025 179.36111C457.2025 181.01796 455.85938 182.36111 454.2025 182.36111C452.5457 182.36111 451.2025 181.01796 451.2025 179.36111C451.2025 177.70425 452.5457 176.36111 454.2025 176.36111C455.85938 176.36111 457.2025 177.70425 457.2025 179.36111Z" fill-rule="nonzero"/><path fill="#000000" fill-opacity="0.0" clip-path="url(#id_0)" d="M462.29242 179.87462C462.29242 181.53148 460.94928 182.87462 459.29242 182.87462C457.63556 182.87462 456.29242 181.53148 456.29242 179.87462C456.29242 178.21776 457.63556 176.87462 459.29242 176.87462C460.94928 176.87462 462.29242 178.21776 462.29242 179.87462Z" fill-rule="nonzero"/><path fill="#000000" fill-opacity="0.0" clip-path="url(#id_0)" d="M467.38232 180.37785C467.38232 182.03471 466.03918 183.37785 464.38232 183.37785C462.72546 183.37785 461.38232 182.03471 461.38232 180.37785C461.38232 178.72101 462.72546 177.37785 464.38232 177.37785C466.03918 177.37785 467.38232 178.72101 467.38232 180.37785Z" fill-rule="nonzero"/><path fill="#000000" fill-opacity="0.0" clip-path="url(#id_0)" d="M472.47223 180.87103C472.47223 182.5279 471.1291 183.87103 469.47223 183.87103C467.81537 183.87103 466.47223 182.5279 466.47223 180.87103C466.47223 179.21419 467.81537 177.87103 469.47223 177.87103C471.1291 177.87103 472.47223 179.21419 472.47223 180.87103Z" fill-rule="nonzero"/><path fill="#000000" fill-opacity="0.0" clip-path="url(#id_0)" d="M477.56213 181.35435C477.56213 183.0112 476.21896 184.35435 474.56213 184.35435C472.90527 184.35435 471.56213 183.0112 471.56213 181.35435C471.56213 179.6975 472.90527 178.35435 474.56213 178.35435C476.21896 178.35435 477.56213 179.6975 477.56213 181.35435Z" fill-rule="nonzero"/><path fill="#000000" fill-opacity="0.0" clip-path="url(#id_0)" d="M482.652 181.82799C482.652 183.48485 481.30887 184.82799 479.652 184.82799C477.99518 184.82799 476.652 183.48485 476.652 181.82799C476.652 180.17114 477.99518 178.82799 479.652 178.82799C481.30887 178.82799 482.652 180.17114 482.652 181.82799Z" fill-rule="nonzero"/><path fill="#000000" fill-opacity="0.0" clip-path="url(#id_0)" d="M487.7419 182.29218C487.7419 183.94902 486.39877 185.29218 484.7419 185.29218C483.08505 185.29218 481.7419 183.94902 481.7419 182.29218C481.7419 180.63531 483.08505 179.29218 484.7419 179.29218C486.39877 179.29218 487.7419 180.63531 487.7419 182.29218Z" fill-rule="nonzero"/><path fill="#000000" fill-opacity="0.0" clip-path="url(#id_0)" d="M492.83182 182.74706C492.83182 184.40392 491.48868 185.74706 489.83182 185.74706C488.17496 185.74706 486.83182 184.40392 486.83182 182.74706C486.83182 181.09021 488.17496 179.74706 489.83182 179.74706C491.48868 179.74706 492.83182 181.09021 492.83182 182.74706Z" fill-rule="nonzero"/><path fill="#000000" fill-opacity="0.0" clip-path="url(#id_0)" d="M497.92172 183.19286C497.92172 184.8497 496.57858 186.19286 494.92172 186.19286C493.26486 186.19286 491.92172 184.8497 491.92172 183.19286C491.92172 181.536 493.26486 180.19286 494.92172 180.19286C496.57858 180.19286 497.92172 181.536 497.92172 183.19286Z" fill-rule="nonzero"/><path fill="#000000" fill-opacity="0.0" clip-path="url(#id_0)" d="M503.01163 183.62973C503.01163 185.28658 501.66846 186.62973 500.01163 186.62973C498.35477 186.62973 497.01163 185.28658 497.01163 183.62973C497.01163 181.97287 498.35477 180.62973 500.01163 180.62973C501.66846 180.62973 503.01163 181.97287 503.01163 183.62973Z" fill-rule="nonzero"/><path fill="#000000" fill-opacity="0.0" clip-path="url(#id_0)" d="M508.1015 184.05786C508.1015 185.71472 506.75836 187.05786 505.1015 187.05786C503.44467 187.05786 502.1015 185.71472 502.1015 184.05786C502.1015 182.40102 503.44467 181.05786 505.1015 181.05786C506.75836 181.05786 508.1015 182.40102 508.1015 184.05786Z" fill-rule="nonzero"/><path fill="#000000" fill-opacity="0.0" clip-path="url(#id_0)" d="M513.1914 184.47745C513.1914 186.1343 511.84827 187.47745 510.1914 187.47745C508.53455 187.47745 507.1914 186.1343 507.1914 184.47745C507.1914 182.82059 508.53455 181.47745 510.1914 181.47745C511.84827 181.47745 513.1914 182.82059 513.1914 184.47745Z" fill-rule="nonzero"/><path fill="#000000" fill-opacity="0.0" clip-path="url(#id_0)" d="M518.2813 184.88863C518.2813 186.54549 516.9382 187.88863 515.2813 187.88863C513.62445 187.88863 512.2813 186.54549 512.2813 184.88863C512.2813 183.23177 513.62445 181.88863 515.2813 181.88863C516.9382 181.88863 518.2813 183.23177 518.2813 184.88863Z" fill-rule="nonzero"/><path fill="#000000" fill-opacity="0.0" clip-path="url(#id_0)" d="M523.3712 185.29158C523.3712 186.94844 522.0281 188.29158 520.3712 188.29158C518.71436 188.29158 517.3712 186.94844 517.3712 185.29158C517.3712 183.63474 518.71436 182.29158 520.3712 182.29158C522.0281 182.29158 523.3712 183.63474 523.3712 185.29158Z" fill-rule="nonzero"/><path fill="#000000" fill-opacity="0.0" clip-path="url(#id_0)" d="M528.4611 185.6865C528.4611 187.34334 527.118 188.6865 525.4611 188.6865C523.80426 188.6865 522.4611 187.34334 522.4611 185.6865C522.4611 184.02963 523.80426 182.6865 525.4611 182.6865C527.118 182.6865 528.4611 184.02963 528.4611 185.6865Z" fill-rule="nonzero"/><path fill="#000000" fill-opacity="0.0" clip-path="url(#id_0)" d="M533.551 186.07349C533.551 187.73035 532.2079 189.07349 530.551 189.07349C528.89417 189.07349 527.551 187.73035 527.551 186.07349C527.551 184.41664 528.89417 183.07349 530.551 183.07349C532.2079 183.07349 533.551 184.41664 533.551 186.07349Z" fill-rule="nonzero"/><path fill="#000000" fill-opacity="0.0" clip-path="url(#id_0)" d="M538.6409 186.45276C538.6409 188.1096 537.2978 189.45276 535.6409 189.45276C533.9841 189.45276 532.6409 188.1096 532.6409 186.45276C532.6409 184.7959 533.9841 183.45276 535.6409 183.45276C537.2978 183.45276 538.6409 184.7959 538.6409 186.45276Z" fill-rule="nonzero"/><path fill="#000000" fill-opacity="0.0" clip-path="url(#id_0)" d="M543.73083 186.82443C543.73083 188.4813 542.38763 189.82443 540.73083 189.82443C539.074 189.82443 537.73083 188.4813 537.73083 186.82443C537.73083 185.16757 539.074 183.82443 540.73083 183.82443C542.38763 183.82443 543.73083 185.16757 543.73083 186.82443Z" fill-rule="nonzero"/><path fill="#000000" fill-opacity="0.0" clip-path="url(#id_0)" d="M548.8207 187.18867C548.8207 188.84554 547.47754 190.18867 545.8207 190.18867C544.1639 190.18867 542.8207 188.84554 542.8207 187.18867C542.8207 185.53183 544.1639 184.18867 545.8207 184.18867C547.47754 184.18867 548.8207 185.53183 548.8207 187.18867Z" fill-rule="nonzero"/><path fill="#000000" fill-opacity="0.0" clip-path="url(#id_0)" d="M553.9106 187.54564C553.9106 189.2025 552.56744 190.54564 550.9106 190.54564C549.2537 190.54564 547.9106 189.2025 547.9106 187.54564C547.9106 185.88878 549.2537 184.54564 550.9106 184.54564C552.56744 184.54564 553.9106 185.88878 553.9106 187.54564Z" fill-rule="nonzero"/><path fill="#000000" fill-opacity="0.0" clip-path="url(#id_0)" d="M559.0005 187.89546C559.0005 189.5523 557.65735 190.89546 556.0005 190.89546C554.3436 190.89546 553.0005 189.5523 553.0005 187.89546C553.0005 186.2386 554.3436 184.89546 556.0005 184.89546C557.65735 184.89546 559.0005 186.2386 559.0005 187.89546Z" fill-rule="nonzero"/><path fill="#000000" fill-opacity="0.0" clip-path="url(#id_0)" d="M564.0904 188.23828C564.0904 189.89514 562.74725 191.23828 561.0904 191.23828C559.43353 191.23828 558.0904 189.89514 558.0904 188.23828C558.0904 186.58142 559.43353 185.23828 561.0904 185.23828C562.74725 185.23828 564.0904 186.58142 564.0904 188.23828Z" fill-rule="nonzero"/><path fill="#000000" fill-opacity="0.0" clip-path="url(#id_0)" d="M569.1803 188.57425C569.1803 190.23111 567.83716 191.57425 566.1803 191.57425C564.52344 191.57425 563.1803 190.23111 563.1803 188.57425C563.1803 186.91739 564.52344 185.57425 566.1803 185.57425C567.83716 185.57425 569.1803 186.91739 569.1803 188.57425Z" fill-rule="nonzero"/><path fill="#000000" fill-opacity="0.0" clip-path="url(#id_0)" d="M574.2702 188.9035C574.2702 190.56035 572.92706 191.9035 571.2702 191.9035C569.61334 191.9035 568.2702 190.56035 568.2702 188.9035C568.2702 187.24664 569.61334 185.9035 571.2702 185.9035C572.92706 185.9035 574.2702 187.24664 574.2702 188.9035Z" fill-rule="nonzero"/><path fill="#000000" fill-opacity="0.0" clip-path="url(#id_0)" d="M579.3601 189.22617C579.3601 190.88301 578.01697 192.22617 576.3601 192.22617C574.70325 192.22617 573.3601 190.88301 573.3601 189.22617C573.3601 187.5693 574.70325 186.22617 576.3601 186.22617C578.01697 186.22617 579.3601 187.5693 579.3601 189.22617Z" fill-rule="nonzero"/><path fill="#000000" fill-opacity="0.0" clip-path="url(#id_0)" d="M584.45 189.54237C584.45 191.19922 583.1069 192.54237 581.45 192.54237C579.79315 192.54237 578.45 191.19922 578.45 189.54237C578.45 187.88551 579.79315 186.54237 581.45 186.54237C583.1069 186.54237 584.45 187.88551 584.45 189.54237Z" fill-rule="nonzero"/><path fill="#000000" d="M316.84375 349.45L316.84375 345.8094L313.53125 340.85626L314.92188 340.85626L316.60938 343.45Q317.07812 344.16876 317.48438 344.90314Q317.875 344.23126 318.42188 343.3875L320.09375 340.85626L321.40625 340.85626L317.98438 345.8094L317.98438 349.45L316.84375 349.45ZM326.54688 347.45L327.64062 347.575Q327.39062 348.52814 326.6875 349.0594Q325.98438 349.59064 324.90625 349.59064Q323.54688 349.59064 322.73438 348.7469Q321.9375 347.90314 321.9375 346.3875Q321.9375 344.825 322.75 343.96564Q323.5625 343.09064 324.84375 343.09064Q326.09375 343.09064 326.875 343.9344Q327.67188 344.77814 327.67188 346.325Q327.67188 346.41876 327.67188 346.60626L323.03125 346.60626Q323.09375 347.6375 323.60938 348.1844Q324.125 348.71564 324.90625 348.71564Q325.48438 348.71564 325.89062 348.41876Q326.3125 348.10626 326.54688 347.45ZM323.09375 345.7469L326.5625 345.7469Q326.5 344.95 326.17188 344.5594Q325.65625 343.95 324.85938 343.95Q324.125 343.95 323.625 344.4344Q323.14062 344.91876 323.09375 345.7469ZM333.35938 348.6844Q332.76562 349.1844 332.21875 349.3875Q331.6875 349.59064 331.0625 349.59064Q330.03125 349.59064 329.48438 349.09064Q328.9375 348.59064 328.9375 347.8094Q328.9375 347.35626 329.14062 346.98126Q329.34375 346.59064 329.6875 346.3719Q330.03125 346.1375 330.45312 346.02814Q330.75 345.9344 331.39062 345.85626Q332.65625 345.71564 333.26562 345.4969Q333.26562 345.27814 333.26562 345.23126Q333.26562 344.575 332.96875 344.3094Q332.5625 343.96564 331.76562 343.96564Q331.03125 343.96564 330.67188 344.23126Q330.3125 344.48126 330.14062 345.1375L329.10938 344.9969Q329.25 344.34064 329.57812 343.9344Q329.90625 343.52814 330.51562 343.3094Q331.125 343.09064 331.92188 343.09064Q332.71875 343.09064 333.21875 343.27814Q333.71875 343.46564 333.95312 343.7469Q334.1875 344.02814 334.28125 344.46564Q334.32812 344.73126 334.32812 345.4344L334.32812 346.84064Q334.32812 348.3094 334.39062 348.7Q334.46875 349.09064 334.67188 349.45L333.5625 349.45Q333.40625 349.1219 333.35938 348.6844ZM333.26562 346.325Q332.6875 346.5594 331.54688 346.73126Q330.89062 346.825 330.625 346.95Q330.35938 347.0594 330.20312 347.27814Q330.0625 347.4969 330.0625 347.77814Q330.0625 348.2 330.375 348.48126Q330.70312 348.7625 331.3125 348.7625Q331.92188 348.7625 332.39062 348.4969Q332.875 348.23126 333.09375 347.7625Q333.26562 347.40314 333.26562 346.71564L333.26562 346.325ZM336.28125 349.45L336.28125 343.23126L337.23438 343.23126L337.23438 344.16876Q337.59375 343.5125 337.89062 343.3094Q338.20312 343.09064 338.57812 343.09064Q339.10938 343.09064 339.65625 343.41876L339.29688 344.40314Q338.90625 344.16876 338.53125 344.16876Q338.17188 344.16876 337.89062 344.3875Q337.625 344.59064 337.51562 344.96564Q337.32812 345.52814 337.32812 346.1844L337.32812 349.45L336.28125 349.45ZM339.875 347.59064L340.90625 347.4344Q341.0 348.0594 341.39062 348.3875Q341.79688 348.71564 342.53125 348.71564Q343.25 348.71564 343.59375 348.4344Q343.95312 348.1375 343.95312 347.73126Q343.95312 347.3719 343.64062 347.16876Q343.42188 347.02814 342.5625 346.8094Q341.40625 346.5125 340.95312 346.3094Q340.51562 346.09064 340.28125 345.71564Q340.04688 345.34064 340.04688 344.8719Q340.04688 344.46564 340.23438 344.10626Q340.42188 343.7469 340.75 343.5125Q341.0 343.34064 341.42188 343.21564Q341.84375 343.09064 342.34375 343.09064Q343.0625 343.09064 343.60938 343.3094Q344.17188 343.5125 344.4375 343.8719Q344.70312 344.23126 344.79688 344.825L343.76562 344.96564Q343.70312 344.4969 343.35938 344.23126Q343.03125 343.95 342.40625 343.95Q341.6875 343.95 341.375 344.2Q341.0625 344.4344 341.0625 344.7625Q341.0625 344.96564 341.1875 345.1219Q341.32812 345.29376 341.59375 345.40314Q341.75 345.46564 342.53125 345.66876Q343.65625 345.98126 344.09375 346.16876Q344.53125 346.35626 344.78125 346.71564Q345.03125 347.075 345.03125 347.6219Q345.03125 348.15314 344.71875 348.6219Q344.42188 349.075 343.84375 349.34064Q343.26562 349.59064 342.53125 349.59064Q341.3125 349.59064 340.67188 349.09064Q340.04688 348.575 339.875 347.59064Z" fill-rule="nonzero"/><path fill="#000000" d="M29.550013 232.76146L20.956263 235.04271L20.956263 233.87083L26.596888 232.55833Q27.471888 232.35521 28.346888 232.19896Q26.971888 231.87083 26.753138 231.80833L20.956263 230.18333L20.956263 228.80833L25.300013 227.57396Q26.925013 227.12083 28.346888 226.90208Q27.534388 226.74583 26.471888 226.48021L20.956263 225.13646L20.956263 223.99583L29.550013 226.33958L29.550013 227.44896L23.003138 229.24583Q22.190638 229.48021 22.003138 229.52708Q22.581263 229.65208 23.003138 229.77708L29.550013 231.58958L29.550013 232.76146ZM27.550013 219.13646L27.675013 218.04271Q28.628138 218.29271 29.159388 218.99583Q29.690638 219.69896 29.690638 220.77708Q29.690638 222.13646 28.846888 222.94896Q28.003138 223.74583 26.487513 223.74583Q24.925013 223.74583 24.065638 222.93333Q23.190638 222.12083 23.190638 220.83958Q23.190638 219.58958 24.034388 218.80833Q24.878138 218.01146 26.425013 218.01146Q26.518763 218.01146 26.706263 218.01146L26.706263 222.65208Q27.737513 222.58958 28.284388 222.07396Q28.815638 221.55833 28.815638 220.77708Q28.815638 220.19896 28.518763 219.79271Q28.206263 219.37083 27.550013 219.13646ZM25.846888 222.58958L25.846888 219.12083Q25.050013 219.18333 24.659388 219.51146Q24.050013 220.02708 24.050013 220.82396Q24.050013 221.55833 24.534388 222.05833Q25.018763 222.54271 25.846888 222.58958ZM28.784388 212.32396Q29.284388 212.91771 29.487513 213.46458Q29.690638 213.99583 29.690638 214.62083Q29.690638 215.65208 29.190638 216.19896Q28.690638 216.74583 27.909388 216.74583Q27.456263 216.74583 27.081263 216.54271Q26.690638 216.33958 26.471888 215.99583Q26.237513 215.65208 26.128138 215.23021Q26.034388 214.93333 25.956263 214.29271Q25.815638 213.02708 25.596888 212.41771Q25.378138 212.41771 25.331263 212.41771Q24.675013 212.41771 24.409388 212.71458Q24.065638 213.12083 24.065638 213.91771Q24.065638 214.65208 24.331263 215.01146Q24.581263 215.37083 25.237513 215.54271L25.096888 216.57396Q24.440638 216.43333 24.034388 216.10521Q23.628138 215.77708 23.409388 215.16771Q23.190638 214.55833 23.190638 213.76146Q23.190638 212.96458 23.378138 212.46458Q23.565638 211.96458 23.846888 211.73021Q24.128138 211.49583 24.565638 211.40208Q24.831263 211.35521 25.534388 211.35521L26.940638 211.35521Q28.409388 211.35521 28.800013 211.29271Q29.190638 211.21458 29.550013 211.01146L29.550013 212.12083Q29.221888 212.27708 28.784388 212.32396ZM26.425013 212.41771Q26.659388 212.99583 26.831263 214.13646Q26.925013 214.79271 27.050013 215.05833Q27.159388 215.32396 27.378138 215.48021Q27.596888 215.62083 27.878138 215.62083Q28.300013 215.62083 28.581263 215.30833Q28.862513 214.98021 28.862513 214.37083Q28.862513 213.76146 28.596888 213.29271Q28.331263 212.80833 27.862513 212.58958Q27.503138 212.41771 26.815638 212.41771L26.425013 212.41771ZM29.550013 209.41771L20.956263 209.41771L20.956263 208.35521L29.550013 208.35521L29.550013 209.41771ZM28.612513 204.08958L29.534388 203.93333Q29.628138 204.38646 29.628138 204.73021Q29.628138 205.30833 29.456263 205.62083Q29.268763 205.93333 28.971888 206.07396Q28.675013 206.19896 27.721888 206.19896L24.143763 206.19896L24.143763 206.96458L23.331263 206.96458L23.331263 206.19896L21.784388 206.19896L21.159388 205.15208L23.331263 205.15208L23.331263 204.08958L24.143763 204.08958L24.143763 205.15208L27.784388 205.15208Q28.237513 205.15208 28.362513 205.10521Q28.487513 205.04271 28.565638 204.91771Q28.643763 204.79271 28.643763 204.55833Q28.643763 204.37083 28.612513 204.08958ZM29.550013 203.38646L20.956263 203.38646L20.956263 202.33958L24.034388 202.33958Q23.190638 201.60521 23.190638 200.48021Q23.190638 199.77708 23.471888 199.27708Q23.737513 198.76146 24.221888 198.54271Q24.690638 198.32396 25.612513 198.32396L29.550013 198.32396L29.550013 199.37083L25.612513 199.37083Q24.815638 199.37083 24.456263 199.71458Q24.096888 200.05833 24.096888 200.68333Q24.096888 201.15208 24.346888 201.57396Q24.581263 201.98021 25.003138 202.16771Q25.409388 202.33958 26.143763 202.33958L29.550013 202.33958L29.550013 203.38646ZM32.08126 191.37083Q30.971888 192.24583 29.503138 192.85521Q28.018763 193.44896 26.440638 193.44896Q25.050013 193.44896 23.768763 193.01146Q22.284388 192.48021 20.815638 191.37083L20.815638 190.62083Q22.034388 191.32396 22.550013 191.55833Q23.362513 191.91771 24.237513 192.12083Q25.331263 192.37083 26.440638 192.37083Q29.268763 192.37083 32.08126 190.62083L32.08126 191.37083ZM30.784388 187.19896L29.737513 187.19896Q29.628138 187.98021 29.378138 188.48021Q29.128138 188.98021 28.565638 189.33958Q27.987513 189.69896 27.159388 189.76146L26.971888 188.69896Q27.815638 188.57396 28.206263 188.26146Q28.768763 187.80833 28.846888 187.19896L25.487513 187.19896Q25.362513 187.83958 24.971888 188.52708Q24.690638 189.02708 24.206263 189.30833Q23.706263 189.57396 23.065638 189.57396Q21.940638 189.57396 21.253138 188.77708Q20.784388 188.24583 20.675013 187.19896L20.175013 187.19896L20.175013 186.57396L20.675013 186.57396Q20.753138 185.65208 21.206263 185.12083Q21.784388 184.41771 22.784388 184.27708L22.956263 185.37083Q22.331263 185.46458 22.003138 185.76146Q21.675013 186.05833 21.565638 186.57396L24.596888 186.57396Q24.800013 185.77708 24.909388 185.51146Q25.128138 185.02708 25.440638 184.71458Q25.753138 184.40208 26.190638 184.24583Q26.612513 184.07396 27.112513 184.07396Q28.206263 184.07396 28.940638 184.77708Q29.675013 185.46458 29.721888 186.57396L30.784388 186.57396L30.784388 187.19896ZM21.550013 187.19896Q21.643763 187.80833 22.050013 188.16771Q22.440638 188.51146 22.987513 188.51146Q23.518763 188.51146 23.893763 188.21458Q24.253138 187.91771 24.471888 187.19896L21.550013 187.19896ZM28.846888 186.57396Q28.768763 185.96458 28.315638 185.55833Q27.846888 185.15208 27.175013 185.15208Q26.596888 185.15208 26.253138 185.44896Q25.909388 185.73021 25.628138 186.57396L28.846888 186.57396ZM29.550013 179.38646L23.331263 179.38646L23.331263 178.44896L24.206263 178.44896Q23.737513 178.15208 23.471888 177.66771Q23.190638 177.18333 23.190638 176.55833Q23.190638 175.87083 23.471888 175.43333Q23.753138 174.98021 24.268763 174.80833Q23.190638 174.05833 23.190638 172.88646Q23.190638 171.94896 23.706263 171.46458Q24.206263 170.96458 25.284388 170.96458L29.550013 170.96458L29.550013 172.01146L25.628138 172.01146Q25.003138 172.01146 24.721888 172.12083Q24.440638 172.21458 24.268763 172.48021Q24.096888 172.74583 24.096888 173.12083Q24.096888 173.77708 24.534388 174.21458Q24.971888 174.63646 25.940638 174.63646L29.550013 174.63646L29.550013 175.69896L25.503138 175.69896Q24.800013 175.69896 24.456263 175.96458Q24.096888 176.21458 24.096888 176.79271Q24.096888 177.24583 24.331263 177.62083Q24.565638 177.99583 25.018763 178.16771Q25.471888 178.33958 26.315638 178.33958L29.550013 178.33958L29.550013 179.38646ZM22.175013 169.38646L20.956263 169.38646L20.956263 168.32396L22.175013 168.32396L22.175013 169.38646ZM29.550013 169.38646L23.331263 169.38646L23.331263 168.32396L29.550013 168.32396L29.550013 169.38646ZM22.175013 166.38646L20.956263 166.38646L20.956263 165.32396L22.175013 165.32396L22.175013 166.38646ZM29.550013 166.38646L23.331263 166.38646L23.331263 165.32396L29.550013 165.32396L29.550013 166.38646ZM29.550013 163.41771L20.956263 163.41771L20.956263 162.35521L29.550013 162.35521L29.550013 163.41771ZM22.175013 160.38646L20.956263 160.38646L20.956263 159.32396L22.175013 159.32396L22.175013 160.38646ZM29.550013 160.38646L23.331263 160.38646L23.331263 159.32396L29.550013 159.32396L29.550013 160.38646ZM26.440638 157.77708Q24.706263 157.77708 23.878138 156.82396Q23.190638 156.02708 23.190638 154.87083Q23.190638 153.58958 24.034388 152.77708Q24.862513 151.94896 26.346888 151.94896Q27.550013 151.94896 28.237513 152.30833Q28.925013 152.66771 29.315638 153.37083Q29.690638 154.05833 29.690638 154.87083Q29.690638 156.16771 28.862513 156.98021Q28.018763 157.77708 26.440638 157.77708ZM26.440638 156.69896Q27.628138 156.69896 28.221888 156.18333Q28.815638 155.65208 28.815638 154.87083Q28.815638 154.07396 28.221888 153.55833Q27.628138 153.04271 26.409388 153.04271Q25.253138 153.04271 24.659388 153.57396Q24.065638 154.08958 24.065638 154.87083Q24.065638 155.65208 24.659388 156.18333Q25.237513 156.69896 26.440638 156.69896ZM29.550013 150.38646L23.331263 150.38646L23.331263 149.44896L24.206263 149.44896Q23.190638 148.76146 23.190638 147.46458Q23.190638 146.90208 23.393763 146.43333Q23.596888 145.94896 23.925013 145.71458Q24.253138 145.48021 24.690638 145.38646Q24.987513 145.33958 25.721888 145.33958L29.550013 145.33958L29.550013 146.38646L25.768763 146.38646Q25.112513 146.38646 24.800013 146.51146Q24.487513 146.63646 24.300013 146.94896Q24.096888 147.26146 24.096888 147.68333Q24.096888 148.35521 24.534388 148.85521Q24.956263 149.33958 26.143763 149.33958L29.550013 149.33958L29.550013 150.38646ZM32.08126 142.69896L32.08126 143.44896Q29.268763 141.69896 26.440638 141.69896Q25.346888 141.69896 24.253138 141.94896Q23.378138 142.15208 22.565638 142.51146Q22.050013 142.74583 20.815638 143.44896L20.815638 142.69896Q22.284388 141.60521 23.768763 141.07396Q25.050013 140.62083 26.440638 140.62083Q28.018763 140.62083 29.503138 141.23021Q30.971888 141.83958 32.08126 142.69896Z" fill-rule="nonzero"/><path fill="#000000" d="M65.05 300.21564Q65.05 298.6844 65.3625 297.7625Q65.675 296.825 66.28438 296.325Q66.90938 295.825 67.84688 295.825Q68.53438 295.825 69.05 296.10626Q69.58125 296.3875 69.925 296.91876Q70.26875 297.4344 70.45625 298.1844Q70.64375 298.9344 70.64375 300.21564Q70.64375 301.73126 70.33125 302.65314Q70.03438 303.575 69.40938 304.09064Q68.8 304.59064 67.84688 304.59064Q66.6125 304.59064 65.89375 303.7Q65.05 302.6375 65.05 300.21564ZM66.12813 300.21564Q66.12813 302.325 66.62813 303.02814Q67.12813 303.73126 67.84688 303.73126Q68.58125 303.73126 69.06563 303.02814Q69.56563 302.325 69.56563 300.21564Q69.56563 298.09064 69.06563 297.40314Q68.58125 296.7 67.83125 296.7Q67.1125 296.7 66.675 297.3094Q66.12813 298.09064 66.12813 300.21564Z" fill-rule="nonzero"/><path fill="#000000" d="M63.596874 255.72772L63.596874 256.74335L57.909374 256.74335Q57.909374 256.36835 58.034374 256.00897Q58.253124 255.43085 58.721874 254.86835Q59.20625 254.30585 60.1125 253.57147Q61.51875 252.41522 62.003124 251.74335Q62.503124 251.07147 62.503124 250.47772Q62.503124 249.85272 62.05 249.43085Q61.596874 248.99335 60.878124 248.99335Q60.1125 248.99335 59.659374 249.44647Q59.20625 249.8996 59.190624 250.7121L58.1125 250.60272Q58.221874 249.38397 58.940624 248.75897Q59.675 248.11835 60.909374 248.11835Q62.14375 248.11835 62.8625 248.80585Q63.58125 249.49335 63.58125 250.50897Q63.58125 251.0246 63.3625 251.5246Q63.159374 252.00897 62.659374 252.57147Q62.175 253.11835 61.05 254.07147Q60.096874 254.86835 59.815624 255.16522Q59.55 255.44647 59.378124 255.72772L63.596874 255.72772ZM65.05 254.49335L66.15938 254.3996Q66.28438 255.2121 66.72188 255.61835Q67.175 256.0246 67.81563 256.0246Q68.56563 256.0246 69.09688 255.44647Q69.62813 254.86835 69.62813 253.93085Q69.62813 253.0246 69.1125 252.50897Q68.6125 251.97772 67.78438 251.97772Q67.28438 251.97772 66.8625 252.2121Q66.45625 252.44647 66.22188 252.80585L65.2375 252.68085L66.06563 248.2746L70.34688 248.2746L70.34688 249.2746L66.90938 249.2746L66.45625 251.5871Q67.22188 251.04022 68.06563 251.04022Q69.19063 251.04022 69.95625 251.82147Q70.7375 252.60272 70.7375 253.8371Q70.7375 254.99335 70.06563 255.85272Q69.2375 256.88397 67.81563 256.88397Q66.64375 256.88397 65.89375 256.22772Q65.15938 255.57147 65.05 254.49335Z" fill-rule="nonzero"/><path fill="#000000" d="M58.05 206.78667L59.159374 206.69292Q59.284374 207.50542 59.721874 207.91167Q60.175 208.31792 60.815624 208.31792Q61.565624 208.31792 62.096874 207.73979Q62.628124 207.16167 62.628124 206.22417Q62.628124 205.31792 62.1125 204.80229Q61.6125 204.27104 60.784374 204.27104Q60.284374 204.27104 59.8625 204.50542Q59.45625 204.73979 59.221874 205.09917L58.2375 204.97417L59.065624 200.56792L63.346874 200.56792L63.346874 201.56792L59.909374 201.56792L59.45625 203.88042Q60.221874 203.33354 61.065624 203.33354Q62.190624 203.33354 62.95625 204.11479Q63.7375 204.89604 63.7375 206.13042Q63.7375 207.28667 63.065624 208.14604Q62.2375 209.17729 60.815624 209.17729Q59.64375 209.17729 58.89375 208.52104Q58.159374 207.86479 58.05 206.78667ZM65.05 204.80229Q65.05 203.27104 65.3625 202.34917Q65.675 201.41167 66.28438 200.91167Q66.90938 200.41167 67.84688 200.41167Q68.53438 200.41167 69.05 200.69292Q69.58125 200.97417 69.925 201.50542Q70.26875 202.02104 70.45625 202.77104Q70.64375 203.52104 70.64375 204.80229Q70.64375 206.31792 70.33125 207.23979Q70.03438 208.16167 69.40938 208.67729Q68.8 209.17729 67.84688 209.17729Q66.6125 209.17729 65.89375 208.28667Q65.05 207.22417 65.05 204.80229ZM66.12813 204.80229Q66.12813 206.91167 66.62813 207.61479Q67.12813 208.31792 67.84688 208.31792Q68.58125 208.31792 69.06563 207.61479Q69.56563 206.91167 69.56563 204.80229Q69.56563 202.67729 69.06563 201.98979Q68.58125 201.28667 67.83125 201.28667Q67.1125 201.28667 66.675 201.89604Q66.12813 202.67729 66.12813 204.80229Z" fill-rule="nonzero"/><path fill="#000000" d="M58.1125 153.86125L58.1125 152.84563L63.675 152.84563L63.675 153.67375Q62.8625 154.54875 62.05 156.00188Q61.253124 157.43938 60.815624 158.97063Q60.4875 160.04875 60.409374 161.33L59.315624 161.33Q59.33125 160.31438 59.70625 158.87688Q60.096874 157.43938 60.8 156.11125Q61.51875 154.78313 62.33125 153.86125L58.1125 153.86125ZM65.05 159.08L66.15938 158.98625Q66.28438 159.79875 66.72188 160.205Q67.175 160.61125 67.81563 160.61125Q68.56563 160.61125 69.09688 160.03313Q69.62813 159.455 69.62813 158.5175Q69.62813 157.61125 69.1125 157.09563Q68.6125 156.56438 67.78438 156.56438Q67.28438 156.56438 66.8625 156.79875Q66.45625 157.03313 66.22188 157.3925L65.2375 157.2675L66.06563 152.86125L70.34688 152.86125L70.34688 153.86125L66.90938 153.86125L66.45625 156.17375Q67.22188 155.62688 68.06563 155.62688Q69.19063 155.62688 69.95625 156.40813Q70.7375 157.18938 70.7375 158.42375Q70.7375 159.58 70.06563 160.43938Q69.2375 161.47063 67.81563 161.47063Q66.64375 161.47063 65.89375 160.81438Q65.15938 160.15813 65.05 159.08Z" fill-rule="nonzero"/><path fill="#000000" d="M55.01875 113.62334L53.971874 113.62334L53.971874 106.90459Q53.58125 107.26396 52.95625 107.63896Q52.346874 107.99834 51.8625 108.17021L51.8625 107.15459Q52.7375 106.73271 53.39375 106.15459Q54.065624 105.56084 54.346874 104.99834L55.01875 104.99834L55.01875 113.62334ZM58.05 109.38896Q58.05 107.85771 58.3625 106.93584Q58.675 105.99834 59.284374 105.49834Q59.909374 104.99834 60.846874 104.99834Q61.534374 104.99834 62.05 105.27959Q62.58125 105.56084 62.925 106.09209Q63.26875 106.60771 63.45625 107.35771Q63.64375 108.10771 63.64375 109.38896Q63.64375 110.90459 63.33125 111.82646Q63.034374 112.74834 62.409374 113.26396Q61.8 113.76396 60.846874 113.76396Q59.6125 113.76396 58.89375 112.87334Q58.05 111.81084 58.05 109.38896ZM59.128124 109.38896Q59.128124 111.49834 59.628124 112.20146Q60.128124 112.90459 60.846874 112.90459Q61.58125 112.90459 62.065624 112.20146Q62.565624 111.49834 62.565624 109.38896Q62.565624 107.26396 62.065624 106.57646Q61.58125 105.87334 60.83125 105.87334Q60.1125 105.87334 59.675 106.48271Q59.128124 107.26396 59.128124 109.38896ZM65.05 109.38896Q65.05 107.85771 65.3625 106.93584Q65.675 105.99834 66.28438 105.49834Q66.90938 104.99834 67.84688 104.99834Q68.53438 104.99834 69.05 105.27959Q69.58125 105.56084 69.925 106.09209Q70.26875 106.60771 70.45625 107.35771Q70.64375 108.10771 70.64375 109.38896Q70.64375 110.90459 70.33125 111.82646Q70.03438 112.74834 69.40938 113.26396Q68.8 113.76396 67.84688 113.76396Q66.6125 113.76396 65.89375 112.87334Q65.05 111.81084 65.05 109.38896ZM66.12813 109.38896Q66.12813 111.49834 66.62813 112.20146Q67.12813 112.90459 67.84688 112.90459Q68.58125 112.90459 69.06563 112.20146Q69.56563 111.49834 69.56563 109.38896Q69.56563 107.26396 69.06563 106.57646Q68.58125 105.87334 67.83125 105.87334Q67.1125 105.87334 66.675 106.48271Q66.12813 107.26396 66.12813 109.38896Z" fill-rule="nonzero"/><path fill="#000000" d="M55.01875 65.916664L53.971874 65.916664L53.971874 59.197914Q53.58125 59.55729 52.95625 59.93229Q52.346874 60.291664 51.8625 60.46354L51.8625 59.447914Q52.7375 59.02604 53.39375 58.447914Q54.065624 57.854164 54.346874 57.291664L55.01875 57.291664L55.01875 65.916664ZM63.596874 64.90104L63.596874 65.916664L57.909374 65.916664Q57.909374 65.541664 58.034374 65.18229Q58.253124 64.604164 58.721874 64.041664Q59.20625 63.479164 60.1125 62.74479Q61.51875 61.58854 62.003124 60.916664Q62.503124 60.24479 62.503124 59.65104Q62.503124 59.02604 62.05 58.604164Q61.596874 58.166664 60.878124 58.166664Q60.1125 58.166664 59.659374 58.61979Q59.20625 59.072914 59.190624 59.885414L58.1125 59.77604Q58.221874 58.55729 58.940624 57.93229Q59.675 57.291664 60.909374 57.291664Q62.14375 57.291664 62.8625 57.979164Q63.58125 58.666664 63.58125 59.68229Q63.58125 60.197914 63.3625 60.697914Q63.159374 61.18229 62.659374 61.74479Q62.175 62.291664 61.05 63.24479Q60.096874 64.041664 59.815624 64.33854Q59.55 64.61979 59.378124 64.90104L63.596874 64.90104ZM65.05 63.666664L66.15938 63.572914Q66.28438 64.385414 66.72188 64.791664Q67.175 65.197914 67.81563 65.197914Q68.56563 65.197914 69.09688 64.61979Q69.62813 64.041664 69.62813 63.104164Q69.62813 62.197914 69.1125 61.68229Q68.6125 61.15104 67.78438 61.15104Q67.28438 61.15104 66.8625 61.385414Q66.45625 61.61979 66.22188 61.979164L65.2375 61.854164L66.06563 57.447914L70.34688 57.447914L70.34688 58.447914L66.90938 58.447914L66.45625 60.760414Q67.22188 60.21354 68.06563 60.21354Q69.19063 60.21354 69.95625 60.99479Q70.7375 61.77604 70.7375 63.010414Q70.7375 64.166664 70.06563 65.02604Q69.2375 66.05729 67.81563 66.05729Q66.64375 66.05729 65.89375 65.40104Q65.15938 64.74479 65.05 63.666664Z" fill-rule="nonzero"/><path fill="#000000" d="M173.30496 316.4344L173.30496 317.45L167.61746 317.45Q167.61746 317.075 167.74246 316.71564Q167.96121 316.1375 168.42996 315.575Q168.91434 315.0125 169.82059 314.27814Q171.22684 313.1219 171.71121 312.45Q172.21121 311.77814 172.21121 311.1844Q172.21121 310.5594 171.75809 310.1375Q171.30496 309.7 170.58621 309.7Q169.82059 309.7 169.36746 310.15314Q168.91434 310.60626 168.89871 311.41876L167.82059 311.3094Q167.92996 310.09064 168.64871 309.46564Q169.38309 308.825 170.61746 308.825Q171.85184 308.825 172.57059 309.5125Q173.28934 310.2 173.28934 311.21564Q173.28934 311.73126 173.07059 312.23126Q172.86746 312.71564 172.36746 313.27814Q171.88309 313.825 170.75809 314.77814Q169.80496 315.575 169.52371 315.8719Q169.25809 316.15314 169.08621 316.4344L173.30496 316.4344ZM174.75809 313.21564Q174.75809 311.6844 175.07059 310.7625Q175.38309 309.825 175.99246 309.325Q176.61746 308.825 177.55496 308.825Q178.24246 308.825 178.75809 309.10626Q179.28934 309.3875 179.63309 309.91876Q179.97684 310.4344 180.16434 311.1844Q180.35184 311.9344 180.35184 313.21564Q180.35184 314.73126 180.03934 315.65314Q179.74246 316.575 179.11746 317.09064Q178.50809 317.59064 177.55496 317.59064Q176.32059 317.59064 175.60184 316.7Q174.75809 315.6375 174.75809 313.21564ZM175.83621 313.21564Q175.83621 315.325 176.33621 316.02814Q176.83621 316.73126 177.55496 316.73126Q178.28934 316.73126 178.77371 316.02814Q179.27371 315.325 179.27371 313.21564Q179.27371 311.09064 178.77371 310.40314Q178.28934 309.7 177.53934 309.7Q176.82059 309.7 176.38309 310.3094Q175.83621 311.09064 175.83621 313.21564Z" fill-rule="nonzero"/><path fill="#000000" d="M272.93106 317.45L272.93106 315.3875L269.2123 315.3875L269.2123 314.41876L273.1342 308.85626L273.99356 308.85626L273.99356 314.41876L275.1498 314.41876L275.1498 315.3875L273.99356 315.3875L273.99356 317.45L272.93106 317.45ZM272.93106 314.41876L272.93106 310.5594L270.24356 314.41876L272.93106 314.41876ZM276.55606 313.21564Q276.55606 311.6844 276.86856 310.7625Q277.18106 309.825 277.79044 309.325Q278.41544 308.825 279.35294 308.825Q280.04044 308.825 280.55606 309.10626Q281.0873 309.3875 281.43106 309.91876Q281.7748 310.4344 281.9623 311.1844Q282.1498 311.9344 282.1498 313.21564Q282.1498 314.73126 281.8373 315.65314Q281.54044 316.575 280.91544 317.09064Q280.30606 317.59064 279.35294 317.59064Q278.11856 317.59064 277.3998 316.7Q276.55606 315.6375 276.55606 313.21564ZM277.6342 313.21564Q277.6342 315.325 278.1342 316.02814Q278.6342 316.73126 279.35294 316.73126Q280.0873 316.73126 280.5717 316.02814Q281.0717 315.325 281.0717 313.21564Q281.0717 311.09064 280.5717 310.40314Q280.0873 309.7 279.3373 309.7Q278.61856 309.7 278.18106 310.3094Q277.6342 311.09064 277.6342 313.21564Z" fill-rule="nonzero"/><path fill="#000000" d="M376.82278 310.96564L375.7759 311.04376Q375.63528 310.41876 375.38528 310.1375Q374.94778 309.6844 374.32278 309.6844Q373.82278 309.6844 373.43216 309.96564Q372.94778 310.34064 372.6509 311.04376Q372.36966 311.73126 372.35403 313.0125Q372.72903 312.4344 373.2759 312.15314Q373.8384 311.8719 374.44778 311.8719Q375.49466 311.8719 376.22903 312.65314Q376.97903 313.4344 376.97903 314.65314Q376.97903 315.46564 376.61966 316.16876Q376.2759 316.85626 375.66653 317.23126Q375.05716 317.59064 374.29153 317.59064Q372.9634 317.59064 372.13528 316.6219Q371.30716 315.65314 371.30716 313.4344Q371.30716 310.9344 372.22903 309.8094Q373.0259 308.825 374.38528 308.825Q375.4009 308.825 376.04153 309.40314Q376.69778 309.96564 376.82278 310.96564ZM372.5259 314.66876Q372.5259 315.21564 372.74466 315.71564Q372.97903 316.2 373.38528 316.46564Q373.80716 316.73126 374.2759 316.73126Q374.93216 316.73126 375.41653 316.2Q375.9009 315.65314 375.9009 314.73126Q375.9009 313.84064 375.41653 313.325Q374.94778 312.8094 374.22903 312.8094Q373.51028 312.8094 373.01028 313.325Q372.5259 313.84064 372.5259 314.66876ZM378.35403 313.21564Q378.35403 311.6844 378.66653 310.7625Q378.97903 309.825 379.5884 309.325Q380.2134 308.825 381.1509 308.825Q381.8384 308.825 382.35403 309.10626Q382.88528 309.3875 383.22903 309.91876Q383.57278 310.4344 383.76028 311.1844Q383.94778 311.9344 383.94778 313.21564Q383.94778 314.73126 383.63528 315.65314Q383.3384 316.575 382.7134 317.09064Q382.10403 317.59064 381.1509 317.59064Q379.91653 317.59064 379.19778 316.7Q378.35403 315.6375 378.35403 313.21564ZM379.43216 313.21564Q379.43216 315.325 379.93216 316.02814Q380.43216 316.73126 381.1509 316.73126Q381.88528 316.73126 382.36966 316.02814Q382.86966 315.325 382.86966 313.21564Q382.86966 311.09064 382.36966 310.40314Q381.88528 309.7 381.13528 309.7Q380.41653 309.7 379.97903 310.3094Q379.43216 311.09064 379.43216 313.21564Z" fill-rule="nonzero"/><path fill="#000000" d="M474.777 312.79376Q474.12076 312.54376 473.79263 312.10626Q473.48013 311.65314 473.48013 311.04376Q473.48013 310.10626 474.152 309.46564Q474.8395 308.825 475.94888 308.825Q477.07388 308.825 477.76138 309.48126Q478.44888 310.1375 478.44888 311.075Q478.44888 311.66876 478.13638 312.10626Q477.82388 312.54376 477.18326 312.79376Q477.98013 313.04376 478.38638 313.6219Q478.79263 314.2 478.79263 314.9969Q478.79263 316.09064 478.01138 316.84064Q477.24576 317.59064 475.9645 317.59064Q474.69888 317.59064 473.91763 316.84064Q473.13638 316.09064 473.13638 314.96564Q473.13638 314.1219 473.55826 313.5594Q473.99576 312.9969 474.777 312.79376ZM474.55826 310.9969Q474.55826 311.60626 474.94888 311.9969Q475.35513 312.3875 475.98013 312.3875Q476.5895 312.3875 476.98013 312.0125Q477.37076 311.6219 477.37076 311.0594Q477.37076 310.48126 476.9645 310.09064Q476.55826 309.6844 475.9645 309.6844Q475.35513 309.6844 474.94888 310.075Q474.55826 310.46564 474.55826 310.9969ZM474.23013 314.96564Q474.23013 315.41876 474.43326 315.84064Q474.652 316.2625 475.07388 316.4969Q475.49576 316.73126 475.98013 316.73126Q476.73013 316.73126 477.2145 316.2469Q477.7145 315.7625 477.7145 315.0125Q477.7145 314.2469 477.2145 313.7469Q476.7145 313.2469 475.94888 313.2469Q475.19888 313.2469 474.7145 313.7469Q474.23013 314.23126 474.23013 314.96564ZM480.152 313.21564Q480.152 311.6844 480.4645 310.7625Q480.777 309.825 481.38638 309.325Q482.01138 308.825 482.94888 308.825Q483.63638 308.825 484.152 309.10626Q484.68326 309.3875 485.027 309.91876Q485.37076 310.4344 485.55826 311.1844Q485.74576 311.9344 485.74576 313.21564Q485.74576 314.73126 485.43326 315.65314Q485.13638 316.575 484.51138 317.09064Q483.902 317.59064 482.94888 317.59064Q481.7145 317.59064 480.99576 316.7Q480.152 315.6375 480.152 313.21564ZM481.23013 313.21564Q481.23013 315.325 481.73013 316.02814Q482.23013 316.73126 482.94888 316.73126Q483.68326 316.73126 484.16763 316.02814Q484.66763 315.325 484.66763 313.21564Q484.66763 311.09064 484.16763 310.40314Q483.68326 309.7 482.93326 309.7Q482.2145 309.7 481.777 310.3094Q481.23013 311.09064 481.23013 313.21564Z" fill-rule="nonzero"/><path fill="#000000" d="M575.41876 317.45L574.3719 317.45L574.3719 310.73126Q573.98126 311.09064 573.35626 311.46564Q572.7469 311.825 572.2625 311.9969L572.2625 310.98126Q573.1375 310.5594 573.79376 309.98126Q574.46564 309.3875 574.7469 308.825L575.41876 308.825L575.41876 317.45ZM578.45 313.21564Q578.45 311.6844 578.7625 310.7625Q579.075 309.825 579.6844 309.325Q580.3094 308.825 581.2469 308.825Q581.9344 308.825 582.45 309.10626Q582.98126 309.3875 583.325 309.91876Q583.66876 310.4344 583.85626 311.1844Q584.04376 311.9344 584.04376 313.21564Q584.04376 314.73126 583.73126 315.65314Q583.4344 316.575 582.8094 317.09064Q582.2 317.59064 581.2469 317.59064Q580.0125 317.59064 579.29376 316.7Q578.45 315.6375 578.45 313.21564ZM579.52814 313.21564Q579.52814 315.325 580.02814 316.02814Q580.52814 316.73126 581.2469 316.73126Q581.98126 316.73126 582.46564 316.02814Q582.96564 315.325 582.96564 313.21564Q582.96564 311.09064 582.46564 310.40314Q581.98126 309.7 581.23126 309.7Q580.5125 309.7 580.075 310.3094Q579.52814 311.09064 579.52814 313.21564ZM585.45 313.21564Q585.45 311.6844 585.7625 310.7625Q586.075 309.825 586.6844 309.325Q587.3094 308.825 588.2469 308.825Q588.9344 308.825 589.45 309.10626Q589.98126 309.3875 590.325 309.91876Q590.66876 310.4344 590.85626 311.1844Q591.04376 311.9344 591.04376 313.21564Q591.04376 314.73126 590.73126 315.65314Q590.4344 316.575 589.8094 317.09064Q589.2 317.59064 588.2469 317.59064Q587.0125 317.59064 586.29376 316.7Q585.45 315.6375 585.45 313.21564ZM586.52814 313.21564Q586.52814 315.325 587.02814 316.02814Q587.52814 316.73126 588.2469 316.73126Q588.98126 316.73126 589.46564 316.02814Q589.96564 315.325 589.96564 313.21564Q589.96564 311.09064 589.46564 310.40314Q588.98126 309.7 588.23126 309.7Q587.5125 309.7 587.075 310.3094Q586.52814 311.09064 586.52814 313.21564Z" fill-rule="nonzero"/><path fill="#757575" d="M22.596874 37.55L18.8 23.2375L20.7375 23.2375L22.909374 32.6125Q23.26875 34.096874 23.51875 35.55Q24.065624 33.253124 24.159374 32.89375L26.89375 23.2375L29.175 23.2375L31.221874 30.471874Q32.003124 33.175 32.346874 35.55Q32.6125 34.190624 33.05 32.425L35.3 23.2375L37.20625 23.2375L33.284374 37.55L31.45625 37.55L28.440624 26.64375Q28.05 25.26875 27.9875 24.95625Q27.753124 25.940624 27.565624 26.64375L24.534374 37.55L22.596874 37.55ZM45.971874 34.20625L47.784374 34.440624Q47.3625 36.01875 46.190624 36.909374Q45.034374 37.784374 43.221874 37.784374Q40.95625 37.784374 39.6125 36.39375Q38.284374 34.9875 38.284374 32.45625Q38.284374 29.83125 39.628124 28.39375Q40.971874 26.940624 43.128124 26.940624Q45.20625 26.940624 46.51875 28.3625Q47.846874 29.76875 47.846874 32.346874Q47.846874 32.503124 47.83125 32.815624L40.096874 32.815624Q40.190624 34.51875 41.065624 35.425Q41.940624 36.33125 43.2375 36.33125Q44.20625 36.33125 44.878124 35.83125Q45.565624 35.315624 45.971874 34.20625ZM40.190624 31.3625L45.9875 31.3625Q45.878124 30.065624 45.33125 29.409374Q44.4875 28.39375 43.14375 28.39375Q41.940624 28.39375 41.1125 29.20625Q40.284374 30.003124 40.190624 31.3625ZM56.64375 36.26875Q55.659374 37.096874 54.753124 37.440624Q53.846874 37.784374 52.815624 37.784374Q51.1125 37.784374 50.190624 36.95625Q49.26875 36.1125 49.26875 34.815624Q49.26875 34.05 49.6125 33.425Q49.971874 32.8 50.534374 32.425Q51.096874 32.034374 51.8 31.83125Q52.315624 31.70625 53.3625 31.565624Q55.4875 31.315624 56.4875 30.971874Q56.503124 30.6125 56.503124 30.503124Q56.503124 29.440624 56.003124 28.9875Q55.33125 28.39375 54.003124 28.39375Q52.753124 28.39375 52.159374 28.83125Q51.58125 29.26875 51.3 30.378124L49.58125 30.14375Q49.815624 29.034374 50.346874 28.3625Q50.878124 27.675 51.89375 27.315624Q52.909374 26.940624 54.253124 26.940624Q55.58125 26.940624 56.409374 27.253124Q57.2375 27.565624 57.628124 28.05Q58.01875 28.51875 58.175 29.2375Q58.26875 29.690624 58.26875 30.8625L58.26875 33.20625Q58.26875 35.659374 58.378124 36.315624Q58.4875 36.95625 58.83125 37.55L56.9875 37.55Q56.721874 37.003124 56.64375 36.26875ZM56.4875 32.346874Q55.534374 32.7375 53.6125 33.003124Q52.534374 33.159374 52.08125 33.3625Q51.64375 33.55 51.39375 33.925Q51.14375 34.3 51.14375 34.76875Q51.14375 35.471874 51.675 35.940624Q52.20625 36.409374 53.2375 36.409374Q54.253124 36.409374 55.034374 35.971874Q55.83125 35.51875 56.20625 34.753124Q56.4875 34.14375 56.4875 32.9875L56.4875 32.346874ZM60.83125 37.55L60.83125 23.2375L62.58125 23.2375L62.58125 37.55L60.83125 37.55ZM68.70625 35.971874L68.95625 37.534374Q68.22188 37.690624 67.62813 37.690624Q66.675 37.690624 66.14375 37.39375Q65.62813 37.08125 65.40938 36.596874Q65.19063 36.096874 65.19063 34.51875L65.19063 28.55L63.909374 28.55L63.909374 27.175L65.19063 27.175L65.19063 24.6125L66.94063 23.55L66.94063 27.175L68.70625 27.175L68.70625 28.55L66.94063 28.55L66.94063 34.6125Q66.94063 35.3625 67.03438 35.58125Q67.12813 35.784374 67.33125 35.925Q67.55 36.05 67.94063 36.05Q68.22188 36.05 68.70625 35.971874ZM70.8625 37.55L70.8625 23.2375L72.62813 23.2375L72.62813 28.3625Q73.8625 26.940624 75.7375 26.940624Q76.87813 26.940624 77.72188 27.39375Q78.58125 27.846874 78.94063 28.659374Q79.31563 29.45625 79.31563 30.971874L79.31563 37.55L77.56563 37.55L77.56563 30.971874Q77.56563 29.659374 76.9875 29.065624Q76.40938 28.45625 75.37813 28.45625Q74.59688 28.45625 73.89375 28.8625Q73.20625 29.26875 72.90938 29.971874Q72.62813 30.659374 72.62813 31.878124L72.62813 37.55L70.8625 37.55ZM94.59688 37.55L94.59688 36.2375Q93.6125 37.784374 91.69063 37.784374Q90.45625 37.784374 89.40938 37.096874Q88.37813 36.409374 87.8 35.190624Q87.2375 33.971874 87.2375 32.378124Q87.2375 30.815624 87.75313 29.55Q88.26875 28.284374 89.3 27.6125Q90.34688 26.940624 91.6125 26.940624Q92.55 26.940624 93.28438 27.346874Q94.01875 27.7375 94.4875 28.3625L94.4875 23.2375L96.22188 23.2375L96.22188 37.55L94.59688 37.55ZM89.03438 32.378124Q89.03438 34.3625 89.87813 35.346874Q90.72188 36.33125 91.8625 36.33125Q93.01875 36.33125 93.81563 35.39375Q94.62813 34.45625 94.62813 32.51875Q94.62813 30.39375 93.8 29.39375Q92.9875 28.39375 91.78438 28.39375Q90.6125 28.39375 89.81563 29.3625Q89.03438 30.315624 89.03438 32.378124ZM105.97188 34.20625L107.78438 34.440624Q107.3625 36.01875 106.19063 36.909374Q105.03438 37.784374 103.22188 37.784374Q100.95625 37.784374 99.6125 36.39375Q98.28438 34.9875 98.28438 32.45625Q98.28438 29.83125 99.62813 28.39375Q100.97188 26.940624 103.12813 26.940624Q105.20625 26.940624 106.51875 28.3625Q107.84688 29.76875 107.84688 32.346874Q107.84688 32.503124 107.83125 32.815624L100.09688 32.815624Q100.19063 34.51875 101.06563 35.425Q101.94063 36.33125 103.2375 36.33125Q104.20625 36.33125 104.87813 35.83125Q105.56563 35.315624 105.97188 34.20625ZM100.19063 31.3625L105.9875 31.3625Q105.87813 30.065624 105.33125 29.409374Q104.4875 28.39375 103.14375 28.39375Q101.94063 28.39375 101.1125 29.20625Q100.28438 30.003124 100.19063 31.3625ZM116.64375 33.753124L118.3625 33.971874Q118.08125 35.76875 116.90938 36.784374Q115.75313 37.784374 114.05 37.784374Q111.925 37.784374 110.62813 36.39375Q109.33125 35.003124 109.33125 32.409374Q109.33125 30.721874 109.87813 29.471874Q110.44063 28.20625 111.58125 27.58125Q112.72188 26.940624 114.06563 26.940624Q115.75313 26.940624 116.81563 27.8Q117.89375 28.659374 118.20625 30.221874L116.4875 30.4875Q116.25313 29.440624 115.62813 28.925Q115.00313 28.39375 114.12813 28.39375Q112.8 28.39375 111.97188 29.346874Q111.14375 30.3 111.14375 32.346874Q111.14375 34.440624 111.94063 35.39375Q112.7375 36.33125 114.03438 36.33125Q115.06563 36.33125 115.75313 35.70625Q116.45625 35.065624 116.64375 33.753124ZM126.64375 36.26875Q125.65938 37.096874 124.75313 37.440624Q123.84688 37.784374 122.81563 37.784374Q121.1125 37.784374 120.19063 36.95625Q119.26875 36.1125 119.26875 34.815624Q119.26875 34.05 119.6125 33.425Q119.97188 32.8 120.53438 32.425Q121.09688 32.034374 121.8 31.83125Q122.31563 31.70625 123.3625 31.565624Q125.4875 31.315624 126.4875 30.971874Q126.50313 30.6125 126.50313 30.503124Q126.50313 29.440624 126.00313 28.9875Q125.33125 28.39375 124.00313 28.39375Q122.75313 28.39375 122.15938 28.83125Q121.58125 29.26875 121.3 30.378124L119.58125 30.14375Q119.81563 29.034374 120.34688 28.3625Q120.87813 27.675 121.89375 27.315624Q122.90938 26.940624 124.25313 26.940624Q125.58125 26.940624 126.40938 27.253124Q127.2375 27.565624 127.62813 28.05Q128.01875 28.51875 128.175 29.2375Q128.26875 29.690624 128.26875 30.8625L128.26875 33.20625Q128.26875 35.659374 128.37813 36.315624Q128.4875 36.95625 128.83125 37.55L126.9875 37.55Q126.72188 37.003124 126.64375 36.26875ZM126.4875 32.346874Q125.53438 32.7375 123.6125 33.003124Q122.53438 33.159374 122.08125 33.3625Q121.64375 33.55 121.39375 33.925Q121.14375 34.3 121.14375 34.76875Q121.14375 35.471874 121.675 35.940624Q122.20625 36.409374 123.2375 36.409374Q124.25313 36.409374 125.03438 35.971874Q125.83125 35.51875 126.20625 34.753124Q126.4875 34.14375 126.4875 32.9875L126.4875 32.346874ZM130.78438 41.55L130.59688 39.89375Q131.175 40.05 131.59688 40.05Q132.19063 40.05 132.53438 39.846874Q132.89375 39.659374 133.1125 39.315624Q133.28438 39.05 133.65938 38.003124Q133.70625 37.846874 133.81563 37.565624L129.87813 27.175L131.76875 27.175L133.925 33.190624Q134.34688 34.33125 134.675 35.58125Q134.9875 34.378124 135.39375 33.221874L137.6125 27.175L139.37813 27.175L135.425 37.721874Q134.8 39.440624 134.44063 40.08125Q133.97188 40.95625 133.3625 41.346874Q132.76875 41.753124 131.925 41.753124Q131.40938 41.753124 130.78438 41.55ZM153.59688 37.55L153.59688 36.2375Q152.6125 37.784374 150.69063 37.784374Q149.45625 37.784374 148.40938 37.096874Q147.37813 36.409374 146.8 35.190624Q146.2375 33.971874 146.2375 32.378124Q146.2375 30.815624 146.75313 29.55Q147.26875 28.284374 148.3 27.6125Q149.34688 26.940624 150.6125 26.940624Q151.55 26.940624 152.28438 27.346874Q153.01875 27.7375 153.4875 28.3625L153.4875 23.2375L155.22188 23.2375L155.22188 37.55L153.59688 37.55ZM148.03438 32.378124Q148.03438 34.3625 148.87813 35.346874Q149.72188 36.33125 150.8625 36.33125Q152.01875 36.33125 152.81563 35.39375Q153.62813 34.45625 153.62813 32.51875Q153.62813 30.39375 152.8 29.39375Q151.9875 28.39375 150.78438 28.39375Q149.6125 28.39375 148.81563 29.3625Q148.03438 30.315624 148.03438 32.378124ZM164.65938 37.55L164.65938 36.01875Q163.45625 37.784374 161.37813 37.784374Q160.45625 37.784374 159.65938 37.440624Q158.8625 37.08125 158.47188 36.55Q158.09688 36.01875 157.94063 35.2375Q157.83125 34.721874 157.83125 33.596874L157.83125 27.175L159.58125 27.175L159.58125 32.925Q159.58125 34.3 159.69063 34.784374Q159.8625 35.471874 160.39375 35.878124Q160.94063 36.26875 161.72188 36.26875Q162.51875 36.26875 163.20625 35.8625Q163.90938 35.45625 164.19063 34.76875Q164.4875 34.065624 164.4875 32.7375L164.4875 27.175L166.2375 27.175L166.2375 37.55L164.65938 37.55ZM175.97188 34.20625L177.78438 34.440624Q177.3625 36.01875 176.19063 36.909374Q175.03438 37.784374 173.22188 37.784374Q170.95625 37.784374 169.6125 36.39375Q168.28438 34.9875 168.28438 32.45625Q168.28438 29.83125 169.62813 28.39375Q170.97188 26.940624 173.12813 26.940624Q175.20625 26.940624 176.51875 28.3625Q177.84688 29.76875 177.84688 32.346874Q177.84688 32.503124 177.83125 32.815624L170.09688 32.815624Q170.19063 34.51875 171.06563 35.425Q171.94063 36.33125 173.2375 36.33125Q174.20625 36.33125 174.87813 35.83125Q175.56563 35.315624 175.97188 34.20625ZM170.19063 31.3625L175.9875 31.3625Q175.87813 30.065624 175.33125 29.409374Q174.4875 28.39375 173.14375 28.39375Q171.94063 28.39375 171.1125 29.20625Q170.28438 30.003124 170.19063 31.3625ZM189.70625 35.971874L189.95625 37.534374Q189.22188 37.690624 188.62813 37.690624Q187.675 37.690624 187.14375 37.39375Q186.62813 37.08125 186.40938 36.596874Q186.19063 36.096874 186.19063 34.51875L186.19063 28.55L184.90938 28.55L184.90938 27.175L186.19063 27.175L186.19063 24.6125L187.94063 23.55L187.94063 27.175L189.70625 27.175L189.70625 28.55L187.94063 28.55L187.94063 34.6125Q187.94063 35.3625 188.03438 35.58125Q188.12813 35.784374 188.33125 35.925Q188.55 36.05 188.94063 36.05Q189.22188 36.05 189.70625 35.971874ZM191.22188 32.3625Q191.22188 29.4875 192.81563 28.096874Q194.15938 26.940624 196.08125 26.940624Q198.22188 26.940624 199.56563 28.346874Q200.925 29.753124 200.925 32.221874Q200.925 34.221874 200.33125 35.378124Q199.7375 36.51875 198.58125 37.159374Q197.44063 37.784374 196.08125 37.784374Q193.89375 37.784374 192.55 36.39375Q191.22188 34.9875 191.22188 32.3625ZM193.01875 32.3625Q193.01875 34.3625 193.87813 35.346874Q194.75313 36.33125 196.08125 36.33125Q197.39375 36.33125 198.25313 35.346874Q199.12813 34.346874 199.12813 32.3Q199.12813 30.378124 198.25313 29.39375Q197.37813 28.39375 196.08125 28.39375Q194.75313 28.39375 193.87813 29.39375Q193.01875 30.378124 193.01875 32.3625ZM215.64375 36.26875Q214.65938 37.096874 213.75313 37.440624Q212.84688 37.784374 211.81563 37.784374Q210.1125 37.784374 209.19063 36.95625Q208.26875 36.1125 208.26875 34.815624Q208.26875 34.05 208.6125 33.425Q208.97188 32.8 209.53438 32.425Q210.09688 32.034374 210.8 31.83125Q211.31563 31.70625 212.3625 31.565624Q214.4875 31.315624 215.4875 30.971874Q215.50313 30.6125 215.50313 30.503124Q215.50313 29.440624 215.00313 28.9875Q214.33125 28.39375 213.00313 28.39375Q211.75313 28.39375 211.15938 28.83125Q210.58125 29.26875 210.3 30.378124L208.58125 30.14375Q208.81563 29.034374 209.34688 28.3625Q209.87813 27.675 210.89375 27.315624Q211.90938 26.940624 213.25313 26.940624Q214.58125 26.940624 215.40938 27.253124Q216.2375 27.565624 216.62813 28.05Q217.01875 28.51875 217.175 29.2375Q217.26875 29.690624 217.26875 30.8625L217.26875 33.20625Q217.26875 35.659374 217.37813 36.315624Q217.4875 36.95625 217.83125 37.55L215.9875 37.55Q215.72188 37.003124 215.64375 36.26875ZM215.4875 32.346874Q214.53438 32.7375 212.6125 33.003124Q211.53438 33.159374 211.08125 33.3625Q210.64375 33.55 210.39375 33.925Q210.14375 34.3 210.14375 34.76875Q210.14375 35.471874 210.675 35.940624Q211.20625 36.409374 212.2375 36.409374Q213.25313 36.409374 214.03438 35.971874Q214.83125 35.51875 215.20625 34.753124Q215.4875 34.14375 215.4875 32.9875L215.4875 32.346874ZM234.6125 35.8625L234.6125 37.55L225.15938 37.55Q225.14375 36.909374 225.3625 36.33125Q225.72188 35.3625 226.51875 34.425Q227.31563 33.4875 228.81563 32.253124Q231.15938 30.346874 231.97188 29.2375Q232.8 28.1125 232.8 27.1125Q232.8 26.065624 232.05 25.346874Q231.3 24.628124 230.09688 24.628124Q228.83125 24.628124 228.06563 25.39375Q227.3 26.159374 227.3 27.503124L225.4875 27.315624Q225.675 25.3 226.87813 24.2375Q228.09688 23.175 230.14375 23.175Q232.19063 23.175 233.39375 24.315624Q234.59688 25.45625 234.59688 27.14375Q234.59688 28.003124 234.2375 28.846874Q233.89375 29.675 233.08125 30.596874Q232.26875 31.503124 230.37813 33.1125Q228.78438 34.440624 228.33125 34.909374Q227.89375 35.378124 227.59688 35.8625L234.6125 35.8625ZM236.70625 26.675Q236.70625 25.14375 237.47188 24.065624Q238.25313 22.9875 239.72188 22.9875Q241.06563 22.9875 241.94063 23.95625Q242.83125 24.909374 242.83125 26.784374Q242.83125 28.596874 241.94063 29.58125Q241.05 30.55 239.7375 30.55Q238.44063 30.55 237.56563 29.596874Q236.70625 28.628124 236.70625 26.675ZM239.76875 24.20625Q239.1125 24.20625 238.675 24.76875Q238.25313 25.33125 238.25313 26.846874Q238.25313 28.221874 238.69063 28.784374Q239.12813 29.346874 239.76875 29.346874Q240.44063 29.346874 240.8625 28.784374Q241.3 28.20625 241.3 26.70625Q241.3 25.315624 240.8625 24.76875Q240.425 24.20625 239.76875 24.20625ZM239.78438 38.08125L247.6125 22.9875L249.03438 22.9875L241.2375 38.08125L239.78438 38.08125ZM245.97188 34.190624Q245.97188 32.64375 246.7375 31.58125Q247.51875 30.503124 248.9875 30.503124Q250.33125 30.503124 251.20625 31.471874Q252.09688 32.425 252.09688 34.3Q252.09688 36.1125 251.20625 37.096874Q250.31563 38.08125 249.00313 38.08125Q247.70625 38.08125 246.83125 37.1125Q245.97188 36.128124 245.97188 34.190624ZM249.03438 31.721874Q248.37813 31.721874 247.94063 32.284374Q247.50313 32.846874 247.50313 34.3625Q247.50313 35.7375 247.94063 36.3Q248.37813 36.8625 249.03438 36.8625Q249.70625 36.8625 250.12813 36.3Q250.56563 35.7375 250.56563 34.221874Q250.56563 32.846874 250.12813 32.284374Q249.69063 31.721874 249.03438 31.721874ZM262.78436 37.55L259.6125 27.175L261.425 27.175L263.08124 33.159374L263.6906 35.39375Q263.7375 35.221874 264.22186 33.253124L265.8781 27.175L267.6906 27.175L269.2375 33.190624L269.7531 35.175L270.34686 33.175L272.1281 27.175L273.83124 27.175L270.59686 37.55L268.76874 37.55L267.1125 31.33125L266.72186 29.565624L264.6125 37.55L262.78436 37.55ZM281.97186 34.20625L283.78436 34.440624Q283.3625 36.01875 282.1906 36.909374Q281.03436 37.784374 279.22186 37.784374Q276.95624 37.784374 275.6125 36.39375Q274.28436 34.9875 274.28436 32.45625Q274.28436 29.83125 275.6281 28.39375Q276.97186 26.940624 279.1281 26.940624Q281.20624 26.940624 282.51874 28.3625Q283.84686 29.76875 283.84686 32.346874Q283.84686 32.503124 283.83124 32.815624L276.09686 32.815624Q276.1906 34.51875 277.0656 35.425Q277.9406 36.33125 279.2375 36.33125Q280.20624 36.33125 280.8781 35.83125Q281.5656 35.315624 281.97186 34.20625ZM276.1906 31.3625L281.9875 31.3625Q281.8781 30.065624 281.33124 29.409374Q280.4875 28.39375 279.14374 28.39375Q277.9406 28.39375 277.1125 29.20625Q276.28436 30.003124 276.1906 31.3625ZM292.64374 36.26875Q291.65936 37.096874 290.7531 37.440624Q289.84686 37.784374 288.8156 37.784374Q287.1125 37.784374 286.1906 36.95625Q285.26874 36.1125 285.26874 34.815624Q285.26874 34.05 285.6125 33.425Q285.97186 32.8 286.53436 32.425Q287.09686 32.034374 287.8 31.83125Q288.3156 31.70625 289.3625 31.565624Q291.4875 31.315624 292.4875 30.971874Q292.5031 30.6125 292.5031 30.503124Q292.5031 29.440624 292.0031 28.9875Q291.33124 28.39375 290.0031 28.39375Q288.7531 28.39375 288.15936 28.83125Q287.58124 29.26875 287.3 30.378124L285.58124 30.14375Q285.8156 29.034374 286.34686 28.3625Q286.8781 27.675 287.89374 27.315624Q288.90936 26.940624 290.2531 26.940624Q291.58124 26.940624 292.40936 27.253124Q293.2375 27.565624 293.6281 28.05Q294.01874 28.51875 294.175 29.2375Q294.26874 29.690624 294.26874 30.8625L294.26874 33.20625Q294.26874 35.659374 294.3781 36.315624Q294.4875 36.95625 294.83124 37.55L292.9875 37.55Q292.72186 37.003124 292.64374 36.26875ZM292.4875 32.346874Q291.53436 32.7375 289.6125 33.003124Q288.53436 33.159374 288.08124 33.3625Q287.64374 33.55 287.39374 33.925Q287.14374 34.3 287.14374 34.76875Q287.14374 35.471874 287.675 35.940624Q288.20624 36.409374 289.2375 36.409374Q290.2531 36.409374 291.03436 35.971874Q291.83124 35.51875 292.20624 34.753124Q292.4875 34.14375 292.4875 32.9875L292.4875 32.346874ZM296.83124 37.55L296.83124 23.2375L298.58124 23.2375L298.58124 37.55L296.83124 37.55ZM304.70624 35.971874L304.95624 37.534374Q304.22186 37.690624 303.6281 37.690624Q302.675 37.690624 302.14374 37.39375Q301.6281 37.08125 301.40936 36.596874Q301.1906 36.096874 301.1906 34.51875L301.1906 28.55L299.90936 28.55L299.90936 27.175L301.1906 27.175L301.1906 24.6125L302.9406 23.55L302.9406 27.175L304.70624 27.175L304.70624 28.55L302.9406 28.55L302.9406 34.6125Q302.9406 35.3625 303.03436 35.58125Q303.1281 35.784374 303.33124 35.925Q303.55 36.05 303.9406 36.05Q304.22186 36.05 304.70624 35.971874ZM306.8625 37.55L306.8625 23.2375L308.6281 23.2375L308.6281 28.3625Q309.8625 26.940624 311.7375 26.940624Q312.8781 26.940624 313.72186 27.39375Q314.58124 27.846874 314.9406 28.659374Q315.3156 29.45625 315.3156 30.971874L315.3156 37.55L313.5656 37.55L313.5656 30.971874Q313.5656 29.659374 312.9875 29.065624Q312.40936 28.45625 311.3781 28.45625Q310.59686 28.45625 309.89374 28.8625Q309.20624 29.26875 308.90936 29.971874Q308.6281 30.659374 308.6281 31.878124L308.6281 37.55L306.8625 37.55ZM327.70624 35.971874L327.95624 37.534374Q327.22186 37.690624 326.6281 37.690624Q325.675 37.690624 325.14374 37.39375Q324.6281 37.08125 324.40936 36.596874Q324.1906 36.096874 324.1906 34.51875L324.1906 28.55L322.90936 28.55L322.90936 27.175L324.1906 27.175L324.1906 24.6125L325.9406 23.55L325.9406 27.175L327.70624 27.175L327.70624 28.55L325.9406 28.55L325.9406 34.6125Q325.9406 35.3625 326.03436 35.58125Q326.1281 35.784374 326.33124 35.925Q326.55 36.05 326.9406 36.05Q327.22186 36.05 327.70624 35.971874ZM336.64374 36.26875Q335.65936 37.096874 334.7531 37.440624Q333.84686 37.784374 332.8156 37.784374Q331.1125 37.784374 330.1906 36.95625Q329.26874 36.1125 329.26874 34.815624Q329.26874 34.05 329.6125 33.425Q329.97186 32.8 330.53436 32.425Q331.09686 32.034374 331.8 31.83125Q332.3156 31.70625 333.3625 31.565624Q335.4875 31.315624 336.4875 30.971874Q336.5031 30.6125 336.5031 30.503124Q336.5031 29.440624 336.0031 28.9875Q335.33124 28.39375 334.0031 28.39375Q332.7531 28.39375 332.15936 28.83125Q331.58124 29.26875 331.3 30.378124L329.58124 30.14375Q329.8156 29.034374 330.34686 28.3625Q330.8781 27.675 331.89374 27.315624Q332.90936 26.940624 334.2531 26.940624Q335.58124 26.940624 336.40936 27.253124Q337.2375 27.565624 337.6281 28.05Q338.01874 28.51875 338.175 29.2375Q338.26874 29.690624 338.26874 30.8625L338.26874 33.20625Q338.26874 35.659374 338.3781 36.315624Q338.4875 36.95625 338.83124 37.55L336.9875 37.55Q336.72186 37.003124 336.64374 36.26875ZM336.4875 32.346874Q335.53436 32.7375 333.6125 33.003124Q332.53436 33.159374 332.08124 33.3625Q331.64374 33.55 331.39374 33.925Q331.14374 34.3 331.14374 34.76875Q331.14374 35.471874 331.675 35.940624Q332.20624 36.409374 333.2375 36.409374Q334.2531 36.409374 335.03436 35.971874Q335.83124 35.51875 336.20624 34.753124Q336.4875 34.14375 336.4875 32.9875L336.4875 32.346874ZM339.6906 37.55L343.4875 32.159374L339.9875 27.175L342.175 27.175L343.76874 29.6125Q344.22186 30.3 344.4875 30.76875Q344.925 30.128124 345.28436 29.628124L347.03436 27.175L349.1281 27.175L345.55 32.065624L349.40936 37.55L347.2531 37.55L345.1125 34.33125L344.55 33.45625L341.83124 37.55L339.6906 37.55Z" fill-rule="nonzero"/></svg>